<?xml version="1.0" encoding="UTF-8" standalone="no"?>
<!-- Created with Inkscape (http://www.inkscape.org/) -->

<svg
   width="126.23177mm"
   height="85.728539mm"
   viewBox="0 0 126.23177 85.728539"
   version="1.1"
   id="svg1"
   sodipodi:docname="esc-down.svg"
   inkscape:version="1.3.2 (091e20e, 2023-11-25, custom)"
   xmlns:inkscape="http://www.inkscape.org/namespaces/inkscape"
   xmlns:sodipodi="http://sodipodi.sourceforge.net/DTD/sodipodi-0.dtd"
   xmlns="http://www.w3.org/2000/svg"
   xmlns:svg="http://www.w3.org/2000/svg">
  <sodipodi:namedview
     id="namedview1"
     pagecolor="#505050"
     bordercolor="#ffffff"
     borderopacity="1"
     inkscape:showpageshadow="0"
     inkscape:pageopacity="0"
     inkscape:pagecheckerboard="1"
     inkscape:deskcolor="#505050"
     inkscape:document-units="mm"
     inkscape:zoom="4"
     inkscape:cx="-66.5"
     inkscape:cy="80.125"
     inkscape:window-width="1791"
     inkscape:window-height="1119"
     inkscape:window-x="2386"
     inkscape:window-y="234"
     inkscape:window-maximized="0"
     inkscape:current-layer="layer1"
     showguides="true">
    <sodipodi:guide
       position="47.515935,249.15358"
       orientation="0,-1"
       id="guide41"
       inkscape:locked="false" />
    <sodipodi:guide
       position="45.049534,241.9746"
       orientation="0,-1"
       id="guide42"
       inkscape:locked="false" />
    <sodipodi:guide
       position="15.709635,85.199372"
       orientation="0,-1"
       id="guide1"
       inkscape:locked="false" />
  </sodipodi:namedview>
  <defs
     id="defs1" />
  <g
     inkscape:label="Layer 1"
     inkscape:groupmode="layer"
     id="layer1"
     transform="translate(-7.6697754,-5.5335347)">
    <path
       id="path28-8"
       style="fill:#000000;fill-opacity:0.55;stroke:#9e9e9e;stroke-width:0.529;stroke-linecap:butt;stroke-linejoin:round;stroke-miterlimit:80;stroke-dasharray:none;stroke-dashoffset:127.298;stroke-opacity:0.55;paint-order:stroke fill markers"
       d="m 50.868834,26.433702 h 10.623001 c 0.554,0 0.917645,0.452156 1,1 l 1.5295,10.174534 c 0.08236,0.547845 -0.446,1 -1,1 h -11.3235 c -0.554,0 -0.95501,-0.44783 -1,-1 L 49.868836,27.433702 c -0.04499,-0.552169 0.358964,-1 0.912964,-1 z"
       sodipodi:nodetypes="ssssssssss" />
    <path
       id="path27-7"
       style="fill:#000000;fill-opacity:0.55;stroke:#9e9e9e;stroke-width:0.529;stroke-linecap:butt;stroke-linejoin:round;stroke-miterlimit:80;stroke-dasharray:none;stroke-dashoffset:127.298;stroke-opacity:0.55;paint-order:stroke fill markers"
       d="m 37.181334,26.433702 h 10.723082 c 0.554,0 0.954988,0.447832 1,1 l 0.829419,10.174534 c 0.04501,0.552169 -0.446,1 -1,1 H 37.510334 c -0.554,0 -0.982096,-0.44629 -1,-1 L 36.181336,27.433702 c -0.0179,-0.55371 0.358964,-1 0.912964,-1 z"
       sodipodi:nodetypes="ssssssssss" />
    <path
       id="path11-6"
       style="fill:#000000;fill-opacity:0.55;stroke:#9e9e9e;stroke-width:0.529;stroke-linecap:butt;stroke-linejoin:round;stroke-miterlimit:80;stroke-dasharray:none;stroke-dashoffset:127.298;stroke-opacity:0.55;paint-order:stroke fill markers"
       d="m 31.490311,39.662865 h 13.239105 c 0.554,0 0.971226,0.446748 1,1 l 0.529166,10.174534 c 0.02877,0.553253 -0.446,1 -1,1 H 31.819359 c -0.554,0 -0.982093,-0.44629 -1.000001,-1 L 30.490311,40.662865 c -0.01791,-0.55371 0.446001,-1 1,-1 z"
       sodipodi:nodetypes="sssssssss" />
    <path
       id="path20-2"
       style="fill:#000000;fill-opacity:0.55;stroke:#9e9e9e;stroke-width:0.529;stroke-linecap:butt;stroke-linejoin:round;stroke-miterlimit:80;stroke-dasharray:none;stroke-dashoffset:127.298;stroke-opacity:0.55;paint-order:stroke fill markers"
       d="M 92.544463,66.121203 H 105.5836 c 0.554,0 0.74438,0.5085 1,1 l 5.29167,10.174534 c 0.25562,0.491501 -0.446,1 -1,1 H 95.190297 c -0.554,0 -0.860572,-0.463833 -1,-1 L 91.544463,67.121203 c -0.139427,-0.536168 0.446,-1 1,-1 z"
       sodipodi:nodetypes="sssssssss" />
    <path
       id="path22-8"
       style="fill:#000000;fill-opacity:0.55;stroke:#9e9e9e;stroke-width:0.529;stroke-linecap:butt;stroke-linejoin:round;stroke-miterlimit:80;stroke-dasharray:none;stroke-dashoffset:127.298;stroke-opacity:0.55;paint-order:stroke fill markers"
       d="m 63.969458,39.662868 h 12.509964 c 0.554,0 0.887164,0.457613 1,1 l 2.116666,10.174534 c 0.112836,0.542388 -0.446,1 -1,1 H 65.027792 c -0.554,0 -0.942683,-0.448973 -1,-1 L 62.969458,40.662868 c -0.05732,-0.551027 0.446,-1 1,-1 z"
       sodipodi:nodetypes="sssssssss" />
    <path
       id="path4-8"
       style="fill:#000000;fill-opacity:0.55;stroke:#9e9e9e;stroke-width:0.529;stroke-linecap:butt;stroke-linejoin:round;stroke-miterlimit:80;stroke-dasharray:none;stroke-dashoffset:127.298;stroke-opacity:0.55;paint-order:stroke fill markers"
       d="m 47.56529,39.662862 h 13.03913 c 0.554,0 0.942683,0.448973 1,1 l 1.058333,10.174534 c 0.05732,0.551027 -0.446,1 -1,1 H 48.094457 c -0.554,0 -0.971226,-0.446748 -1,-1 L 46.56529,40.662862 c -0.02877,-0.553252 0.446,-1 1,-1 z"
       sodipodi:nodetypes="sssssssss" />
    <path
       id="path5-2"
       style="fill:#000000;fill-opacity:0.55;stroke:#9e9e9e;stroke-width:0.529;stroke-linecap:butt;stroke-linejoin:round;stroke-miterlimit:80;stroke-dasharray:none;stroke-dashoffset:127.298;stroke-opacity:0.55;paint-order:stroke fill markers"
       d="m 49.681958,52.892034 h 13.03913 c 0.554,0 0.942683,0.448973 1,1 l 1.058333,10.174534 c 0.05732,0.551027 -0.446,1 -1,1 H 50.211125 c -0.554,0 -0.971226,-0.446748 -1,-1 L 48.681958,53.892034 c -0.02877,-0.553252 0.446,-1 1,-1 z"
       sodipodi:nodetypes="sssssssss" />
    <path
       id="path6-5"
       style="fill:#000000;fill-opacity:0.55;stroke:#9e9e9e;stroke-width:0.529;stroke-linecap:butt;stroke-linejoin:round;stroke-miterlimit:80;stroke-dasharray:none;stroke-dashoffset:127.298;stroke-opacity:0.55;paint-order:stroke fill markers"
       d="m 33.277787,52.892034 h 13.568297 c 0.554,0 0.971226,0.446748 1,1 l 0.529166,10.174534 c 0.02877,0.553253 -0.446,1 -1,1 H 33.606834 c -0.554,0 -0.982093,-0.44629 -1,-1 L 32.277787,53.892034 c -0.01791,-0.55371 0.446,-1 1,-1 z"
       sodipodi:nodetypes="sssssssss" />
    <path
       id="path7-3"
       style="fill:#000000;fill-opacity:0.55;stroke:#9e9e9e;stroke-width:0.529;stroke-linecap:butt;stroke-linejoin:round;stroke-miterlimit:80;stroke-dasharray:none;stroke-dashoffset:127.298;stroke-opacity:0.55;paint-order:stroke fill markers"
       d="m 65.556959,52.892034 h 13.568297 c 0.554,0 0.887164,0.457613 1,1 l 2.116666,10.174534 c 0.112836,0.542388 -0.446,1 -1,1 H 66.615293 c -0.554,0 -0.942683,-0.448973 -1,-1 L 64.556959,53.892034 c -0.05732,-0.551027 0.446,-1 1,-1 z"
       sodipodi:nodetypes="sssssssss" />
    <path
       id="rect1-5"
       style="fill:#8da1d4;fill-opacity:1;stroke:#545d6b;stroke-width:0.529;stroke-linecap:butt;stroke-linejoin:round;stroke-miterlimit:80;stroke-dasharray:none;stroke-dashoffset:127.298;stroke-opacity:1;paint-order:stroke fill markers"
       d="m 47.56529,38.075361 h 13.03913 c 0.554,0 0.942683,0.448973 1,1 l 1.058333,10.174534 c 0.05732,0.551027 -0.446,1 -1,1 H 48.094457 c -0.554,0 -0.971226,-0.446748 -1,-1 L 46.56529,39.075361 c -0.02877,-0.553252 0.446,-1 1,-1 z"
       sodipodi:nodetypes="sssssssss" />
    <text
       xml:space="preserve"
       style="font-size:3.175px;fill:#000000;fill-opacity:1;stroke:#ffffff;stroke-width:0.529;stroke-linecap:butt;stroke-linejoin:round;stroke-miterlimit:80;stroke-dasharray:none;stroke-dashoffset:127.298;stroke-opacity:1;paint-order:markers fill stroke"
       x="58.395378"
       y="45.826809"
       id="text1-4"><tspan
         sodipodi:role="line"
         id="tspan1-3"
         style="stroke-width:0.529;stroke-linecap:butt;stroke-linejoin:round;stroke-dasharray:none"
         x="58.395378"
         y="45.826809" /></text>
    <path
       id="path1-7"
       style="fill:#8da1d4;fill-opacity:1;stroke:#545d6b;stroke-width:0.529;stroke-linecap:butt;stroke-linejoin:round;stroke-miterlimit:80;stroke-dasharray:none;stroke-dashoffset:127.298;stroke-opacity:1;paint-order:stroke fill markers"
       d="m 49.681958,51.304533 h 13.03913 c 0.554,0 0.942683,0.448973 1,1 l 1.058333,10.174534 c 0.05732,0.551027 -0.446,1 -1,1 H 50.211125 c -0.554,0 -0.971226,-0.446748 -1,-1 L 48.681958,52.304533 c -0.02877,-0.553252 0.446,-1 1,-1 z"
       sodipodi:nodetypes="sssssssss" />
    <path
       id="path2-8"
       style="fill:#8da1d4;fill-opacity:1;stroke:#545d6b;stroke-width:0.529;stroke-linecap:butt;stroke-linejoin:round;stroke-miterlimit:80;stroke-dasharray:none;stroke-dashoffset:127.298;stroke-opacity:1;paint-order:stroke fill markers"
       d="m 33.277787,51.304533 h 13.568297 c 0.554,0 0.971226,0.446748 1,1 l 0.529166,10.174534 c 0.02877,0.553253 -0.446,1 -1,1 H 33.606834 c -0.554,0 -0.982093,-0.44629 -1,-1 L 32.277787,52.304533 c -0.01791,-0.55371 0.446,-1 1,-1 z"
       sodipodi:nodetypes="sssssssss" />
    <path
       id="path3-8"
       style="fill:#8da1d4;fill-opacity:1;stroke:#545d6b;stroke-width:0.529;stroke-linecap:butt;stroke-linejoin:round;stroke-miterlimit:80;stroke-dasharray:none;stroke-dashoffset:127.298;stroke-opacity:1;paint-order:stroke fill markers"
       d="m 65.556959,51.304533 h 13.568297 c 0.554,0 0.887164,0.457613 1,1 l 2.116666,10.174534 c 0.112836,0.542388 -0.446,1 -1,1 H 66.615293 c -0.554,0 -0.942683,-0.448973 -1,-1 L 64.556959,52.304533 c -0.05732,-0.551027 0.446,-1 1,-1 z"
       sodipodi:nodetypes="sssssssss" />
    <path
       id="path8-1"
       style="fill:#000000;fill-opacity:0.55;stroke:#9e9e9e;stroke-width:0.529;stroke-linecap:butt;stroke-linejoin:round;stroke-miterlimit:80;stroke-dasharray:none;stroke-dashoffset:127.298;stroke-opacity:0.55;paint-order:stroke fill markers"
       d="M 42.273623,66.121203 H 55.84192 c 0.554,0 0.971226,0.446748 1,1 l 0.529166,10.174534 c 0.02877,0.553253 -0.446,1 -1,1 H 42.60267 c -0.554,0 -0.982093,-0.44629 -1,-1 L 41.273623,67.121203 c -0.01791,-0.55371 0.446,-1 1,-1 z"
       sodipodi:nodetypes="sssssssss" />
    <path
       id="path9-3"
       style="fill:#000000;fill-opacity:0.55;stroke:#9e9e9e;stroke-width:0.529;stroke-linecap:butt;stroke-linejoin:round;stroke-miterlimit:80;stroke-dasharray:none;stroke-dashoffset:127.298;stroke-opacity:0.55;paint-order:stroke fill markers"
       d="m 58.677795,66.121203 h 14.097463 c 0.554,0 0.942683,0.448973 1,1 l 1.058333,10.174534 c 0.05732,0.551027 -0.446,1 -1,1 H 59.206962 c -0.554,0 -0.971226,-0.446748 -1,-1 L 57.677795,67.121203 c -0.02877,-0.553252 0.446,-1 1,-1 z"
       sodipodi:nodetypes="sssssssss" />
    <path
       id="path10-4"
       style="fill:#000000;fill-opacity:0.55;stroke:#9e9e9e;stroke-width:0.529;stroke-linecap:butt;stroke-linejoin:round;stroke-miterlimit:80;stroke-dasharray:none;stroke-dashoffset:127.298;stroke-opacity:0.55;paint-order:stroke fill markers"
       d="m 75.61113,66.121203 h 14.097463 c 0.554,0 0.860573,0.463832 1,1 l 2.645833,10.174534 c 0.139428,0.536168 -0.446,1 -1,1 H 76.669464 c -0.554,0 -0.942684,-0.448973 -1,-1 L 74.61113,67.121203 c -0.05732,-0.551027 0.446,-1 1,-1 z"
       sodipodi:nodetypes="sssssssss" />
    <path
       id="path12-9"
       style="fill:#000000;fill-opacity:0.55;stroke:#9e9e9e;stroke-width:0.529;stroke-linecap:butt;stroke-linejoin:round;stroke-miterlimit:80;stroke-dasharray:none;stroke-dashoffset:127.298;stroke-opacity:0.55;paint-order:stroke fill markers"
       d="M 8.9361183,66.121203 H 39.437749 c 0.554,0 0.982082,0.44629 1,1 l 0.329252,10.174534 c 0.01792,0.553711 -0.446,1 -1,1 H 8.9650003 c -0.554,0 -0.998427,-0.446003 -1,-1 l -0.02888,-10.174534 c -0.0016,-0.553997 1.554,-1 1,-1 z"
       sodipodi:nodetypes="ssssssssss" />
    <path
       id="path13-1"
       style="fill:#000000;fill-opacity:0.55;stroke:#9e9e9e;stroke-width:0.529;stroke-linecap:butt;stroke-linejoin:round;stroke-miterlimit:80;stroke-dasharray:none;stroke-dashoffset:127.298;stroke-opacity:0.55;paint-order:stroke fill markers"
       d="m 71.377794,79.350369 h 55.372466 c 0.554,0 0.71376,0.525681 1,1 l 5.82083,9.645367 c 0.28624,0.47432 -0.446,1 -1,1 H 72.436128 c -0.554,0 -0.939575,-0.449305 -1,-1 l -1.058334,-9.645367 c -0.06042,-0.550695 0.446,-1 1,-1 z"
       sodipodi:nodetypes="sssssssss" />
    <path
       id="path14-8"
       style="fill:#8da1d4;fill-opacity:1;stroke:#545d6b;stroke-width:0.529;stroke-linecap:butt;stroke-linejoin:round;stroke-miterlimit:80;stroke-dasharray:none;stroke-dashoffset:127.298;stroke-opacity:1;paint-order:stroke fill markers"
       d="m 71.377794,77.762868 h 54.843296 c 0.554,0 0.69537,0.537278 1,1 l 6.35,9.645367 c 0.30463,0.462727 -0.446,1 -1,1 H 72.436128 c -0.554,0 -0.939575,-0.449305 -1,-1 l -1.058334,-9.645367 c -0.06042,-0.550695 0.446,-1 1,-1 z"
       sodipodi:nodetypes="sssssssss" />
    <path
       id="path15-7"
       style="fill:#000000;fill-opacity:0.55;stroke:#9e9e9e;stroke-width:0.529;stroke-linecap:butt;stroke-linejoin:round;stroke-miterlimit:80;stroke-dasharray:none;stroke-dashoffset:127.298;stroke-opacity:0.55;paint-order:stroke fill markers"
       d="m 36.981954,79.350369 h 14.62663 c 0.554,0 0.969652,0.446832 1,1 l 0.529166,9.645367 c 0.03035,0.553169 -0.446,1 -1,1 H 37.311001 c -0.554,0 -0.981112,-0.446322 -1,-1 l -0.329047,-9.645367 c -0.01889,-0.553677 0.446,-1 1,-1 z"
       sodipodi:nodetypes="sssssssss" />
    <path
       id="path16-9"
       style="fill:#000000;fill-opacity:0.55;stroke:#9e9e9e;stroke-width:0.529;stroke-linecap:butt;stroke-linejoin:round;stroke-miterlimit:80;stroke-dasharray:none;stroke-dashoffset:127.298;stroke-opacity:0.55;paint-order:stroke fill markers"
       d="m 54.444459,79.350369 h 14.097463 c 0.554,0 0.939575,0.449305 1,1 l 1.058333,9.645367 c 0.06042,0.550696 -0.446,1 -1,1 H 54.973626 c -0.554,0 -0.969652,-0.446832 -1,-1 l -0.529167,-9.645367 c -0.03035,-0.553168 0.446,-1 1,-1 z"
       sodipodi:nodetypes="sssssssss" />
    <path
       id="path17-5"
       style="fill:#000000;fill-opacity:0.55;stroke:#9e9e9e;stroke-width:0.529;stroke-linecap:butt;stroke-linejoin:round;stroke-miterlimit:80;stroke-dasharray:none;stroke-dashoffset:127.298;stroke-opacity:0.55;paint-order:stroke fill markers"
       d="M 8.9361173,79.350369 H 34.146082 c 0.554,0 0.9811,0.446323 1,1 l 0.329252,9.645367 c 0.0189,0.553679 -0.446,1 -1,1 H 8.9649993 c -0.554,0 -0.998341,-0.446003 -1,-1 l -0.02888,-9.645367 c -0.0017,-0.553997 0.31992,-0.879984 0.865489,-0.976263 z"
       sodipodi:nodetypes="ssssssssss" />
    <path
       id="path18-2"
       style="fill:#000000;fill-opacity:0.55;stroke:#9e9e9e;stroke-width:0.529;stroke-linecap:butt;stroke-linejoin:round;stroke-miterlimit:80;stroke-dasharray:none;stroke-dashoffset:127.298;stroke-opacity:0.55;paint-order:stroke fill markers"
       d="M 8.9361183,52.892034 H 30.441916 c 0.554,0 0.982082,0.44629 1,1 l 0.329252,10.174534 c 0.01792,0.553711 -0.446,1 -1,1 H 8.9650003 c -0.554,0 -0.998427,-0.446003 -1,-1 l -0.02888,-10.174534 c -0.0016,-0.553997 0.336635,-0.952616 0.889227,-0.992088 z"
       sodipodi:nodetypes="ssssssssss" />
    <path
       id="path19-2"
       style="fill:#000000;fill-opacity:0.55;stroke:#9e9e9e;stroke-width:0.529;stroke-linecap:butt;stroke-linejoin:round;stroke-miterlimit:80;stroke-dasharray:none;stroke-dashoffset:127.298;stroke-opacity:0.55;paint-order:stroke fill markers"
       d="M 8.9361183,39.662868 H 28.32525 c 0.554,0 0.982081,0.44629 1,1 l 0.329252,10.174534 c 0.01792,0.553711 -0.446,1 -1,1 H 8.9650003 c -0.554,0 -0.998427,-0.446003 -1,-1 l -0.02888,-10.174534 c -0.0016,-0.553997 0.396182,-0.913737 0.944613,-0.992088 z"
       sodipodi:nodetypes="ssssssssss" />
    <path
       id="path21-2"
       style="fill:#000000;fill-opacity:0.55;stroke:#9e9e9e;stroke-width:0.529;stroke-linecap:butt;stroke-linejoin:round;stroke-miterlimit:80;stroke-dasharray:none;stroke-dashoffset:127.298;stroke-opacity:0.55;paint-order:stroke fill markers"
       d="m 81.961126,52.892034 h 12.509935 c 0.554,0 0.810479,0.479426 1,1 l 3.704164,10.174534 c 0.189522,0.520575 -0.446,1 -0.999997,1 H 84.077793 c -0.554,0 -0.887164,-0.457613 -1,-1 L 80.961126,53.892034 c -0.112836,-0.542388 0.446,-1 1,-1 z"
       sodipodi:nodetypes="sssssssss" />
    <path
       id="path23-1"
       style="fill:#000000;fill-opacity:0.55;stroke:#9e9e9e;stroke-width:0.529;stroke-linecap:butt;stroke-linejoin:round;stroke-miterlimit:80;stroke-dasharray:none;stroke-dashoffset:127.298;stroke-opacity:0.55;paint-order:stroke fill markers"
       d="m 79.315291,39.662865 h 10.393268 c 0.554,0 0.834971,0.471151 1,1 l 3.174998,10.174534 c 0.16503,0.52885 -0.446,1 -0.999997,1 H 81.431958 c -0.554,0 -0.887164,-0.457613 -1,-1 L 78.315291,40.662865 c -0.112836,-0.542388 0.446,-1 1,-1 z"
       sodipodi:nodetypes="sssssssss" />
    <path
       id="path24-7"
       style="fill:#8da1d4;fill-opacity:1;stroke:#545d6b;stroke-width:0.529;stroke-linecap:butt;stroke-linejoin:round;stroke-miterlimit:80;stroke-dasharray:none;stroke-dashoffset:127.298;stroke-opacity:1;paint-order:stroke fill markers"
       d="M 8.9361183,64.533702 H 39.437749 c 0.554,0 0.982082,0.44629 1,1 l 0.329252,10.174534 c 0.01792,0.553711 -0.446,1 -1,1 H 8.9650003 c -0.554,0 -0.998427,-0.446003 -1,-1 l -0.02888,-10.174534 c -0.0015,-0.547666 0.538341,-0.971146 0.873402,-0.992088 z"
       sodipodi:nodetypes="ssssssssss" />
    <path
       id="path25-8"
       style="fill:#000000;fill-opacity:0.55;stroke:#9e9e9e;stroke-width:0.529;stroke-linecap:butt;stroke-linejoin:round;stroke-miterlimit:80;stroke-dasharray:none;stroke-dashoffset:127.298;stroke-opacity:0.55;paint-order:stroke fill markers"
       d="M 8.9361183,26.433702 H 20.251835 c 0.554,0 1.003485,0.446011 1,1 l -0.064,10.174534 c -0.0035,0.55399 -0.446,1 -1,1 H 8.9650003 c -0.554,0 -0.998427,-0.446003 -1,-1 l -0.02888,-10.174534 c -0.0016,-0.553997 0.377635,-0.875524 0.920876,-0.984175 z"
       sodipodi:nodetypes="ssssssssss" />
    <path
       id="path26-2"
       style="fill:#000000;fill-opacity:0.55;stroke:#9e9e9e;stroke-width:0.529;stroke-linecap:butt;stroke-linejoin:round;stroke-miterlimit:80;stroke-dasharray:none;stroke-dashoffset:127.298;stroke-opacity:0.55;paint-order:stroke fill markers"
       d="m 23.223619,26.433702 h 10.922464 c 0.554,0 0.982082,0.44629 1,1 l 0.329252,10.174534 c 0.01792,0.553711 -0.446,1 -1,1 H 23.252501 c -0.554,0 -0.998428,-0.446003 -1,-1 l -0.02888,-10.174534 c -0.0016,-0.553997 0.358964,-1 0.912964,-1 z"
       sodipodi:nodetypes="ssssssssss" />
    <path
       id="path29-5"
       style="fill:#000000;fill-opacity:0.55;stroke:#9e9e9e;stroke-width:0.529;stroke-linecap:butt;stroke-linejoin:round;stroke-miterlimit:80;stroke-dasharray:none;stroke-dashoffset:127.298;stroke-opacity:0.55;paint-order:stroke fill markers"
       d="M 8.9361183,6.8545334 H 20.251835 c 0.554,0 1.005479,0.446027 1,1 l -0.064,6.4703686 c -0.0055,0.553974 -0.446,1 -1,1 H 8.9650003 c -0.554,0 -0.997527,-0.446006 -1,-1 l -0.02888,-6.4703686 c -0.0025,-0.553993 0.377635,-0.875524 0.920876,-0.984175 z"
       sodipodi:nodetypes="ssssssssss" />
    <path
       id="path30-8"
       style="fill:#000000;fill-opacity:0.55;stroke:#9e9e9e;stroke-width:0.529;stroke-linecap:butt;stroke-linejoin:round;stroke-miterlimit:80;stroke-dasharray:none;stroke-dashoffset:127.298;stroke-opacity:0.55;paint-order:stroke fill markers"
       d="m 30.102787,6.8545334 h 11.315716 c 0.554,0 1.005479,0.446027 1,1 l -0.064,6.4703686 c -0.0055,0.553974 -0.446,1 -1,1 H 30.131669 c -0.554,0 -0.997527,-0.446006 -1,-1 l -0.02888,-6.4703686 c -0.0025,-0.553993 0.377635,-0.875524 0.920876,-0.984175 z"
       sodipodi:nodetypes="ssssssssss" />
    <path
       id="path31-9"
       style="fill:#000000;fill-opacity:0.55;stroke:#9e9e9e;stroke-width:0.529;stroke-linecap:butt;stroke-linejoin:round;stroke-miterlimit:80;stroke-dasharray:none;stroke-dashoffset:127.298;stroke-opacity:0.55;paint-order:stroke fill markers"
       d="M 44.919454,6.8545334 H 56.23517 c 0.554,0 1.005479,0.446027 1,1 l -0.064,6.4703686 c -0.0055,0.553974 -0.446,1 -1,1 H 44.948336 c -0.554,0 -0.997527,-0.446006 -1,-1 l -0.02888,-6.4703686 c -0.0025,-0.553993 0.377635,-0.875524 0.920876,-0.984175 z"
       sodipodi:nodetypes="ssssssssss" />
    <path
       id="path32-9"
       style="fill:#000000;fill-opacity:0.55;stroke:#9e9e9e;stroke-width:0.529;stroke-linecap:butt;stroke-linejoin:round;stroke-miterlimit:80;stroke-dasharray:none;stroke-dashoffset:127.298;stroke-opacity:0.55;paint-order:stroke fill markers"
       d="M 59.206954,6.8545334 H 70.52267 c 0.554,0 1.005479,0.446027 1,1 l -0.064,6.4703686 c -0.0055,0.553974 -0.446,1 -1,1 H 59.235836 c -0.554,0 -0.997527,-0.446006 -1,-1 l -0.02888,-6.4703686 c -0.0025,-0.553993 0.377635,-0.875524 0.920876,-0.984175 z"
       sodipodi:nodetypes="ssssssssss" />
    <path
       id="path33-6"
       style="fill:#ff0e0e;fill-opacity:1;stroke:#090a0a;stroke-width:0.529;stroke-linecap:butt;stroke-linejoin:round;stroke-miterlimit:80;stroke-dasharray:none;stroke-dashoffset:127.298;stroke-opacity:1;paint-order:stroke fill markers"
       d="M 8.9361183,6.3253674 H 20.251835 c 0.554,0 1.005479,0.446027 1,0.999999 l -0.064,6.4703686 c -0.0055,0.553974 -0.446,1 -1,1 H 8.9650003 c -0.554,0 -0.997527,-0.446006 -1,-1 l -0.02888,-6.4703686 c -0.0025,-0.553993 0.377635,-0.875523 0.920876,-0.984174 z"
       sodipodi:nodetypes="ssssssssss" />
    <path
       style="font-size:6.73807px;fill:#ffffff;fill-opacity:0.741641;stroke-width:1.12266;stroke-linejoin:bevel;stroke-miterlimit:80;stroke-dashoffset:127.298;paint-order:markers stroke fill"
       d="m 31.898515,72.979021 c -0.113652,0.03071 -0.238734,0.05593 -0.375246,0.07567 -0.13432,0.01974 -0.255218,0.02961 -0.362693,0.02961 -0.375069,0 -0.668745,-0.100895 -0.881029,-0.302686 C 30.067262,72.579824 29.942283,72.2563 29.90461,71.811043 l -0.165623,-1.854616 h -0.417839 l -0.04399,-0.519832 h 0.417839 l -0.08935,-1.056112 h 0.618534 l 0.08936,1.056114 h 1.276547 l 0.04398,0.519832 h -1.276545 l 0.141963,1.57496 c 0.01633,0.193017 0.03353,0.344361 0.05158,0.45403 0.01787,0.107476 0.05711,0.208372 0.117731,0.302687 0.05568,0.08773 0.126956,0.15244 0.213829,0.194114 0.08888,0.03948 0.219962,0.05922 0.393239,0.05922 0.100896,0 0.204972,-0.01426 0.312228,-0.04277 0.107071,-0.03071 0.183899,-0.05593 0.230484,-0.07567 h 0.0329 z"
       id="path38-2"
       sodipodi:nodetypes="ccsssccccccccccccccscccc" />
    <path
       style="font-size:6.73807px;fill:#ffffff;fill-opacity:0.741641;stroke-width:1.12266;stroke-linejoin:bevel;stroke-miterlimit:80;stroke-dashoffset:127.298;paint-order:markers stroke fill"
       d="m 28.652537,68.591048 h -0.0329 c -0.07025,-0.01974 -0.161345,-0.03948 -0.273272,-0.05922 -0.112179,-0.02193 -0.209943,-0.0329 -0.293291,-0.0329 -0.2654,0 -0.451641,0.05922 -0.558725,0.177664 -0.105142,0.11625 -0.140158,0.327913 -0.105011,0.634984 l 0.01431,0.125023 h 1.115334 l 0.05948,0.519832 h -1.095596 l 0.361275,3.055493 h -0.618534 l -0.361275,-3.055493 h -0.417839 l -0.05948,-0.519832 h 0.417839 l -0.01393,-0.121733 c -0.04995,-0.436481 0.02036,-0.770973 0.210903,-1.003472 0.190292,-0.234692 0.490519,-0.352038 0.900682,-0.352038 0.138183,0 0.262862,0.0066 0.374036,0.01974 0.113368,0.01316 0.217118,0.02851 0.311248,0.04606 z"
       id="path37-0"
       sodipodi:nodetypes="cccscsccccccccccscsccc" />
    <path
       style="font-size:6.73807px;fill:#ffffff;fill-opacity:0.741641;stroke-width:1.12266;stroke-linejoin:bevel;stroke-miterlimit:80;stroke-dashoffset:127.298;paint-order:markers stroke fill"
       d="M 25.805844,73.011922 H 25.18731 l -0.291937,-3.575325 h 0.618534 z"
       id="path36-8"
       sodipodi:nodetypes="ccccc" />
    <path
       style="font-size:6.73807px;fill:#ffffff;fill-opacity:0.741641;stroke-width:1.12266;stroke-linejoin:bevel;stroke-miterlimit:80;stroke-dashoffset:127.298;paint-order:markers stroke fill"
       d="m 25.469048,68.821353 h -0.697495 l -0.07377,-0.641564 h 0.697495 z"
       id="path35-2"
       sodipodi:nodetypes="ccccc" />
    <path
       style="font-size:6.73807px;fill:#ffffff;fill-opacity:0.741641;stroke-width:1.12266;stroke-linejoin:bevel;stroke-miterlimit:80;stroke-dashoffset:127.298;paint-order:markers stroke fill"
       d="m 24.312062,73.011922 h -0.618534 l -0.126015,-1.992925 c -0.01017,-0.16889 -0.02982,-0.326688 -0.05841,-0.473645 -0.02872,-0.14915 -0.07191,-0.265399 -0.129576,-0.348748 -0.06038,-0.09212 -0.143437,-0.160117 -0.249169,-0.203985 -0.105863,-0.04606 -0.241046,-0.06909 -0.40555,-0.06909 -0.168891,0 -0.342949,0.04167 -0.522173,0.125023 -0.179225,0.08335 -0.349386,0.189727 -0.510482,0.319137 l 0.165515,2.644234 H 21.239135 L 20.930566,67.992256 H 21.5491 l 0.111551,1.852311 c 0.183374,-0.160116 0.375442,-0.285139 0.576205,-0.375068 0.200762,-0.08993 0.409716,-0.134893 0.626861,-0.134893 0.397002,0 0.706887,0.11954 0.929656,0.358618 0.222769,0.239079 0.346464,0.583516 0.374772,1.033083 z"
       id="path34-1"
       sodipodi:nodetypes="ccccccssccccccssssc" />
    <path
       style="font-size:6.73807px;fill:#ffffff;fill-opacity:0.741641;stroke-width:1.12266;stroke-linejoin:bevel;stroke-miterlimit:80;stroke-dashoffset:127.298;paint-order:markers stroke fill"
       d="m 20.317266,71.613641 c 0,0.190824 -0.04496,0.379455 -0.134893,0.565892 -0.08773,0.186437 -0.211662,0.344361 -0.371779,0.473771 -0.175471,0.140377 -0.380552,0.250046 -0.615243,0.329007 -0.232499,0.07896 -0.513252,0.118443 -0.842259,0.118443 -0.353135,0 -0.671175,-0.0329 -0.954121,-0.0987 -0.280753,-0.0658 -0.56699,-0.163406 -0.858709,-0.292817 v -0.815938 h 0.04606 c 0.247852,0.206178 0.534088,0.365198 0.858709,0.477061 0.324621,0.111862 0.629501,0.167793 0.91464,0.167793 0.403583,0 0.717236,-0.07567 0.940961,-0.227015 0.225919,-0.151343 0.338878,-0.353134 0.338878,-0.605373 0,-0.217145 -0.05374,-0.2777 -0.161214,-0.380789 -0.105283,-0.103089 -0.266496,-0.183147 -0.483641,-0.240175 -0.164503,-0.04387 -0.343264,-0.08006 -0.536282,-0.108573 -0.190824,-0.02851 -0.393981,-0.06458 -0.608932,-0.108447 -0.43429,-0.09212 -0.756718,-0.248949 -0.967282,-0.470481 -0.208372,-0.223724 -0.312557,-0.514347 -0.312557,-0.871869 0,-0.410162 0.173277,-0.745749 0.519832,-1.006762 0.346554,-0.263205 0.786327,-0.394808 1.319319,-0.394808 0.344361,0 0.660208,0.0329 0.947541,0.0987 0.287333,0.0658 0.541765,0.146955 0.763297,0.243465 v 0.769879 h -0.04606 c -0.186438,-0.157925 -0.432096,-0.288431 -0.736976,-0.39152 -0.302687,-0.105282 -0.613051,-0.157923 -0.931091,-0.157923 -0.348748,0 -0.629501,0.07238 -0.842259,0.217144 -0.210565,0.144764 -0.315847,0.331202 -0.315847,0.559313 0,0.203985 0.05264,0.364101 0.157924,0.480351 0.105282,0.116249 0.290622,0.205081 0.556022,0.266496 0.140376,0.03071 0.339974,0.06799 0.598794,0.111863 0.258818,0.04387 0.478156,0.08883 0.658014,0.134893 0.364101,0.09651 0.638274,0.242368 0.822518,0.437579 0.184244,0.195211 0.276636,0.3686 0.276636,0.71954 z"
       id="text33-2"
       sodipodi:nodetypes="scccsccccsscscccccscssccccscsscscsss" />
    <path
       d="m 42.724415,60.569005 h -0.849147 l -0.558589,-1.670124 h -2.59171 l -0.616534,1.670124 h -0.808903 l 2.285171,-5.992323 h 1.06244 z M 41.083059,58.214734 40.083724,55.272902 38.9783,58.214734 Z"
       id="text38-2"
       style="font-size:8.24196px;fill:#ffffff;fill-opacity:0.741641;stroke-width:1.37323;stroke-linejoin:bevel;stroke-miterlimit:80;stroke-dashoffset:127.298;paint-order:markers stroke fill"
       aria-label="A" />
    <path
       d="m 58.125264,40.966095 -1.174287,5.93216 h -0.88843 l -1.55206,-4.924211 -0.91403,4.924211 h -0.868509 l -1.937208,-5.93216 h 0.80875 l 1.552553,4.932179 0.921504,-4.932179 h 0.800782 l 1.547547,4.979987 0.930494,-4.979987 z"
       id="text39-8"
       style="font-size:8.15921px;fill:#ffffff;fill-opacity:0.741641;stroke-width:1.35944;stroke-linejoin:bevel;stroke-miterlimit:80;stroke-dashoffset:127.298;paint-order:markers stroke fill"
       aria-label="W" />
    <path
       d="m 58.50933,58.794597 q 0.03086,0.332199 -0.103844,0.656762 -0.130682,0.324563 -0.40327,0.549848 -0.29896,0.244376 -0.716413,0.381838 -0.413431,0.137462 -1.016545,0.137462 -0.647343,0 -1.176661,-0.114552 -0.525299,-0.114551 -1.080987,-0.339835 l -0.08796,-0.946961 h 0.05629 q 0.487687,0.358928 1.100848,0.553666 0.613163,0.194738 1.135861,0.194738 0.73982,0 1.125465,-0.263469 0.389664,-0.263468 0.348874,-0.702583 -0.03511,-0.378019 -0.248803,-0.557484 -0.209667,-0.179464 -0.616944,-0.278742 -0.308651,-0.07636 -0.66709,-0.126007 -0.354417,-0.04964 -0.755545,-0.126006 -0.811008,-0.160372 -1.232824,-0.546029 -0.418152,-0.389476 -0.475967,-1.011872 -0.06633,-0.714038 0.526744,-1.168426 0.592717,-0.458206 1.569761,-0.458206 0.63126,0 1.16862,0.114551 0.537361,0.114552 0.959064,0.282561 l 0.083,0.893502 h -0.05629 q -0.367303,-0.274924 -0.94286,-0.454387 -0.571889,-0.183283 -1.1549,-0.183283 -0.6393,0 -1.005904,0.252013 -0.362584,0.252014 -0.325696,0.649126 0.03299,0.355109 0.244782,0.557483 0.211796,0.202375 0.708239,0.30929 0.262295,0.05346 0.743838,0.129825 0.481544,0.07637 0.818695,0.156554 0.683052,0.168009 1.052363,0.507844 0.369313,0.339837 0.426064,0.950779 z"
       id="text40-8"
       style="font-size:8.02461px;fill:#ffffff;fill-opacity:0.741641;stroke-width:1.33701;stroke-linejoin:bevel;stroke-miterlimit:80;stroke-dashoffset:127.298;paint-order:markers stroke fill"
       aria-label="S" />
    <path
       d="m 75.552084,57.580623 q 0.108942,0.813762 -0.189257,1.475195 -0.293853,0.661432 -0.883802,1.026223 -0.409429,0.252547 -0.941932,0.36479 -0.528158,0.112243 -1.418979,0.112243 h -1.633898 l -0.799082,-5.968929 h 1.616516 q 0.947312,0 1.520706,0.128278 0.577203,0.124269 0.993465,0.344747 0.711495,0.380825 1.165652,1.014197 0.454157,0.633372 0.570611,1.503256 z m -0.901122,-0.01202 Q 74.557042,56.867084 74.227574,56.386042 73.898101,55.904999 73.33527,55.6284 72.926035,55.427966 72.485637,55.351801 72.044703,55.271631 71.445028,55.271631 H 70.63677 l 0.616619,4.605977 h 0.808258 q 0.621402,0 1.070752,-0.08419 0.453696,-0.08418 0.809853,-0.312677 0.444245,-0.284616 0.620993,-0.749623 0.181096,-0.465007 0.08772,-1.162518 z"
       id="text41-3"
       style="font-size:8.5477px;fill:#ffffff;fill-opacity:0.741641;stroke-width:1.42417;stroke-linejoin:bevel;stroke-miterlimit:80;stroke-dashoffset:127.298;paint-order:markers stroke fill"
       aria-label="D" />
    <path
       d="M 13.04535,12.298049 H 10.573881 V 8.5467574 h 2.471469 v 0.443403 h -1.97264 v 1.0278886 h 1.97264 v 0.443404 h -1.97264 v 1.393193 h 1.97264 z m 2.763711,-0.811226 q 0,0.385458 -0.319956,0.632353 -0.317436,0.246895 -0.86917,0.246895 -0.312398,0 -0.574409,-0.07306 -0.259492,-0.07558 -0.435845,-0.163757 v -0.531579 h 0.02519 q 0.224221,0.168795 0.498829,0.269568 0.274607,0.09825 0.526541,0.09825 0.312398,0 0.488751,-0.100774 0.176354,-0.100773 0.176354,-0.317436 0,-0.166276 -0.09573,-0.251934 -0.09573,-0.08566 -0.367823,-0.146121 -0.100774,-0.02267 -0.26453,-0.05291 -0.161238,-0.03023 -0.294763,-0.0655 -0.370342,-0.09825 -0.526541,-0.287204 -0.153679,-0.19147 -0.153679,-0.468597 0,-0.173834 0.07054,-0.3275148 0.07306,-0.153679 0.219182,-0.274607 0.141083,-0.118409 0.357746,-0.186431 0.219182,-0.07054 0.488751,-0.07054 0.251934,0 0.508906,0.06298 0.259492,0.06046 0.430806,0.148641 v 0.5063868 h -0.02519 q -0.181392,-0.133525 -0.440884,-0.2242218 -0.259491,-0.09321 -0.508906,-0.09321 -0.259491,0 -0.438364,0.100774 -0.178873,0.09825 -0.178873,0.2947628 0,0.173834 0.108332,0.262011 0.105812,0.08818 0.342629,0.143602 0.131006,0.03023 0.292243,0.06046 0.163757,0.03023 0.272088,0.05542 0.330033,0.07558 0.508906,0.259492 0.178873,0.186431 0.178873,0.49379 z m 2.758673,0.634872 q -0.236818,0.11337 -0.450961,0.176354 -0.211624,0.06298 -0.450961,0.06298 -0.30484,0 -0.559293,-0.08818 -0.254453,-0.0907 -0.435845,-0.272089 -0.183912,-0.181392 -0.284685,-0.458519 -0.100773,-0.277127 -0.100773,-0.647469 0,-0.690298 0.3779,-1.0833158 0.38042,-0.3930158 1.002696,-0.3930158 0.241856,0 0.473635,0.06802 0.234298,0.06802 0.428287,0.166277 v 0.5265406 h -0.02519 q -0.216662,-0.168796 -0.448441,-0.2594916 -0.22926,-0.0907 -0.448442,-0.0907 -0.403094,0 -0.637392,0.2720886 -0.231779,0.269569 -0.231779,0.793591 0,0.508906 0.22674,0.783513 0.22926,0.272089 0.642431,0.272089 0.143602,0 0.292243,-0.03779 0.148641,-0.03779 0.267049,-0.09825 0.103293,-0.05291 0.193989,-0.11085 0.0907,-0.06046 0.143602,-0.103293 h 0.02519 z"
       id="text42-2"
       style="font-size:5.1596px;fill:#ffffff;stroke:#000000;stroke-width:0.264583;stroke-linejoin:bevel;stroke-miterlimit:80;stroke-dashoffset:127.298;stroke-opacity:0.5;paint-order:markers stroke fill"
       aria-label="Esc" />
    <path
       d="M 13.04535,12.298049 H 10.573881 V 8.5467574 h 2.471469 v 0.443403 h -1.97264 v 1.0278886 h 1.97264 v 0.443404 h -1.97264 v 1.393193 h 1.97264 z m 2.763711,-0.811226 q 0,0.385458 -0.319956,0.632353 -0.317436,0.246895 -0.86917,0.246895 -0.312398,0 -0.574409,-0.07306 -0.259492,-0.07558 -0.435845,-0.163757 v -0.531579 h 0.02519 q 0.224221,0.168795 0.498829,0.269568 0.274607,0.09825 0.526541,0.09825 0.312398,0 0.488751,-0.100774 0.176354,-0.100773 0.176354,-0.317436 0,-0.166276 -0.09573,-0.251934 -0.09573,-0.08566 -0.367823,-0.146121 -0.100774,-0.02267 -0.26453,-0.05291 -0.161238,-0.03023 -0.294763,-0.0655 -0.370342,-0.09825 -0.526541,-0.287204 -0.153679,-0.19147 -0.153679,-0.468597 0,-0.173834 0.07054,-0.3275148 0.07306,-0.153679 0.219182,-0.274607 0.141083,-0.118409 0.357746,-0.186431 0.219182,-0.07054 0.488751,-0.07054 0.251934,0 0.508906,0.06298 0.259492,0.06046 0.430806,0.148641 v 0.5063868 h -0.02519 q -0.181392,-0.133525 -0.440884,-0.2242218 -0.259491,-0.09321 -0.508906,-0.09321 -0.259491,0 -0.438364,0.100774 -0.178873,0.09825 -0.178873,0.2947628 0,0.173834 0.108332,0.262011 0.105812,0.08818 0.342629,0.143602 0.131006,0.03023 0.292243,0.06046 0.163757,0.03023 0.272088,0.05542 0.330033,0.07558 0.508906,0.259492 0.178873,0.186431 0.178873,0.49379 z m 2.758673,0.634872 q -0.236818,0.11337 -0.450961,0.176354 -0.211624,0.06298 -0.450961,0.06298 -0.30484,0 -0.559293,-0.08818 -0.254453,-0.0907 -0.435845,-0.272089 -0.183912,-0.181392 -0.284685,-0.458519 -0.100773,-0.277127 -0.100773,-0.647469 0,-0.690298 0.3779,-1.0833158 0.38042,-0.3930158 1.002696,-0.3930158 0.241856,0 0.473635,0.06802 0.234298,0.06802 0.428287,0.166277 v 0.5265406 h -0.02519 q -0.216662,-0.168796 -0.448441,-0.2594916 -0.22926,-0.0907 -0.448442,-0.0907 -0.403094,0 -0.637392,0.2720886 -0.231779,0.269569 -0.231779,0.793591 0,0.508906 0.22674,0.783513 0.22926,0.272089 0.642431,0.272089 0.143602,0 0.292243,-0.03779 0.148641,-0.03779 0.267049,-0.09825 0.103293,-0.05291 0.193989,-0.11085 0.0907,-0.06046 0.143602,-0.103293 h 0.02519 z"
       id="path39"
       style="font-size:5.1596px;fill:#ffffff;stroke:#000000;stroke-width:0.264583;stroke-linejoin:bevel;stroke-miterlimit:80;stroke-dashoffset:127.298;stroke-opacity:0.5;paint-order:markers stroke fill"
       aria-label="Esc" />
  </g>
</svg>
