<?xml version="1.0" encoding="UTF-8"?>
<!-- Created with Inkscape (http://www.inkscape.org/) -->
<svg width="126.23mm" height="85.729mm" version="1.1" viewBox="0 0 126.23 85.729" xmlns="http://www.w3.org/2000/svg">
 <g transform="translate(-7.6698 -5.5335)" stroke-dashoffset="127.3" stroke-miterlimit="80">
  <g fill-opacity=".55" stroke="#9e9e9e" stroke-linejoin="round" stroke-opacity=".55" stroke-width=".529">
   <path d="m50.867 26.436h10.623c0.554 0 0.91764 0.45216 1 1l1.5295 10.175c0.08236 0.54784-0.446 1-1 1h-11.324c-0.554 0-0.95501-0.44783-1-1l-0.829-10.175c-0.04499-0.55217 0.35896-1 0.91296-1z" style="paint-order:stroke fill markers"/>
   <path d="m37.179 26.436h10.723c0.554 0 0.95499 0.44783 1 1l0.82942 10.175c0.04501 0.55217-0.446 1-1 1h-11.224c-0.554 0-0.9821-0.44629-1-1l-0.329-10.175c-0.0179-0.55371 0.35896-1 0.91296-1z" style="paint-order:stroke fill markers"/>
   <path d="m31.488 39.665h13.239c0.554 0 0.97123 0.44675 1 1l0.52917 10.175c0.02877 0.55325-0.446 1-1 1h-13.439c-0.554 0-0.98209-0.44629-1-1l-0.32905-10.175c-0.01791-0.55371 0.446-1 1-1z" style="paint-order:stroke fill markers"/>
   <path d="m92.543 66.123h13.039c0.554 0 0.74438 0.5085 1 1l5.2917 10.175c0.25562 0.4915-0.446 1-1 1h-15.685c-0.554 0-0.86057-0.46383-1-1l-2.6458-10.175c-0.13943-0.53617 0.446-1 1-1z" style="paint-order:stroke fill markers"/>
   <path d="m63.968 39.665h12.51c0.554 0 0.88716 0.45761 1 1l2.1167 10.175c0.11284 0.54239-0.446 1-1 1h-13.568c-0.554 0-0.94268-0.44897-1-1l-1.0583-10.175c-0.05732-0.55103 0.446-1 1-1z" style="paint-order:stroke fill markers"/>
   <path d="m47.563 39.665h13.039c0.554 0 0.94268 0.44897 1 1l1.0583 10.175c0.05732 0.55103-0.446 1-1 1h-13.568c-0.554 0-0.97123-0.44675-1-1l-0.52917-10.175c-0.02877-0.55325 0.446-1 1-1z" style="paint-order:stroke fill markers"/>
   <path d="m49.68 52.894h13.039c0.554 0 0.94268 0.44897 1 1l1.0583 10.175c0.05732 0.55103-0.446 1-1 1h-13.568c-0.554 0-0.97123-0.44675-1-1l-0.52917-10.175c-0.02877-0.55325 0.446-1 1-1z" style="paint-order:stroke fill markers"/>
   <path d="m33.276 52.894h13.568c0.554 0 0.97123 0.44675 1 1l0.52917 10.175c0.02877 0.55325-0.446 1-1 1h-13.768c-0.554 0-0.98209-0.44629-1-1l-0.32905-10.175c-0.01791-0.55371 0.446-1 1-1z" style="paint-order:stroke fill markers"/>
   <path d="m65.555 52.894h13.568c0.554 0 0.88716 0.45761 1 1l2.1167 10.175c0.11284 0.54239-0.446 1-1 1h-14.627c-0.554 0-0.94268-0.44897-1-1l-1.0583-10.175c-0.05732-0.55103 0.446-1 1-1z" style="paint-order:stroke fill markers"/>
  </g>
  <path d="m47.563 38.077h13.039c0.554 0 0.94268 0.44897 1 1l1.0583 10.175c0.05732 0.55103-0.446 1-1 1h-13.568c-0.554 0-0.97123-0.44675-1-1l-0.52917-10.175c-0.02877-0.55325 0.446-1 1-1z" fill="#8da1d4" stroke="#545d6b" stroke-linejoin="round" stroke-width=".529" style="paint-order:stroke fill markers"/>
  <text x="58.393539" y="45.828648" fill="#000000" font-size="3.175px" stroke="#ffffff" stroke-linejoin="round" stroke-width=".529" style="paint-order:markers fill stroke" xml:space="preserve"><tspan x="58.393539" y="45.828648" stroke-linejoin="round" stroke-width=".529"/></text>
  <g fill="#8da1d4" stroke="#545d6b" stroke-linejoin="round" stroke-width=".529">
   <path d="m49.68 51.306h13.039c0.554 0 0.94268 0.44897 1 1l1.0583 10.175c0.05732 0.55103-0.446 1-1 1h-13.568c-0.554 0-0.97123-0.44675-1-1l-0.52917-10.175c-0.02877-0.55325 0.446-1 1-1z" style="paint-order:stroke fill markers"/>
   <path d="m33.276 51.306h13.568c0.554 0 0.97123 0.44675 1 1l0.52917 10.175c0.02877 0.55325-0.446 1-1 1h-13.768c-0.554 0-0.98209-0.44629-1-1l-0.32905-10.175c-0.01791-0.55371 0.446-1 1-1z" style="paint-order:stroke fill markers"/>
   <path d="m65.555 51.306h13.568c0.554 0 0.88716 0.45761 1 1l2.1167 10.175c0.11284 0.54239-0.446 1-1 1h-14.627c-0.554 0-0.94268-0.44897-1-1l-1.0583-10.175c-0.05732-0.55103 0.446-1 1-1z" style="paint-order:stroke fill markers"/>
  </g>
  <g fill-opacity=".55" stroke="#9e9e9e" stroke-linejoin="round" stroke-opacity=".55" stroke-width=".529">
   <path d="m42.272 66.123h13.568c0.554 0 0.97123 0.44675 1 1l0.52917 10.175c0.02877 0.55325-0.446 1-1 1h-13.768c-0.554 0-0.98209-0.44629-1-1l-0.32905-10.175c-0.01791-0.55371 0.446-1 1-1z" style="paint-order:stroke fill markers"/>
   <path d="m58.676 66.123h14.097c0.554 0 0.94268 0.44897 1 1l1.0583 10.175c0.05732 0.55103-0.446 1-1 1h-14.627c-0.554 0-0.97123-0.44675-1-1l-0.52917-10.175c-0.02877-0.55325 0.446-1 1-1z" style="paint-order:stroke fill markers"/>
   <path d="m75.609 66.123h14.097c0.554 0 0.86057 0.46383 1 1l2.6458 10.175c0.13943 0.53617-0.446 1-1 1h-15.685c-0.554 0-0.94268-0.44897-1-1l-1.0583-10.175c-0.05732-0.55103 0.446-1 1-1z" style="paint-order:stroke fill markers"/>
   <path d="m8.9343 66.123h30.502c0.554 0 0.98208 0.44629 1 1l0.32925 10.175c0.01792 0.55371-0.446 1-1 1h-30.802c-0.554 0-0.99843-0.446-1-1l-0.02888-10.175c-0.00157-0.554 1.554-1 1-1z" style="paint-order:stroke fill markers"/>
   <path d="m71.376 79.352h55.372c0.554 0 0.71376 0.52568 1 1l5.8208 9.6454c0.28624 0.47432-0.446 1-1 1h-60.135c-0.554 0-0.93958-0.4493-1-1l-1.0583-9.6454c-0.06042-0.5507 0.446-1 1-1z" style="paint-order:stroke fill markers"/>
  </g>
  <path d="m71.376 77.765h54.843c0.554 0 0.69537 0.53728 1 1l6.35 9.6454c0.30463 0.46273-0.446 1-1 1h-60.135c-0.554 0-0.93958-0.4493-1-1l-1.0583-9.6454c-0.06042-0.5507 0.446-1 1-1z" fill="#8da1d4" stroke="#545d6b" stroke-linejoin="round" stroke-width=".529" style="paint-order:stroke fill markers"/>
  <g fill-opacity=".55" stroke="#9e9e9e" stroke-linejoin="round" stroke-opacity=".55" stroke-width=".529">
   <path d="m36.98 79.352h14.627c0.554 0 0.96965 0.44683 1 1l0.52917 9.6454c0.03035 0.55317-0.446 1-1 1h-14.827c-0.554 0-0.98111-0.44632-1-1l-0.32905-9.6454c-0.01889-0.55368 0.446-1 1-1z" style="paint-order:stroke fill markers"/>
   <path d="m54.443 79.352h14.097c0.554 0 0.93958 0.4493 1 1l1.0583 9.6454c0.06042 0.5507-0.446 1-1 1h-14.627c-0.554 0-0.96965-0.44683-1-1l-0.52917-9.6454c-0.03035-0.55317 0.446-1 1-1z" style="paint-order:stroke fill markers"/>
   <path d="m8.9343 79.352h25.21c0.554 0 0.9811 0.44632 1 1l0.32925 9.6454c0.0189 0.55368-0.446 1-1 1h-25.51c-0.554 0-0.99834-0.446-1-1l-0.02888-9.6454c-0.00166-0.554 0.31992-0.87998 0.86549-0.97626z" style="paint-order:stroke fill markers"/>
   <path d="m8.9343 52.894h21.506c0.554 0 0.98208 0.44629 1 1l0.32925 10.175c0.01792 0.55371-0.446 1-1 1h-21.806c-0.554 0-0.99843-0.446-1-1l-0.02888-10.175c-0.00157-0.554 0.33663-0.95262 0.88923-0.99209z" style="paint-order:stroke fill markers"/>
   <path d="m8.9343 39.665h19.389c0.554 0 0.98208 0.44629 1 1l0.32925 10.175c0.01792 0.55371-0.446 1-1 1h-19.69c-0.554 0-0.99843-0.446-1-1l-0.02888-10.175c-0.00157-0.554 0.39618-0.91374 0.94461-0.99209z" style="paint-order:stroke fill markers"/>
   <path d="m81.959 52.894h12.51c0.554 0 0.81048 0.47943 1 1l3.7042 10.175c0.18952 0.52058-0.446 1-1 1h-14.097c-0.554 0-0.88716-0.45761-1-1l-2.1167-10.175c-0.11284-0.54239 0.446-1 1-1z" style="paint-order:stroke fill markers"/>
   <path d="m79.313 39.665h10.393c0.554 0 0.83497 0.47115 1 1l3.175 10.175c0.16503 0.52885-0.446 1-1 1h-11.452c-0.554 0-0.88716-0.45761-1-1l-2.1167-10.175c-0.11284-0.54239 0.446-1 1-1z" style="paint-order:stroke fill markers"/>
  </g>
  <path d="m8.9343 64.536h30.502c0.554 0 0.98208 0.44629 1 1l0.32925 10.175c0.01792 0.55371-0.446 1-1 1h-30.802c-0.554 0-0.99843-0.446-1-1l-0.02888-10.175c-0.00155-0.54767 0.53834-0.97115 0.8734-0.99209z" fill="#8da1d4" stroke="#545d6b" stroke-linejoin="round" stroke-width=".529" style="paint-order:stroke fill markers"/>
  <g fill-opacity=".55" stroke="#9e9e9e" stroke-linejoin="round" stroke-opacity=".55" stroke-width=".529">
   <path d="m8.9343 26.436h11.316c0.554 0 1.0035 0.44601 1 1l-0.064 10.175c-0.0035 0.55399-0.446 1-1 1h-11.223c-0.554 0-0.99843-0.446-1-1l-0.02888-10.175c-0.00157-0.554 0.37763-0.87552 0.92088-0.98418z" style="paint-order:stroke fill markers"/>
   <path d="m23.222 26.436h10.922c0.554 0 0.98208 0.44629 1 1l0.32925 10.175c0.01792 0.55371-0.446 1-1 1h-11.223c-0.554 0-0.99843-0.446-1-1l-0.02888-10.175c-0.0016-0.554 0.35896-1 0.91296-1z" style="paint-order:stroke fill markers"/>
   <path d="m8.9343 6.8564h11.316c0.554 0 1.0055 0.44603 1 1l-0.064 6.4704c-0.0055 0.55397-0.446 1-1 1h-11.223c-0.554 0-0.99753-0.44601-1-1l-0.02888-6.4704c-0.0024727-0.55399 0.37763-0.87552 0.92088-0.98417z" style="paint-order:stroke fill markers"/>
   <path d="m30.101 6.8564h11.316c0.554 0 1.0055 0.44603 1 1l-0.064 6.4704c-0.0055 0.55397-0.446 1-1 1h-11.223c-0.554 0-0.99753-0.44601-1-1l-0.02888-6.4704c-0.0025-0.55399 0.37764-0.87552 0.92088-0.98417z" style="paint-order:stroke fill markers"/>
   <path d="m44.918 6.8564h11.316c0.554 0 1.0055 0.44603 1 1l-0.064 6.4704c-0.0055 0.55397-0.446 1-1 1h-11.223c-0.554 0-0.99753-0.44601-1-1l-0.02888-6.4704c-0.0025-0.55399 0.37764-0.87552 0.92088-0.98417z" style="paint-order:stroke fill markers"/>
   <path d="m59.205 6.8564h11.316c0.554 0 1.0055 0.44603 1 1l-0.064 6.4704c-0.0055 0.55397-0.446 1-1 1h-11.223c-0.554 0-0.99753-0.44601-1-1l-0.02888-6.4704c-0.0025-0.55399 0.37764-0.87552 0.92088-0.98417z" style="paint-order:stroke fill markers"/>
  </g>
  <path d="m8.9343 5.798h11.316c0.554 0 1.0055 0.44603 1 1l-0.064 6.4704c-0.0055 0.55397-0.446 1-1 1h-11.223c-0.554 0-0.99753-0.44601-1-1l-0.02888-6.4704c-0.0024727-0.55399 0.37763-0.87552 0.92088-0.98417z" fill="#8da1d4" stroke="#545d6b" stroke-linejoin="round" stroke-width=".529" style="paint-order:stroke fill markers"/>
  <g fill="#fff" fill-opacity=".74164" stroke-linejoin="bevel">
   <g stroke-width="1.1227">
    <path d="m31.897 72.981c-0.11365 0.03071-0.23873 0.05593-0.37525 0.07567-0.13432 0.01974-0.25522 0.02961-0.36269 0.02961-0.37507 0-0.66874-0.1009-0.88103-0.30269-0.21228-0.20179-0.33726-0.52532-0.37494-0.97057l-0.16562-1.8546h-0.41784l-0.04399-0.51983h0.41784l-0.08935-1.0561h0.61853l0.08936 1.0561h1.2765l0.04398 0.51983h-1.2765l0.14196 1.575c0.01633 0.19302 0.03353 0.34436 0.05158 0.45403 0.01787 0.10748 0.05711 0.20837 0.11773 0.30269 0.05568 0.08773 0.12696 0.15244 0.21383 0.19411 0.08888 0.03948 0.21996 0.05922 0.39324 0.05922 0.1009 0 0.20497-0.01426 0.31223-0.04277 0.10707-0.03071 0.1839-0.05593 0.23048-0.07567h0.0329z" style="paint-order:markers stroke fill"/>
    <path d="m28.651 68.593h-0.0329c-0.07025-0.01974-0.16134-0.03948-0.27327-0.05922-0.11218-0.02193-0.20994-0.0329-0.29329-0.0329-0.2654 0-0.45164 0.05922-0.55872 0.17766-0.10514 0.11625-0.14016 0.32791-0.10501 0.63498l0.01431 0.12502h1.1153l0.05948 0.51983h-1.0956l0.36128 3.0555h-0.61853l-0.36128-3.0555h-0.41784l-0.05948-0.51983h0.41784l-0.01393-0.12173c-0.04995-0.43648 0.02036-0.77097 0.2109-1.0035 0.19029-0.23469 0.49052-0.35204 0.90068-0.35204 0.13818 0 0.26286 0.0066 0.37404 0.01974 0.11337 0.01316 0.21712 0.02851 0.31125 0.04606z" style="paint-order:markers stroke fill"/>
    <path d="m25.804 73.014h-0.61853l-0.29194-3.5753h0.61853z" style="paint-order:markers stroke fill"/>
    <path d="m25.467 68.823h-0.6975l-0.07377-0.64156h0.6975z" style="paint-order:markers stroke fill"/>
    <path d="m24.31 73.014h-0.61853l-0.12602-1.9929c-0.01017-0.16889-0.02982-0.32669-0.05841-0.47364-0.02872-0.14915-0.07191-0.2654-0.12958-0.34875-0.06038-0.09212-0.14344-0.16012-0.24917-0.20398-0.10586-0.04606-0.24105-0.06909-0.40555-0.06909-0.16889 0-0.34295 0.04167-0.52217 0.12502-0.17922 0.08335-0.34939 0.18973-0.51048 0.31914l0.16552 2.6442h-0.61853l-0.30857-5.0197h0.61853l0.11155 1.8523c0.18337-0.16012 0.37544-0.28514 0.5762-0.37507 0.20076-0.08993 0.40972-0.13489 0.62686-0.13489 0.397 0 0.70689 0.11954 0.92966 0.35862 0.22277 0.23908 0.34646 0.58352 0.37477 1.0331z" style="paint-order:markers stroke fill"/>
    <path d="m20.315 71.615c0 0.19082-0.04496 0.37946-0.13489 0.56589-0.08773 0.18644-0.21166 0.34436-0.37178 0.47377-0.17547 0.14038-0.38055 0.25005-0.61524 0.32901-0.2325 0.07896-0.51325 0.11844-0.84226 0.11844-0.35314 0-0.67118-0.0329-0.95412-0.0987-0.28075-0.0658-0.56699-0.16341-0.85871-0.29282v-0.81594h0.04606c0.24785 0.20618 0.53409 0.3652 0.85871 0.47706 0.32462 0.11186 0.6295 0.16779 0.91464 0.16779 0.40358 0 0.71724-0.07567 0.94096-0.22702 0.22592-0.15134 0.33888-0.35313 0.33888-0.60537 0-0.21714-0.05374-0.2777-0.16121-0.38079-0.10528-0.10309-0.2665-0.18315-0.48364-0.24018-0.1645-0.04387-0.34326-0.08006-0.53628-0.10857-0.19082-0.02851-0.39398-0.06458-0.60893-0.10845-0.43429-0.09212-0.75672-0.24895-0.96728-0.47048-0.20837-0.22372-0.31256-0.51435-0.31256-0.87187 0-0.41016 0.17328-0.74575 0.51983-1.0068 0.34655-0.2632 0.78633-0.39481 1.3193-0.39481 0.34436 0 0.66021 0.0329 0.94754 0.0987s0.54176 0.14696 0.7633 0.24346v0.76988h-0.04606c-0.18644-0.15792-0.4321-0.28843-0.73698-0.39152-0.30269-0.10528-0.61305-0.15792-0.93109-0.15792-0.34875 0-0.6295 0.07238-0.84226 0.21714-0.21056 0.14476-0.31585 0.3312-0.31585 0.55931 0 0.20398 0.05264 0.3641 0.15792 0.48035 0.10528 0.11625 0.29062 0.20508 0.55602 0.2665 0.14038 0.03071 0.33997 0.06799 0.59879 0.11186 0.25882 0.04387 0.47816 0.08883 0.65801 0.13489 0.3641 0.09651 0.63827 0.24237 0.82252 0.43758s0.27664 0.3686 0.27664 0.71954z" style="paint-order:markers stroke fill"/>
   </g>
   <path transform="skewX(-.99381)" d="m43.773 60.571h-0.84915l-0.58756-1.6701h-2.5917l-0.58756 1.6701h-0.8089l2.1812-5.9923h1.0624zm-1.6822-2.3543-1.0504-2.9418-1.0544 2.9418z" stroke-width="1.3732" style="paint-order:markers stroke fill" aria-label="A"/>
   <path transform="skewX(3.5451)" d="m55.585 40.968-1.5418 5.9322h-0.88843l-1.247-4.9242-1.2191 4.9242h-0.86851l-1.5697-5.9322h0.80875l1.247 4.9322 1.2271-4.9322h0.80078l1.239 4.98 1.239-4.98z" stroke-width="1.3594" style="paint-order:markers stroke fill" aria-label="W"/>
   <path transform="matrix(1.0262 0 .090523 .97451 0 0)" d="m51.694 60.334q0 0.34089-0.16065 0.67394-0.15673 0.33305-0.44276 0.56423-0.31346 0.25077-0.73272 0.39183-0.41534 0.14106-1.0031 0.14106-0.63084 0-1.1363-0.11755-0.50154-0.11755-1.0227-0.34872v-0.97173h0.05486q0.44276 0.36832 1.0227 0.56815 0.5799 0.19983 1.0893 0.19983 0.72096 0 1.1206-0.27036 0.40358-0.27036 0.40358-0.72096 0-0.38791-0.192-0.57207-0.18808-0.18416-0.57598-0.28603-0.29387-0.07836-0.63868-0.1293-0.34089-0.05094-0.72488-0.1293-0.77582-0.16457-1.152-0.56031-0.37224-0.39966-0.37224-1.0383 0-0.73272 0.61909-1.199 0.61909-0.47019 1.5712-0.47019 0.61517 0 1.1285 0.11755t0.90904 0.28995v0.91687h-0.05486q-0.33305-0.28212-0.87769-0.46627-0.54072-0.18808-1.1089-0.18808-0.623 0-1.0031 0.2586-0.37615 0.25861-0.37615 0.66611 0 0.3644 0.18808 0.57207 0.18808 0.20767 0.66219 0.31738 0.25077 0.05486 0.71312 0.13322 0.46236 0.07837 0.78365 0.16065 0.65043 0.1724 0.97957 0.52113 0.32914 0.34873 0.32914 0.97565z" stroke-width="1.337" style="paint-order:markers stroke fill" aria-label="S"/>
   <path transform="matrix(1.0412 0 .12858 .96047 0 0)" d="m65.159 59.953q0 0.84726-0.37146 1.5359-0.36728 0.68866-0.98082 1.0685-0.42572 0.26294-0.9516 0.3798-0.52171 0.11686-1.3773 0.11686h-1.5693v-6.2146h1.5526q0.90986 0 1.4441 0.13356 0.5384 0.12938 0.90986 0.35894 0.6344 0.3965 0.98916 1.0559 0.35476 0.65944 0.35476 1.5651zm-0.86395-0.01252q0-0.73039-0.2546-1.2312t-0.75961-0.78883q-0.36728-0.20868-0.78048-0.28798-0.41319-0.08347-0.98916-0.08347h-0.7763v4.7956h0.7763q0.59684 0 1.0392-0.08765 0.44658-0.08765 0.81804-0.32555 0.46328-0.29633 0.69283-0.78048 0.23373-0.48415 0.23373-1.2104z" stroke-width="1.4242" style="paint-order:markers stroke fill" aria-label="D"/>
   <path d="m13.044 11.771h-2.4715v-3.7513h2.4715v0.4434h-1.9726v1.0279h1.9726v0.4434h-1.9726v1.3932h1.9726zm2.7637-0.81123q0 0.38546-0.31996 0.63235-0.31744 0.2469-0.86917 0.2469-0.3124 0-0.57441-0.07306-0.25949-0.07558-0.43584-0.16376v-0.53158h0.02519q0.22422 0.1688 0.49883 0.26957 0.27461 0.09825 0.52654 0.09825 0.3124 0 0.48875-0.10077 0.17635-0.10077 0.17635-0.31744 0-0.16628-0.09573-0.25193-0.09573-0.08566-0.36782-0.14612-0.10077-0.02267-0.26453-0.05291-0.16124-0.03023-0.29476-0.0655-0.37034-0.09825-0.52654-0.2872-0.15368-0.19147-0.15368-0.4686 0-0.17383 0.07054-0.32751 0.07306-0.15368 0.21918-0.27461 0.14108-0.11841 0.35775-0.18643 0.21918-0.070541 0.48875-0.070541 0.25193 0 0.50891 0.062983 0.25949 0.060464 0.43081 0.14864v0.50639h-0.02519q-0.1814-0.13352-0.44089-0.22422-0.25949-0.093215-0.50891-0.093215-0.25949 0-0.43836 0.10077-0.17887 0.098254-0.17887 0.29476 0 0.17383 0.10833 0.26201 0.10581 0.088176 0.34263 0.1436 0.13101 0.03023 0.29224 0.06046 0.16376 0.03023 0.27209 0.05542 0.33003 0.07558 0.50891 0.25949 0.17887 0.18643 0.17887 0.49379zm2.7587 0.63487q-0.23682 0.11337-0.45096 0.17635-0.21162 0.06298-0.45096 0.06298-0.30484 0-0.55929-0.08818-0.25445-0.0907-0.43584-0.27209-0.18391-0.18139-0.28468-0.45852t-0.10077-0.64747q0-0.6903 0.3779-1.0833 0.38042-0.39302 1.0027-0.39302 0.24186 0 0.47364 0.068022 0.2343 0.068022 0.42829 0.16628v0.52654h-0.02519q-0.21666-0.1688-0.44844-0.25949-0.22926-0.090696-0.44844-0.090696-0.40309 0-0.63739 0.27209-0.23178 0.26957-0.23178 0.79359 0 0.5089 0.22674 0.78351 0.22926 0.27209 0.64243 0.27209 0.1436 0 0.29224-0.03779t0.26705-0.09825q0.10329-0.05291 0.19399-0.11085 0.0907-0.06046 0.1436-0.10329h0.02519z" stroke-width=".85966" style="paint-order:markers stroke fill" aria-label="Esc"/>
  </g>
 </g>
</svg>
