<?xml version="1.0" encoding="UTF-8" standalone="no"?>
<!-- Created with Inkscape (http://www.inkscape.org/) -->

<svg
   width="210mm"
   height="297mm"
   viewBox="0 0 210 297"
   version="1.1"
   id="svg1"
   sodipodi:docname="w-down.svg"
   inkscape:version="1.3.2 (091e20e, 2023-11-25, custom)"
   xmlns:inkscape="http://www.inkscape.org/namespaces/inkscape"
   xmlns:sodipodi="http://sodipodi.sourceforge.net/DTD/sodipodi-0.dtd"
   xmlns="http://www.w3.org/2000/svg"
   xmlns:svg="http://www.w3.org/2000/svg">
  <sodipodi:namedview
     id="namedview1"
     pagecolor="#505050"
     bordercolor="#ffffff"
     borderopacity="1"
     inkscape:showpageshadow="0"
     inkscape:pageopacity="0"
     inkscape:pagecheckerboard="1"
     inkscape:deskcolor="#505050"
     inkscape:document-units="mm"
     inkscape:zoom="3.0037025"
     inkscape:cx="112.69425"
     inkscape:cy="112.36133"
     inkscape:window-width="1791"
     inkscape:window-height="1119"
     inkscape:window-x="2388"
     inkscape:window-y="149"
     inkscape:window-maximized="0"
     inkscape:current-layer="layer1"
     showguides="true">
    <sodipodi:guide
       position="55.18571,243.62005"
       orientation="0,-1"
       id="guide41"
       inkscape:locked="false" />
    <sodipodi:guide
       position="52.719309,236.44107"
       orientation="0,-1"
       id="guide42"
       inkscape:locked="false" />
  </sodipodi:namedview>
  <defs
     id="defs1" />
  <g
     inkscape:label="Layer 1"
     inkscape:groupmode="layer"
     id="layer1">
    <path
       id="path28"
       style="fill:#000000;fill-opacity:0.55;stroke:#9e9e9e;stroke-width:0.529;stroke-linecap:butt;stroke-linejoin:round;stroke-miterlimit:80;stroke-dasharray:none;stroke-dashoffset:127.298;stroke-opacity:0.55;paint-order:stroke fill markers"
       d="M 50.866999,26.435536 H 61.49 c 0.554,0 0.917645,0.452156 1,1 l 1.5295,10.174534 c 0.08236,0.547845 -0.446,1 -1,1 H 51.696 c -0.554,0 -0.95501,-0.44783 -1,-1 L 49.867001,27.435536 c -0.04499,-0.552169 0.358964,-1 0.912964,-1 z"
       sodipodi:nodetypes="ssssssssss" />
    <path
       id="path27"
       style="fill:#000000;fill-opacity:0.55;stroke:#9e9e9e;stroke-width:0.529;stroke-linecap:butt;stroke-linejoin:round;stroke-miterlimit:80;stroke-dasharray:none;stroke-dashoffset:127.298;stroke-opacity:0.55;paint-order:stroke fill markers"
       d="m 37.179499,26.435536 h 10.723082 c 0.554,0 0.954988,0.447832 1,1 L 49.732,37.61007 c 0.04501,0.552169 -0.446,1 -1,1 H 37.508499 c -0.554,0 -0.982096,-0.44629 -1,-1 L 36.179501,27.435536 c -0.0179,-0.55371 0.358964,-1 0.912964,-1 z"
       sodipodi:nodetypes="ssssssssss" />
    <path
       id="path11"
       style="fill:#000000;fill-opacity:0.55;stroke:#9e9e9e;stroke-width:0.529;stroke-linecap:butt;stroke-linejoin:round;stroke-miterlimit:80;stroke-dasharray:none;stroke-dashoffset:127.298;stroke-opacity:0.55;paint-order:stroke fill markers"
       d="m 31.488476,39.664699 h 13.239105 c 0.554,0 0.971226,0.446748 1,1 l 0.529166,10.174534 c 0.02877,0.553253 -0.446,1 -1,1 H 31.817524 c -0.554,0 -0.982093,-0.44629 -1.000001,-1 L 30.488476,40.664699 c -0.01791,-0.55371 0.446001,-1 1,-1 z"
       sodipodi:nodetypes="sssssssss" />
    <path
       id="path20"
       style="fill:#000000;fill-opacity:0.55;stroke:#9e9e9e;stroke-width:0.529;stroke-linecap:butt;stroke-linejoin:round;stroke-miterlimit:80;stroke-dasharray:none;stroke-dashoffset:127.298;stroke-opacity:0.55;paint-order:stroke fill markers"
       d="m 92.542628,66.123037 h 13.039132 c 0.554,0 0.74438,0.5085 1,1 l 5.29167,10.174534 c 0.25562,0.491501 -0.446,1 -1,1 H 95.188462 c -0.554,0 -0.860572,-0.463833 -1,-1 L 91.542628,67.123037 c -0.139427,-0.536168 0.446,-1 1,-1 z"
       sodipodi:nodetypes="sssssssss" />
    <path
       id="path22"
       style="fill:#000000;fill-opacity:0.55;stroke:#9e9e9e;stroke-width:0.529;stroke-linecap:butt;stroke-linejoin:round;stroke-miterlimit:80;stroke-dasharray:none;stroke-dashoffset:127.298;stroke-opacity:0.55;paint-order:stroke fill markers"
       d="m 63.967623,39.664702 h 12.509964 c 0.554,0 0.887164,0.457613 1,1 l 2.116666,10.174534 c 0.112836,0.542388 -0.446,1 -1,1 H 65.025957 c -0.554,0 -0.942683,-0.448973 -1,-1 L 62.967623,40.664702 c -0.05732,-0.551027 0.446,-1 1,-1 z"
       sodipodi:nodetypes="sssssssss" />
    <path
       id="path4"
       style="fill:#000000;fill-opacity:0.55;stroke:#9e9e9e;stroke-width:0.529;stroke-linecap:butt;stroke-linejoin:round;stroke-miterlimit:80;stroke-dasharray:none;stroke-dashoffset:127.298;stroke-opacity:0.55;paint-order:stroke fill markers"
       d="m 47.563455,39.664696 h 13.03913 c 0.554,0 0.942683,0.448973 1,1 l 1.058333,10.174534 c 0.05732,0.551027 -0.446,1 -1,1 H 48.092622 c -0.554,0 -0.971226,-0.446748 -1,-1 L 46.563455,40.664696 c -0.02877,-0.553252 0.446,-1 1,-1 z"
       sodipodi:nodetypes="sssssssss" />
    <path
       id="path5"
       style="fill:#000000;fill-opacity:0.55;stroke:#9e9e9e;stroke-width:0.529;stroke-linecap:butt;stroke-linejoin:round;stroke-miterlimit:80;stroke-dasharray:none;stroke-dashoffset:127.298;stroke-opacity:0.55;paint-order:stroke fill markers"
       d="m 49.680123,52.893868 h 13.03913 c 0.554,0 0.942683,0.448973 1,1 l 1.058333,10.174534 c 0.05732,0.551027 -0.446,1 -1,1 H 50.20929 c -0.554,0 -0.971226,-0.446748 -1,-1 L 48.680123,53.893868 c -0.02877,-0.553252 0.446,-1 1,-1 z"
       sodipodi:nodetypes="sssssssss" />
    <path
       id="path6"
       style="fill:#000000;fill-opacity:0.55;stroke:#9e9e9e;stroke-width:0.529;stroke-linecap:butt;stroke-linejoin:round;stroke-miterlimit:80;stroke-dasharray:none;stroke-dashoffset:127.298;stroke-opacity:0.55;paint-order:stroke fill markers"
       d="m 33.275952,52.893868 h 13.568297 c 0.554,0 0.971226,0.446748 1,1 l 0.529166,10.174534 c 0.02877,0.553253 -0.446,1 -1,1 H 33.604999 c -0.554,0 -0.982093,-0.44629 -1,-1 L 32.275952,53.893868 c -0.01791,-0.55371 0.446,-1 1,-1 z"
       sodipodi:nodetypes="sssssssss" />
    <path
       id="path7"
       style="fill:#000000;fill-opacity:0.55;stroke:#9e9e9e;stroke-width:0.529;stroke-linecap:butt;stroke-linejoin:round;stroke-miterlimit:80;stroke-dasharray:none;stroke-dashoffset:127.298;stroke-opacity:0.55;paint-order:stroke fill markers"
       d="m 65.555124,52.893868 h 13.568297 c 0.554,0 0.887164,0.457613 1,1 l 2.116666,10.174534 c 0.112836,0.542388 -0.446,1 -1,1 H 66.613458 c -0.554,0 -0.942683,-0.448973 -1,-1 L 64.555124,53.893868 c -0.05732,-0.551027 0.446,-1 1,-1 z"
       sodipodi:nodetypes="sssssssss" />
    <path
       id="rect1"
       style="fill:#8da1d4;fill-opacity:1;stroke:#545d6b;stroke-width:0.529;stroke-linecap:butt;stroke-linejoin:round;stroke-miterlimit:80;stroke-dasharray:none;stroke-dashoffset:127.298;stroke-opacity:1;paint-order:stroke fill markers"
       d="m 47.563455,38.077195 h 13.03913 c 0.554,0 0.942683,0.448973 1,1 l 1.058333,10.174534 c 0.05732,0.551027 -0.446,1 -1,1 H 48.092622 c -0.554,0 -0.971226,-0.446748 -1,-1 L 46.563455,39.077195 c -0.02877,-0.553252 0.446,-1 1,-1 z"
       sodipodi:nodetypes="sssssssss" />
    <text
       xml:space="preserve"
       style="font-size:3.175px;fill:#000000;fill-opacity:1;stroke:#ffffff;stroke-width:0.529;stroke-linecap:butt;stroke-linejoin:round;stroke-miterlimit:80;stroke-dashoffset:127.298;stroke-opacity:1;paint-order:markers fill stroke;stroke-dasharray:none"
       x="58.393539"
       y="45.828648"
       id="text1"><tspan
         sodipodi:role="line"
         id="tspan1"
         style="stroke-width:0.529;stroke-dasharray:none;stroke-linecap:butt;stroke-linejoin:round"></tspan></text>
    <path
       id="path1"
       style="fill:#8da1d4;fill-opacity:1;stroke:#545d6b;stroke-width:0.529;stroke-linecap:butt;stroke-linejoin:round;stroke-miterlimit:80;stroke-dasharray:none;stroke-dashoffset:127.298;stroke-opacity:1;paint-order:stroke fill markers"
       d="m 49.680123,51.306367 h 13.03913 c 0.554,0 0.942683,0.448973 1,1 l 1.058333,10.174534 c 0.05732,0.551027 -0.446,1 -1,1 H 50.20929 c -0.554,0 -0.971226,-0.446748 -1,-1 L 48.680123,52.306367 c -0.02877,-0.553252 0.446,-1 1,-1 z"
       sodipodi:nodetypes="sssssssss" />
    <path
       id="path2"
       style="fill:#8da1d4;fill-opacity:1;stroke:#545d6b;stroke-width:0.529;stroke-linecap:butt;stroke-linejoin:round;stroke-miterlimit:80;stroke-dasharray:none;stroke-dashoffset:127.298;stroke-opacity:1;paint-order:stroke fill markers"
       d="m 33.275952,51.306367 h 13.568297 c 0.554,0 0.971226,0.446748 1,1 l 0.529166,10.174534 c 0.02877,0.553253 -0.446,1 -1,1 H 33.604999 c -0.554,0 -0.982093,-0.44629 -1,-1 L 32.275952,52.306367 c -0.01791,-0.55371 0.446,-1 1,-1 z"
       sodipodi:nodetypes="sssssssss" />
    <path
       id="path3"
       style="fill:#8da1d4;fill-opacity:1;stroke:#545d6b;stroke-width:0.529;stroke-linecap:butt;stroke-linejoin:round;stroke-miterlimit:80;stroke-dasharray:none;stroke-dashoffset:127.298;stroke-opacity:1;paint-order:stroke fill markers"
       d="m 65.555124,51.306367 h 13.568297 c 0.554,0 0.887164,0.457613 1,1 l 2.116666,10.174534 c 0.112836,0.542388 -0.446,1 -1,1 H 66.613458 c -0.554,0 -0.942683,-0.448973 -1,-1 L 64.555124,52.306367 c -0.05732,-0.551027 0.446,-1 1,-1 z"
       sodipodi:nodetypes="sssssssss" />
    <path
       id="path8"
       style="fill:#000000;fill-opacity:0.55;stroke:#9e9e9e;stroke-width:0.529;stroke-linecap:butt;stroke-linejoin:round;stroke-miterlimit:80;stroke-dasharray:none;stroke-dashoffset:127.298;stroke-opacity:0.55;paint-order:stroke fill markers"
       d="m 42.271788,66.123037 h 13.568297 c 0.554,0 0.971226,0.446748 1,1 l 0.529166,10.174534 c 0.02877,0.553253 -0.446,1 -1,1 H 42.600835 c -0.554,0 -0.982093,-0.44629 -1,-1 L 41.271788,67.123037 c -0.01791,-0.55371 0.446,-1 1,-1 z"
       sodipodi:nodetypes="sssssssss" />
    <path
       id="path9"
       style="fill:#000000;fill-opacity:0.55;stroke:#9e9e9e;stroke-width:0.529;stroke-linecap:butt;stroke-linejoin:round;stroke-miterlimit:80;stroke-dasharray:none;stroke-dashoffset:127.298;stroke-opacity:0.55;paint-order:stroke fill markers"
       d="m 58.67596,66.123037 h 14.097463 c 0.554,0 0.942683,0.448973 1,1 l 1.058333,10.174534 c 0.05732,0.551027 -0.446,1 -1,1 H 59.205127 c -0.554,0 -0.971226,-0.446748 -1,-1 L 57.67596,67.123037 c -0.02877,-0.553252 0.446,-1 1,-1 z"
       sodipodi:nodetypes="sssssssss" />
    <path
       id="path10"
       style="fill:#000000;fill-opacity:0.55;stroke:#9e9e9e;stroke-width:0.529;stroke-linecap:butt;stroke-linejoin:round;stroke-miterlimit:80;stroke-dasharray:none;stroke-dashoffset:127.298;stroke-opacity:0.55;paint-order:stroke fill markers"
       d="m 75.609295,66.123037 h 14.097463 c 0.554,0 0.860573,0.463832 1,1 l 2.645833,10.174534 c 0.139428,0.536168 -0.446,1 -1,1 H 76.667629 c -0.554,0 -0.942684,-0.448973 -1,-1 L 74.609295,67.123037 c -0.05732,-0.551027 0.446,-1 1,-1 z"
       sodipodi:nodetypes="sssssssss" />
    <path
       id="path12"
       style="fill:#000000;fill-opacity:0.55;stroke:#9e9e9e;stroke-width:0.529;stroke-linecap:butt;stroke-linejoin:round;stroke-miterlimit:80;stroke-dasharray:none;stroke-dashoffset:127.298;stroke-opacity:0.55;paint-order:stroke fill markers"
       d="M 8.9342843,66.123037 H 39.435914 c 0.554,0 0.982082,0.44629 1,1 l 0.329252,10.174534 c 0.01792,0.553711 -0.446,1 -1,1 H 8.9631663 c -0.554,0 -0.9984275,-0.446003 -1,-1 l -0.02888,-10.174534 c -0.00157,-0.553997 1.554,-1 1,-1 z"
       sodipodi:nodetypes="ssssssssss" />
    <path
       id="path13"
       style="fill:#000000;fill-opacity:0.55;stroke:#9e9e9e;stroke-width:0.529;stroke-linecap:butt;stroke-linejoin:round;stroke-miterlimit:80;stroke-dasharray:none;stroke-dashoffset:127.298;stroke-opacity:0.55;paint-order:stroke fill markers"
       d="m 71.375959,79.352203 h 55.372461 c 0.554,0 0.71376,0.525681 1,1 l 5.82083,9.645367 c 0.28624,0.47432 -0.446,1 -1,1 H 72.434293 c -0.554,0 -0.939575,-0.449305 -1,-1 l -1.058334,-9.645367 c -0.06042,-0.550695 0.446,-1 1,-1 z"
       sodipodi:nodetypes="sssssssss" />
    <path
       id="path14"
       style="fill:#8da1d4;fill-opacity:1;stroke:#545d6b;stroke-width:0.529;stroke-linecap:butt;stroke-linejoin:round;stroke-miterlimit:80;stroke-dasharray:none;stroke-dashoffset:127.298;stroke-opacity:1;paint-order:stroke fill markers"
       d="m 71.375959,77.764702 h 54.843291 c 0.554,0 0.69537,0.537278 1,1 l 6.35,9.645367 c 0.30463,0.462727 -0.446,1 -1,1 H 72.434293 c -0.554,0 -0.939575,-0.449305 -1,-1 l -1.058334,-9.645367 c -0.06042,-0.550695 0.446,-1 1,-1 z"
       sodipodi:nodetypes="sssssssss" />
    <path
       id="path15"
       style="fill:#000000;fill-opacity:0.55;stroke:#9e9e9e;stroke-width:0.529;stroke-linecap:butt;stroke-linejoin:round;stroke-miterlimit:80;stroke-dasharray:none;stroke-dashoffset:127.298;stroke-opacity:0.55;paint-order:stroke fill markers"
       d="m 36.980119,79.352203 h 14.62663 c 0.554,0 0.969652,0.446832 1,1 l 0.529166,9.645367 c 0.03035,0.553169 -0.446,1 -1,1 H 37.309166 c -0.554,0 -0.981112,-0.446322 -1,-1 l -0.329047,-9.645367 c -0.01889,-0.553677 0.446,-1 1,-1 z"
       sodipodi:nodetypes="sssssssss" />
    <path
       id="path16"
       style="fill:#000000;fill-opacity:0.55;stroke:#9e9e9e;stroke-width:0.529;stroke-linecap:butt;stroke-linejoin:round;stroke-miterlimit:80;stroke-dasharray:none;stroke-dashoffset:127.298;stroke-opacity:0.55;paint-order:stroke fill markers"
       d="m 54.442624,79.352203 h 14.097463 c 0.554,0 0.939575,0.449305 1,1 l 1.058333,9.645367 c 0.06042,0.550696 -0.446,1 -1,1 H 54.971791 c -0.554,0 -0.969652,-0.446832 -1,-1 l -0.529167,-9.645367 c -0.03035,-0.553168 0.446,-1 1,-1 z"
       sodipodi:nodetypes="sssssssss" />
    <path
       id="path17"
       style="fill:#000000;fill-opacity:0.55;stroke:#9e9e9e;stroke-width:0.529;stroke-linecap:butt;stroke-linejoin:round;stroke-miterlimit:80;stroke-dasharray:none;stroke-dashoffset:127.298;stroke-opacity:0.55;paint-order:stroke fill markers"
       d="M 8.9342833,79.352203 H 34.144247 c 0.554,0 0.9811,0.446323 1,1 l 0.329252,9.645367 c 0.0189,0.553679 -0.446,1 -1,1 H 8.9631653 c -0.554,0 -0.9983412,-0.446003 -1,-1 l -0.02888,-9.645367 c -0.00166,-0.553997 0.3199193,-0.879984 0.8654891,-0.976263 z"
       sodipodi:nodetypes="ssssssssss" />
    <path
       id="path18"
       style="fill:#000000;fill-opacity:0.55;stroke:#9e9e9e;stroke-width:0.529;stroke-linecap:butt;stroke-linejoin:round;stroke-miterlimit:80;stroke-dasharray:none;stroke-dashoffset:127.298;stroke-opacity:0.55;paint-order:stroke fill markers"
       d="M 8.9342843,52.893868 H 30.440081 c 0.554,0 0.982082,0.44629 1,1 l 0.329252,10.174534 c 0.01792,0.553711 -0.446,1 -1,1 H 8.9631663 c -0.554,0 -0.9984275,-0.446003 -1,-1 l -0.02888,-10.174534 c -0.00157,-0.553997 0.3366343,-0.952616 0.8892263,-0.992088 z"
       sodipodi:nodetypes="ssssssssss" />
    <path
       id="path19"
       style="fill:#000000;fill-opacity:0.55;stroke:#9e9e9e;stroke-width:0.529;stroke-linecap:butt;stroke-linejoin:round;stroke-miterlimit:80;stroke-dasharray:none;stroke-dashoffset:127.298;stroke-opacity:0.55;paint-order:stroke fill markers"
       d="M 8.9342843,39.664702 H 28.323415 c 0.554,0 0.982081,0.44629 1,1 l 0.329252,10.174534 c 0.01792,0.553711 -0.446,1 -1,1 H 8.9631663 c -0.554,0 -0.9984275,-0.446003 -1,-1 l -0.02888,-10.174534 c -0.00157,-0.553997 0.3961815,-0.913737 0.9446132,-0.992088 z"
       sodipodi:nodetypes="ssssssssss" />
    <path
       id="path21"
       style="fill:#000000;fill-opacity:0.55;stroke:#9e9e9e;stroke-width:0.529;stroke-linecap:butt;stroke-linejoin:round;stroke-miterlimit:80;stroke-dasharray:none;stroke-dashoffset:127.298;stroke-opacity:0.55;paint-order:stroke fill markers"
       d="m 81.959291,52.893868 h 12.509935 c 0.554,0 0.810479,0.479426 1,1 l 3.704164,10.174534 c 0.189522,0.520575 -0.446,1 -0.999997,1 H 84.075958 c -0.554,0 -0.887164,-0.457613 -1,-1 L 80.959291,53.893868 c -0.112836,-0.542388 0.446,-1 1,-1 z"
       sodipodi:nodetypes="sssssssss" />
    <path
       id="path23"
       style="fill:#000000;fill-opacity:0.55;stroke:#9e9e9e;stroke-width:0.529;stroke-linecap:butt;stroke-linejoin:round;stroke-miterlimit:80;stroke-dasharray:none;stroke-dashoffset:127.298;stroke-opacity:0.55;paint-order:stroke fill markers"
       d="m 79.313456,39.664699 h 10.393268 c 0.554,0 0.834971,0.471151 1,1 l 3.174998,10.174534 c 0.16503,0.52885 -0.446,1 -0.999997,1 H 81.430123 c -0.554,0 -0.887164,-0.457613 -1,-1 L 78.313456,40.664699 c -0.112836,-0.542388 0.446,-1 1,-1 z"
       sodipodi:nodetypes="sssssssss" />
    <path
       id="path24"
       style="fill:#8da1d4;fill-opacity:1;stroke:#545d6b;stroke-width:0.529;stroke-linecap:butt;stroke-linejoin:round;stroke-miterlimit:80;stroke-dasharray:none;stroke-dashoffset:127.298;stroke-opacity:1;paint-order:stroke fill markers"
       d="M 8.9342843,64.535536 H 39.435914 c 0.554,0 0.982082,0.44629 1,1 l 0.329252,10.174534 c 0.01792,0.553711 -0.446,1 -1,1 H 8.9631663 c -0.554,0 -0.9984275,-0.446003 -1,-1 L 7.9342863,65.535536 C 7.9327363,64.98787 8.4726274,64.56439 8.8076878,64.543448 Z"
       sodipodi:nodetypes="ssssssssss" />
    <path
       id="path25"
       style="fill:#000000;fill-opacity:0.55;stroke:#9e9e9e;stroke-width:0.529;stroke-linecap:butt;stroke-linejoin:round;stroke-miterlimit:80;stroke-dasharray:none;stroke-dashoffset:127.298;stroke-opacity:0.55;paint-order:stroke fill markers"
       d="M 8.9342843,26.435536 H 20.25 c 0.554,0 1.003485,0.446011 1,1 L 21.186,37.61007 c -0.0035,0.55399 -0.446,1 -1,1 H 8.9631663 c -0.554,0 -0.9984275,-0.446003 -1,-1 l -0.02888,-10.174534 c -0.00157,-0.553997 0.3776348,-0.875524 0.920876,-0.984175 z"
       sodipodi:nodetypes="ssssssssss" />
    <path
       id="path26"
       style="fill:#000000;fill-opacity:0.55;stroke:#9e9e9e;stroke-width:0.529;stroke-linecap:butt;stroke-linejoin:round;stroke-miterlimit:80;stroke-dasharray:none;stroke-dashoffset:127.298;stroke-opacity:0.55;paint-order:stroke fill markers"
       d="m 23.221784,26.435536 h 10.922464 c 0.554,0 0.982082,0.44629 1,1 L 35.4735,37.61007 c 0.01792,0.553711 -0.446,1 -1,1 H 23.250666 c -0.554,0 -0.998428,-0.446003 -1,-1 l -0.02888,-10.174534 c -0.0016,-0.553997 0.358964,-1 0.912964,-1 z"
       sodipodi:nodetypes="ssssssssss" />
    <path
       id="path29"
       style="fill:#000000;fill-opacity:0.55;stroke:#9e9e9e;stroke-width:0.529;stroke-linecap:butt;stroke-linejoin:round;stroke-miterlimit:80;stroke-dasharray:none;stroke-dashoffset:127.298;stroke-opacity:0.55;paint-order:stroke fill markers"
       d="M 8.9342843,6.8563681 H 20.25 c 0.554,0 1.005479,0.4460271 1,0.9999997 l -0.064,6.4703682 c -0.0055,0.553974 -0.446,1 -1,1 H 8.9631663 c -0.554,0 -0.9975273,-0.446006 -1,-1 L 7.9342863,7.8563678 C 7.9318136,7.3023744 8.3119211,6.9808441 8.8551623,6.8721931 Z"
       sodipodi:nodetypes="ssssssssss" />
    <path
       id="path30"
       style="fill:#000000;fill-opacity:0.55;stroke:#9e9e9e;stroke-width:0.529;stroke-linecap:butt;stroke-linejoin:round;stroke-miterlimit:80;stroke-dasharray:none;stroke-dashoffset:127.298;stroke-opacity:0.55;paint-order:stroke fill markers"
       d="m 30.100952,6.8563681 h 11.315716 c 0.554,0 1.005479,0.4460271 1,0.9999997 l -0.064,6.4703682 c -0.0055,0.553974 -0.446,1 -1,1 H 30.129834 c -0.554,0 -0.997527,-0.446006 -1,-1 l -0.02888,-6.4703682 c -0.0025,-0.5539934 0.377635,-0.8755237 0.920876,-0.9841747 z"
       sodipodi:nodetypes="ssssssssss" />
    <path
       id="path31"
       style="fill:#000000;fill-opacity:0.55;stroke:#9e9e9e;stroke-width:0.529;stroke-linecap:butt;stroke-linejoin:round;stroke-miterlimit:80;stroke-dasharray:none;stroke-dashoffset:127.298;stroke-opacity:0.55;paint-order:stroke fill markers"
       d="m 44.917619,6.8563681 h 11.315716 c 0.554,0 1.005479,0.4460271 1,0.9999997 l -0.064,6.4703682 c -0.0055,0.553974 -0.446,1 -1,1 H 44.946501 c -0.554,0 -0.997527,-0.446006 -1,-1 l -0.02888,-6.4703682 c -0.0025,-0.5539934 0.377635,-0.8755237 0.920876,-0.9841747 z"
       sodipodi:nodetypes="ssssssssss" />
    <path
       id="path32"
       style="fill:#000000;fill-opacity:0.55;stroke:#9e9e9e;stroke-width:0.529;stroke-linecap:butt;stroke-linejoin:round;stroke-miterlimit:80;stroke-dasharray:none;stroke-dashoffset:127.298;stroke-opacity:0.55;paint-order:stroke fill markers"
       d="m 59.205119,6.8563681 h 11.315716 c 0.554,0 1.005479,0.4460271 1,0.9999997 l -0.064,6.4703682 c -0.0055,0.553974 -0.446,1 -1,1 H 59.234001 c -0.554,0 -0.997527,-0.446006 -1,-1 l -0.02888,-6.4703682 c -0.0025,-0.5539934 0.377635,-0.8755237 0.920876,-0.9841747 z"
       sodipodi:nodetypes="ssssssssss" />
    <path
       id="path33"
       style="fill:#ff0e0e;fill-opacity:1;stroke:#090a0a;stroke-width:0.529;stroke-linecap:butt;stroke-linejoin:round;stroke-miterlimit:80;stroke-dasharray:none;stroke-dashoffset:127.298;stroke-opacity:1;paint-order:stroke fill markers"
       d="M 8.9342843,6.8563681 H 20.25 c 0.554,0 1.005479,0.4460271 1,0.9999997 l -0.064,6.4703682 c -0.0055,0.553974 -0.446,1 -1,1 H 8.9631663 c -0.554,0 -0.9975273,-0.446006 -1,-1 L 7.9342863,7.8563678 C 7.9318136,7.3023744 8.3119211,6.9808441 8.8551623,6.8721931 Z"
       sodipodi:nodetypes="ssssssssss" />
    <path
       style="font-size:6.73807px;fill:#ffffff;fill-opacity:0.741641;stroke-width:1.12266;stroke-linejoin:bevel;stroke-miterlimit:80;stroke-dashoffset:127.298;paint-order:markers stroke fill"
       d="m 31.89668,72.980855 c -0.113652,0.03071 -0.238734,0.05593 -0.375246,0.07567 -0.13432,0.01974 -0.255218,0.02961 -0.362693,0.02961 -0.375069,0 -0.668745,-0.100895 -0.881029,-0.302686 -0.212285,-0.201791 -0.337264,-0.525315 -0.374937,-0.970572 l -0.165623,-1.854616 h -0.417839 l -0.04399,-0.519832 h 0.417839 l -0.08935,-1.056112 h 0.618534 l 0.08936,1.056114 h 1.276547 l 0.04398,0.519832 h -1.276545 l 0.141963,1.57496 c 0.01633,0.193017 0.03353,0.344361 0.05158,0.45403 0.01787,0.107476 0.05711,0.208372 0.117731,0.302687 0.05568,0.08773 0.126956,0.15244 0.213829,0.194114 0.08888,0.03948 0.219962,0.05922 0.393239,0.05922 0.100896,0 0.204972,-0.01426 0.312228,-0.04277 0.107071,-0.03071 0.183899,-0.05593 0.230484,-0.07567 h 0.0329 z"
       id="path38"
       sodipodi:nodetypes="ccsssccccccccccccccscccc" />
    <path
       style="font-size:6.73807px;fill:#ffffff;fill-opacity:0.741641;stroke-width:1.12266;stroke-linejoin:bevel;stroke-miterlimit:80;stroke-dashoffset:127.298;paint-order:markers stroke fill"
       d="m 28.650702,68.592882 h -0.0329 c -0.07025,-0.01974 -0.161345,-0.03948 -0.273272,-0.05922 -0.112179,-0.02193 -0.209943,-0.0329 -0.293291,-0.0329 -0.2654,0 -0.451641,0.05922 -0.558725,0.177664 -0.105142,0.11625 -0.140158,0.327913 -0.105011,0.634984 l 0.01431,0.125023 h 1.115334 l 0.05948,0.519832 h -1.095596 l 0.361275,3.055493 h -0.618534 l -0.361275,-3.055493 h -0.417839 l -0.05948,-0.519832 h 0.417839 L 26.789087,69.3167 c -0.04995,-0.436481 0.02036,-0.770973 0.210903,-1.003472 0.190292,-0.234692 0.490519,-0.352038 0.900682,-0.352038 0.138183,0 0.262862,0.0066 0.374036,0.01974 0.113368,0.01316 0.217118,0.02851 0.311248,0.04606 z"
       id="path37"
       sodipodi:nodetypes="cccscsccccccccccscsccc" />
    <path
       style="font-size:6.73807px;fill:#ffffff;fill-opacity:0.741641;stroke-width:1.12266;stroke-linejoin:bevel;stroke-miterlimit:80;stroke-dashoffset:127.298;paint-order:markers stroke fill"
       d="m 25.804009,73.013756 h -0.618534 l -0.291937,-3.575325 h 0.618534 z"
       id="path36"
       sodipodi:nodetypes="ccccc" />
    <path
       style="font-size:6.73807px;fill:#ffffff;fill-opacity:0.741641;stroke-width:1.12266;stroke-linejoin:bevel;stroke-miterlimit:80;stroke-dashoffset:127.298;paint-order:markers stroke fill"
       d="m 25.467213,68.823187 h -0.697495 l -0.07377,-0.641564 h 0.697495 z"
       id="path35"
       sodipodi:nodetypes="ccccc" />
    <path
       style="font-size:6.73807px;fill:#ffffff;fill-opacity:0.741641;stroke-width:1.12266;stroke-linejoin:bevel;stroke-miterlimit:80;stroke-dashoffset:127.298;paint-order:markers stroke fill"
       d="m 24.310227,73.013756 h -0.618534 l -0.126015,-1.992925 c -0.01017,-0.16889 -0.02982,-0.326688 -0.05841,-0.473645 -0.02872,-0.14915 -0.07191,-0.265399 -0.129576,-0.348748 -0.06038,-0.09212 -0.143437,-0.160117 -0.249169,-0.203985 -0.105863,-0.04606 -0.241046,-0.06909 -0.40555,-0.06909 -0.168891,0 -0.342949,0.04167 -0.522173,0.125023 -0.179225,0.08335 -0.349386,0.189727 -0.510482,0.319137 l 0.165515,2.644234 H 21.2373 L 20.928731,67.99409 h 0.618534 l 0.111551,1.852311 c 0.183374,-0.160116 0.375442,-0.285139 0.576205,-0.375068 0.200762,-0.08993 0.409716,-0.134893 0.626861,-0.134893 0.397002,0 0.706887,0.11954 0.929656,0.358618 0.222769,0.239079 0.346464,0.583516 0.374772,1.033083 z"
       id="path34"
       sodipodi:nodetypes="ccccccssccccccssssc" />
    <path
       style="font-size:6.73807px;fill:#ffffff;fill-opacity:0.741641;stroke-width:1.12266;stroke-linejoin:bevel;stroke-miterlimit:80;stroke-dashoffset:127.298;paint-order:markers stroke fill"
       d="m 20.315431,71.615475 c 0,0.190824 -0.04496,0.379455 -0.134893,0.565892 -0.08773,0.186437 -0.211662,0.344361 -0.371779,0.473771 -0.175471,0.140377 -0.380552,0.250046 -0.615243,0.329007 -0.232499,0.07896 -0.513252,0.118443 -0.842259,0.118443 -0.353135,0 -0.671175,-0.0329 -0.954121,-0.0987 -0.280753,-0.0658 -0.56699,-0.163406 -0.858709,-0.292817 v -0.815938 h 0.04606 c 0.247852,0.206178 0.534088,0.365198 0.858709,0.477061 0.324621,0.111862 0.629501,0.167793 0.91464,0.167793 0.403583,0 0.717236,-0.07567 0.940961,-0.227015 0.225919,-0.151343 0.338878,-0.353134 0.338878,-0.605373 0,-0.217145 -0.05374,-0.2777 -0.161214,-0.380789 -0.105283,-0.103089 -0.266496,-0.183147 -0.483641,-0.240175 -0.164503,-0.04387 -0.343264,-0.08006 -0.536282,-0.108573 -0.190824,-0.02851 -0.393981,-0.06458 -0.608932,-0.108447 -0.43429,-0.09212 -0.756718,-0.248949 -0.967282,-0.470481 -0.208372,-0.223724 -0.312557,-0.514347 -0.312557,-0.871869 0,-0.410162 0.173277,-0.745749 0.519832,-1.006762 0.346554,-0.263205 0.786327,-0.394808 1.319319,-0.394808 0.344361,0 0.660208,0.0329 0.947541,0.0987 0.287333,0.0658 0.541765,0.146955 0.763297,0.243465 v 0.769879 h -0.04606 c -0.186438,-0.157925 -0.432096,-0.288431 -0.736976,-0.39152 -0.302687,-0.105282 -0.613051,-0.157923 -0.931091,-0.157923 -0.348748,0 -0.629501,0.07238 -0.842259,0.217144 -0.210565,0.144764 -0.315847,0.331202 -0.315847,0.559313 0,0.203985 0.05264,0.364101 0.157924,0.480351 0.105282,0.116249 0.290622,0.205081 0.556022,0.266496 0.140376,0.03071 0.339974,0.06799 0.598794,0.111863 0.258818,0.04387 0.478156,0.08883 0.658014,0.134893 0.364101,0.09651 0.638274,0.242368 0.822518,0.437579 0.184244,0.195211 0.276636,0.3686 0.276636,0.719541 z"
       id="text33"
       sodipodi:nodetypes="scccsccccsscscccccscssccccscsscscsss" />
    <text
       xml:space="preserve"
       style="font-size:8.24196px;fill:#ffffff;fill-opacity:0.741641;stroke:none;stroke-width:1.37323;stroke-linecap:butt;stroke-linejoin:bevel;stroke-miterlimit:80;stroke-dasharray:none;stroke-dashoffset:127.298;stroke-opacity:1;paint-order:markers stroke fill"
       x="38.24379"
       y="60.570839"
       id="text38"
       transform="skewX(-0.99381476)"><tspan
         sodipodi:role="line"
         id="tspan38"
         style="stroke-width:1.37323"
         x="38.24379"
         y="60.570839">A</tspan></text>
    <text
       xml:space="preserve"
       style="font-size:8.15921px;fill:#ffffff;fill-opacity:0.741641;stroke:none;stroke-width:1.35944;stroke-linecap:butt;stroke-linejoin:bevel;stroke-miterlimit:80;stroke-dasharray:none;stroke-dashoffset:127.298;stroke-opacity:1;paint-order:markers stroke fill"
       x="47.884285"
       y="46.900089"
       id="text39"
       transform="skewX(3.5451237)"><tspan
         sodipodi:role="line"
         id="tspan39"
         style="stroke-width:1.35944"
         x="47.884285"
         y="46.900089">W</tspan></text>
    <text
       xml:space="preserve"
       style="font-size:8.02461px;fill:#ffffff;fill-opacity:0.741641;stroke:none;stroke-width:1.33701;stroke-linecap:butt;stroke-linejoin:bevel;stroke-miterlimit:80;stroke-dasharray:none;stroke-dashoffset:127.298;stroke-opacity:1;paint-order:markers stroke fill"
       x="46.670406"
       y="61.999691"
       id="text40"
       transform="matrix(1.026158,0,0.09052326,0.9745088,0,0)"><tspan
         sodipodi:role="line"
         id="tspan40"
         style="stroke-width:1.33701"
         x="46.670406"
         y="61.999691">S</tspan></text>
    <text
       xml:space="preserve"
       style="font-size:8.5477px;fill:#ffffff;fill-opacity:0.741641;stroke:none;stroke-width:1.42417;stroke-linecap:butt;stroke-linejoin:bevel;stroke-miterlimit:80;stroke-dasharray:none;stroke-dashoffset:127.298;stroke-opacity:1;paint-order:markers stroke fill"
       x="59.074257"
       y="63.053619"
       id="text41"
       transform="matrix(1.0411604,0,0.1285812,0.9604668,0,0)"><tspan
         sodipodi:role="line"
         id="tspan41"
         style="stroke-width:1.42417"
         x="59.074257"
         y="63.053619">D</tspan></text>
    <text
       xml:space="preserve"
       style="font-size:5.1596px;fill:#ffffff;fill-opacity:1;stroke:#000000;stroke-width:0.26458333;stroke-linecap:butt;stroke-linejoin:bevel;stroke-miterlimit:80;stroke-dasharray:none;stroke-dashoffset:127.298;stroke-opacity:1;paint-order:markers stroke fill"
       x="10.068179"
       y="12.829049"
       id="text42"><tspan
         sodipodi:role="line"
         id="tspan42"
         style="fill:#ffffff;fill-opacity:1;stroke-width:0.26458333;stroke:#000000;stroke-opacity:1;stroke-dasharray:none"
         x="10.068179"
         y="12.829049">Esc</tspan></text>
  </g>
</svg>
