<?xml version="1.0" encoding="UTF-8" standalone="no"?>
<svg
   height="128"
   width="128"
   version="1.1"
   id="svg7"
   sodipodi:docname="icon.svg"
   inkscape:version="1.3.2 (091e20e, 2023-11-25, custom)"
   xmlns:inkscape="http://www.inkscape.org/namespaces/inkscape"
   xmlns:sodipodi="http://sodipodi.sourceforge.net/DTD/sodipodi-0.dtd"
   xmlns="http://www.w3.org/2000/svg"
   xmlns:svg="http://www.w3.org/2000/svg">
  <defs
     id="defs7" />
  <sodipodi:namedview
     id="namedview7"
     pagecolor="#505050"
     bordercolor="#ffffff"
     borderopacity="1"
     inkscape:showpageshadow="0"
     inkscape:pageopacity="0"
     inkscape:pagecheckerboard="1"
     inkscape:deskcolor="#505050"
     inkscape:zoom="5.7890625"
     inkscape:cx="64"
     inkscape:cy="64"
     inkscape:window-width="1680"
     inkscape:window-height="979"
     inkscape:window-x="-8"
     inkscape:window-y="-4"
     inkscape:window-maximized="1"
     inkscape:current-layer="svg7" />
  <rect
     x="2"
     y="2"
     width="124"
     height="124"
     rx="14"
     fill="#363d52"
     stroke="#212532"
     stroke-width="4"
     id="rect1"
     style="fill:#9bb14d;fill-opacity:1" />
  <path
     id="path8"
     style="fill:#53b14d;fill-opacity:1;stroke:#0b2f15"
     transform="translate(20.556005,15.20108)"
     d="M 49.748988,79.287449 32.84321,78.862128 21.499546,59.445101 17.273953,40.939273 -5.1023446,24.378975 22.77892,24.781599 l 8.314195,-9.235039 12.587289,-4.238646 12.89832,5.943343 6.471206,7.795976 28.767662,-1.922832 -25.635651,19.635162 z"
     sodipodi:nodetypes="ccccccccccccc" />
  <path
     style="fill:#ffffff;fill-opacity:1;stroke:#0b2f15;stroke-opacity:1"
     id="path9"
     sodipodi:type="arc"
     sodipodi:cx="52.167343"
     sodipodi:cy="49.403511"
     sodipodi:rx="5.7004046"
     sodipodi:ry="5.5276651"
     sodipodi:start="0"
     sodipodi:end="3.1415927"
     sodipodi:arc-type="slice"
     d="m 57.867748,49.403511 a 5.7004046,5.5276651 0 0 1 -2.850203,4.787099 5.7004046,5.5276651 0 0 1 -5.700404,-10e-7 5.7004046,5.5276651 0 0 1 -2.850203,-4.787098 h 5.700405 z" />
  <path
     style="fill:#def0dd;fill-opacity:1;stroke:#0b2f15;stroke-opacity:1"
     id="path9-0"
     sodipodi:type="arc"
     sodipodi:cx="71.927795"
     sodipodi:cy="49.736168"
     sodipodi:rx="5.7004046"
     sodipodi:ry="5.5276651"
     sodipodi:start="0"
     sodipodi:end="3.1415927"
     sodipodi:arc-type="slice"
     d="m 77.6282,49.736168 a 5.7004046,5.5276651 0 0 1 -2.850202,4.787098 5.7004046,5.5276651 0 0 1 -5.700405,0 5.7004046,5.5276651 0 0 1 -2.850202,-4.787098 h 5.700404 z" />
  <path
     style="fill:#ffffff;fill-opacity:1;stroke:#0b2f15;stroke-opacity:1"
     d="m 49.748988,72.550607 c 19.001349,9.155196 19.001349,9.155196 19.001349,9.155196"
     id="path10" />
  <path
     style="fill:#3ca643;fill-opacity:1;stroke:#0b2f15;stroke-width:1.3812;stroke-opacity:1"
     d="M 66.217289,49.625429 C 41.054393,68.531097 60.854704,69.635077 60.854704,69.635077"
     id="path11" />
</svg>
