<?xml version="1.0" encoding="UTF-8" standalone="no"?>
<!-- Created with Inkscape (http://www.inkscape.org/) -->

<svg
   width="108.35512"
   height="105.98526"
   viewBox="0 0 28.668957 28.041932"
   version="1.1"
   id="svg1"
   sodipodi:docname="anti-air-option.svg"
   inkscape:version="1.3.2 (091e20e, 2023-11-25, custom)"
   xml:space="preserve"
   xmlns:inkscape="http://www.inkscape.org/namespaces/inkscape"
   xmlns:sodipodi="http://sodipodi.sourceforge.net/DTD/sodipodi-0.dtd"
   xmlns="http://www.w3.org/2000/svg"
   xmlns:svg="http://www.w3.org/2000/svg"><sodipodi:namedview
     id="namedview1"
     pagecolor="#505050"
     bordercolor="#ffffff"
     borderopacity="1"
     inkscape:showpageshadow="0"
     inkscape:pageopacity="0"
     inkscape:pagecheckerboard="1"
     inkscape:deskcolor="#505050"
     inkscape:document-units="mm"
     showguides="true"
     inkscape:zoom="7.4063968"
     inkscape:cx="50.901945"
     inkscape:cy="53.939859"
     inkscape:window-width="1920"
     inkscape:window-height="1094"
     inkscape:window-x="-11"
     inkscape:window-y="-11"
     inkscape:window-maximized="1"
     inkscape:current-layer="layer1"
     inkscape:lockguides="true" /><defs
     id="defs1" /><g
     inkscape:label="Layer 1"
     inkscape:groupmode="layer"
     id="layer1"
     transform="translate(-1.677413,0.19923592)"><ellipse
       style="fill:#141414;fill-opacity:0.513043;stroke:none;stroke-width:6.26679;stroke-linejoin:bevel;stroke-dasharray:none;stroke-opacity:1"
       id="path4"
       cx="16.011892"
       cy="13.821731"
       rx="14.334479"
       ry="14.020967" /><path
       id="path14-34"
       style="fill:#000000;fill-opacity:0.605797;stroke:none;stroke-width:0.513348;stroke-linejoin:bevel"
       inkscape:transform-center-x="0.15905103"
       inkscape:transform-center-y="-0.13149262"
       d="M 17.212907,8.6414898 10.898375,16.006101 9.9164266,15.164163 16.230959,7.7995517 14.444177,7.6807798 20.890503,3.3259421 17.457458,10.625673 Z"
       sodipodi:nodetypes="cccccccc" /><ellipse
       style="fill:#1bb8d3;fill-opacity:1;stroke:#f8f8f8;stroke-width:1.36473;stroke-linejoin:bevel;stroke-dasharray:none;stroke-opacity:1"
       id="path2"
       cx="15.946444"
       cy="13.828356"
       rx="13.27989"
       ry="12.958072" /><path
       id="rect8-2"
       style="fill:none;fill-opacity:1;stroke:#0b6481;stroke-width:0.264583;stroke-linejoin:bevel;stroke-dasharray:none;stroke-opacity:1"
       d="m 33.967191,9.9205173 5.426693,1.1267167 -0.0941,8.717443 -5.301222,0.871744 z"
       sodipodi:nodetypes="ccccc" /><rect
       style="opacity:1;fill:#1bb8d3;fill-opacity:1;stroke:#292929;stroke-width:0;stroke-linejoin:miter;stroke-dasharray:none;stroke-opacity:1"
       id="rect10"
       width="9.78545"
       height="2.7367837"
       x="9.7389364"
       y="6.8039541" /><path
       id="path5"
       style="opacity:1;fill:#dab574;fill-opacity:1;stroke:none;stroke-width:0.264583;stroke-linejoin:round;stroke-miterlimit:80;stroke-dasharray:none;stroke-dashoffset:127.298;stroke-opacity:1;paint-order:stroke markers fill"
       d="m 15.606584,12.601756 c -0.4317,-0.06069 -2.371906,0.192553 -4.083265,0.703961 -1.808967,0.540575 -2.3663838,0.603522 -3.043527,0.980993 -0.424596,0.236689 -1.0579004,0.895047 -1.1858937,1.066532 0.160094,-0.01754 0.7854568,-0.131681 1.3040432,-0.181726 0.4309067,-0.04158 0.7724516,-0.01937 0.8554611,-0.03992 0.1171762,-0.02901 0.3500109,-0.263953 0.8498174,-0.464737 0.327528,-0.131576 0.928731,-0.348291 2.316415,-0.64813 0.2944,-0.06361 1.804085,0.445488 2.126877,0.410252 2.960397,-0.323154 0.887805,-1.823327 0.860072,-1.827225 z"
       sodipodi:nodetypes="ssscssssss" /><path
       id="path3"
       style="opacity:1;fill:#dab574;fill-opacity:1;stroke:none;stroke-width:0.264583;stroke-linejoin:round;stroke-miterlimit:80;stroke-dasharray:none;stroke-dashoffset:127.298;stroke-opacity:1;paint-order:stroke markers fill"
       d="m 12.148237,11.200855 c 2.537548,-1.104573 4.134976,1.356143 2.152175,1.478828 -0.423157,0.02618 -5.0464711,1.034077 -5.5880348,1.262938 -0.5763778,0.243574 -1.3009593,0.706083 -2.009374,1.548225 -0.017048,-0.731996 0.062788,-1.52092 0.7150056,-2.024653 1.6985886,-1.311883 1.8629422,-1.017231 2.5830932,-1.330707 z"
       sodipodi:nodetypes="ssscsss"
       inkscape:transform-center-x="4.0040628"
       inkscape:transform-center-y="-0.20279169" /><path
       id="path1"
       style="opacity:1;fill:#ffffff;fill-opacity:1;stroke:none;stroke-width:0.264583;stroke-linejoin:round;stroke-miterlimit:80;stroke-dasharray:none;stroke-dashoffset:127.298;stroke-opacity:1;paint-order:stroke markers fill"
       d="m 22.909704,14.93527 c -0.365541,4.660653 2.901465,7.762863 2.285627,7.733746 -0.90947,-0.043 -1.348704,2.0985 -5.299065,3.2527 -2.570646,0.751081 -6.053564,0.47957 -7.492681,-0.02564 -1.107509,-0.388796 2.978372,-10.586639 2.099119,-11.191187 -0.596372,-0.410047 -1.286756,-0.609089 -1.60686,-0.615855 0.0184,-0.638744 -0.148593,-0.848938 -0.07716,-1.099206 0.03572,-0.08215 1.25144,-0.487133 3.155064,-0.41769 0,0 -2.113958,0.153407 -3.14519,0.265595 -0.17079,-0.223756 -0.800361,-1.263714 -1.373807,-1.279654 -0.191583,-0.984408 2.33424,-3.0024647 3.058328,-3.3170327 1.41973,-0.616779 3.747589,-0.5412859 4.686961,-0.4818742 1.362161,0.086151 4.074858,2.5199819 3.911756,4.5995369 z"
       sodipodi:nodetypes="ssssscccccssss" /><ellipse
       style="opacity:1;fill:#8a8a8a;fill-opacity:1;stroke:none;stroke-width:0;stroke-linejoin:bevel;stroke-dasharray:none"
       id="path9-5"
       cx="17.409374"
       cy="8.3748312"
       rx="0.95542753"
       ry="0.55891025"
       transform="rotate(7.5507441)" /><path
       id="rect1"
       style="opacity:1;fill:#868686;stroke-width:0.264583;stroke-linejoin:round;stroke-miterlimit:80;stroke-dashoffset:127.298;paint-order:stroke markers fill"
       d="m 20.825275,21.199213 c 0.44918,-1.362039 2.107694,-4.858412 2.107694,-4.858412 0,0 -0.02047,1.548633 0.844521,3.323211 0.472582,0.969527 1.370344,2.642634 1.370344,2.642634 0,0 -1.176249,1.265588 -2.491179,1.981527 -1.001607,0.545344 -2.188616,1.197875 -2.188616,1.197875 0,0 -0.210353,-2.565743 0.357236,-4.286835 z"
       sodipodi:nodetypes="scscscs" /></g></svg>
