<?xml version="1.0" standalone="no"?>
<!DOCTYPE svg PUBLIC "-//W3C//DTD SVG 20010904//EN"
 "http://www.w3.org/TR/2001/REC-SVG-20010904/DTD/svg10.dtd">
<svg version="1.0" xmlns="http://www.w3.org/2000/svg"
 width="1280.000000pt" height="1081.000000pt" viewBox="0 0 1280.000000 1081.000000"
 preserveAspectRatio="xMidYMid meet">
<metadata>
Created by potrace 1.15, written by Peter Selinger 2001-2017
</metadata>
<g transform="translate(0.000000,1081.000000) scale(0.100000,-0.100000)"
fill="#000000" stroke="none">
<path d="M12394 10676 c-302 -78 -811 -363 -1627 -908 -81 -55 -154 -101 -160
-104 -8 -3 -77 89 -172 226 -99 144 -167 233 -180 236 -19 4 -283 52 -1987
360 l-637 115 -3543 -2457 c-2990 -2074 -3713 -2574 -3736 -2589 -1 -1 539
-782 1201 -1736 661 -954 1472 -2122 1801 -2596 329 -475 602 -863 607 -863 9
0 7241 5010 7267 5034 7 7 115 580 251 1330 l238 1318 -264 380 c-145 210
-265 384 -266 388 -1 4 54 47 123 95 384 271 705 537 990 824 385 387 548 663
485 826 -52 139 -175 176 -391 121z m255 -133 c29 -33 26 -89 -11 -179 -122
-302 -778 -934 -1417 -1366 l-114 -78 -26 38 c-13 20 -111 162 -217 314 l-192
276 232 155 c541 362 872 562 1169 708 327 160 514 203 576 132z m-2541 -1570
c22 -8 20 -13 -92 -238 -63 -127 -125 -258 -139 -292 l-25 -62 31 -19 c60 -36
105 -45 206 -39 113 6 212 31 364 92 61 25 115 45 119 45 14 0 9 -190 -8 -254
-58 -230 -245 -409 -480 -462 -152 -33 -331 0 -469 87 -129 81 -241 239 -276
389 -18 78 -15 222 5 300 58 218 251 406 468 455 67 16 254 14 296 -2z m198
-89 c71 -47 163 -148 203 -223 17 -32 31 -61 31 -64 0 -8 -164 -76 -261 -107
-70 -23 -109 -30 -170 -30 -43 0 -79 2 -79 4 0 2 47 100 105 217 58 118 105
220 105 226 0 19 6 17 66 -23z"/>
</g>
</svg>
