<?xml version="1.0" encoding="UTF-8" standalone="no"?>
<svg
   version="1.1"
   width="159.83366"
   height="75.98228"
   viewBox="0,0,159.83366,75.98228"
   id="svg40"
   sodipodi:docname="title-screen-title.svg"
   inkscape:version="1.3.2 (091e20e, 2023-11-25, custom)"
   xmlns:inkscape="http://www.inkscape.org/namespaces/inkscape"
   xmlns:sodipodi="http://sodipodi.sourceforge.net/DTD/sodipodi-0.dtd"
   xmlns="http://www.w3.org/2000/svg"
   xmlns:svg="http://www.w3.org/2000/svg">
  <sodipodi:namedview
     id="namedview40"
     pagecolor="#505050"
     bordercolor="#ffffff"
     borderopacity="1"
     inkscape:showpageshadow="0"
     inkscape:pageopacity="0"
     inkscape:pagecheckerboard="1"
     inkscape:deskcolor="#505050"
     inkscape:zoom="7.6204222"
     inkscape:cx="79.916832"
     inkscape:cy="37.990021"
     inkscape:window-width="1920"
     inkscape:window-height="1094"
     inkscape:window-x="-11"
     inkscape:window-y="-11"
     inkscape:window-maximized="1"
     inkscape:current-layer="svg40" />
  <defs
     id="defs2">
    <linearGradient
       x1="233.0553"
       y1="190.01675"
       x2="251.48852"
       y2="190.01675"
       gradientTransform="translate(-645.95371,-538.20243) scale(2.7717,2.7717)"
       gradientUnits="userSpaceOnUse"
       id="color-1">
      <stop
         offset="0"
         stop-color="#0aff00"
         id="stop1" />
      <stop
         offset="1"
         stop-color="#ffc200"
         id="stop2" />
    </linearGradient>
  </defs>
  <g
     transform="translate(-160.4856,-142.00886)"
     id="g40">
    <g
       data-paper-data="{&quot;isPaintingLayer&quot;:true}"
       fill-rule="nonzero"
       stroke-linejoin="miter"
       stroke-miterlimit="10"
       stroke-dasharray=""
       stroke-dashoffset="0"
       style="mix-blend-mode: normal"
       id="g39">
      <g
         id="g38">
        <g
           data-paper-data="{&quot;index&quot;:null}"
           fill="#000000"
           stroke="none"
           stroke-width="0"
           id="g15">
          <path
             d="M173.66882,182.57389c-0.16733,-9.11331 2.70453,-27.8762 2.70453,-27.8762l25.98711,13.94779l0.46872,25.52746l-25.44325,15.67188c0,0 -3.54697,-18.0044 -3.71712,-27.27093z"
             stroke-linecap="butt"
             id="path2" />
          <path
             d="M198.49744,175.94654l-23.77063,-2.35848"
             data-paper-data="{&quot;index&quot;:null}"
             stroke-linecap="round"
             id="path3" />
          <path
             d="M198.15488,171.70082l-22.27118,-8.6371"
             data-paper-data="{&quot;index&quot;:null}"
             stroke-linecap="round"
             id="path4" />
          <path
             d="M198.5324,186.60982l-23.66802,3.22956"
             stroke-linecap="round"
             id="path5" />
          <path
             d="M198.34596,190.86527l-21.93909,9.44891"
             stroke-linecap="round"
             id="path6" />
          <path
             d="M196.11248,181.00829c-0.38507,-20.97128 23.7471,-38.4207 53.90072,-38.97437c24.30829,-0.44634 36.21488,5.02193 43.56771,20.16227c1.76813,3.64076 -32.31405,14.19286 -32.23941,18.2582c0.06552,3.56844 34.1102,14.55289 32.84711,17.8515c-6.15999,16.08689 -17.75827,19.21229 -42.78096,19.67175c-30.15362,0.55367 -54.9101,-15.99807 -55.29517,-36.96936z"
             stroke-linecap="butt"
             id="path7" />
          <path
             d="M259.85821,181.4758c3.6243,-1.30317 5.58004,-0.77918 5.58004,-0.77918c0,0 0.19546,-0.00469 4.92013,-0.05744c12.42233,-0.1387 27.42103,11.37846 25.63759,17.12665c-3.22534,10.39546 -45.72777,-12.84178 -36.13772,-16.29004z"
             stroke-linecap="butt"
             id="path8" />
          <path
             d="M261.74233,180.93246c-9.71018,-3.09387 31.25517,-28.50754 34.85996,-18.23748c1.99329,5.67882 -12.57249,17.73882 -24.99155,18.05628c-4.72341,0.12074 -4.91892,0.12325 -4.91892,0.12325c0,0 -1.2798,1.22719 -4.9495,0.05795z"
             data-paper-data="{&quot;index&quot;:null}"
             stroke-linecap="butt"
             id="path9" />
          <path
             d="M207.31911,157.3837c0,0 4.51108,-4.23159 6.33702,-4.85397c0.33274,-0.11343 1.82645,-1.34846 3.305,-2.18287c2.61965,-1.47834 5.92852,-2.75127 5.92852,-2.75127l56.24295,-0.85208c0,0 3.80442,2.17282 5.5135,3.62269c1.83273,1.55476 5.13794,5.41315 5.13794,5.41315l-82.46496,1.60438z"
             stroke-linecap="butt"
             id="path10" />
          <path
             d="M196.06674,181.81917c-0.01758,-0.95739 0.35077,-4.77104 0.35077,-4.77104l72.04878,-1.32293l0.16945,9.22831l-71.86686,1.40978c0,0 -0.67539,-3.08753 -0.70213,-4.54412z"
             stroke-linecap="butt"
             id="path11" />
          <path
             d="M197.58401,171.80457c0,0 1.23717,-3.2337 2.06747,-4.79858c0.81697,-1.53975 2.875,-4.51661 2.875,-4.51661l90.21294,-1.7536c0,0 0.22565,0.41312 0.62694,1.20682c0.55964,1.1069 1.00849,2.80079 1.02552,3.7278c0.02709,1.47554 -1.63057,4.2964 -1.63057,4.2964l-95.17727,1.8378z"
             stroke-linecap="butt"
             id="path12" />
          <path
             d="M200.58124,195.52979c-0.29962,-0.52554 -0.7403,-1.24355 -1.10841,-1.96195c-0.7061,-1.378 -1.31183,-2.75426 -1.31183,-2.75426l91.34791,-1.5871c0,0 3.66565,2.84948 3.93932,4.19413c0.18483,0.90809 0.07249,2.62816 -0.43802,3.75467c-0.36606,0.80779 -0.57312,1.22886 -0.57312,1.22886l-88.62097,1.53007c0,0 -2.37455,-2.89546 -3.23482,-4.40442z"
             data-paper-data="{&quot;index&quot;:null}"
             stroke-linecap="butt"
             id="path13" />
          <path
             d="M217.2806,210.19528c-1.84755,-0.55493 -7.76259,-5.03936 -7.76259,-5.03936l82.11299,-1.41753c0,0 -2.71723,3.96897 -4.49165,5.58997c-1.737,1.86852 -5.3768,3.82265 -5.3768,3.82265l-55.17372,1.01602c0,0 -3.35008,-0.97294 -6.02227,-2.35415c-1.50819,-0.77957 -2.94923,-1.51646 -3.28594,-1.6176z"
             data-paper-data="{&quot;index&quot;:null}"
             stroke-linecap="butt"
             id="path14" />
          <path
             d="M174.49819,181.99444l23.87775,-0.67703"
             stroke-linecap="round"
             id="path15" />
        </g>
        <text
           transform="translate(160.78418,180.74284) rotate(10.25273) scale(0.52365,0.60523) skewX(11.4564)"
           font-size="40"
           xml:space="preserve"
           fill="#0aff00"
           fill-rule="nonzero"
           stroke="none"
           stroke-width="1"
           stroke-linecap="butt"
           stroke-linejoin="miter"
           stroke-miterlimit="10"
           stroke-dasharray=""
           stroke-dashoffset="0"
           font-family="Sans Serif"
           font-weight="normal"
           text-anchor="start"
           style="mix-blend-mode: normal"
           id="text15"><tspan
             x="0"
             dy="0"
             id="tspan15">goblins</tspan></text>
        <g
           data-paper-data="{&quot;index&quot;:null}"
           stroke="none"
           stroke-width="1"
           stroke-linecap="butt"
           id="g17">
          <path
             d="M182.92816,175.07574c0.26814,-1.13695 1.71874,-1.52299 2.61959,-1.81422c0.90085,-0.29123 1.51554,-1.12564 1.97329,-1.16306c0.45776,-0.03743 -0.47189,0.67769 -0.94603,1.60485c-0.47415,0.92717 -0.98744,2.50268 -2.80154,2.61928c-0.78231,0.05943 -0.95801,-0.74056 -0.8453,-1.24686z"
             fill="#0aff00"
             id="path16" />
          <path
             d="M183.44388,175.79345c0,0 0.07507,-0.02427 0.16708,-0.08165c0.11703,-0.06547 0.25099,-0.16406 0.3938,-0.32078c0.05889,-0.07432 0.1428,-0.15672 0.18552,-0.28109c0.03387,-0.06622 0.0508,-0.09934 0.08467,-0.16556l0.02578,-0.09125l0.0508,-0.09934c0.00884,-0.05814 0.06774,-0.13245 0.10161,-0.19868c0.03387,-0.06622 0.10085,-0.11552 0.13472,-0.18174c0.10085,-0.11552 0.20979,-0.20602 0.31873,-0.29651c0.2429,-0.18908 0.47696,-0.32002 0.70292,-0.47599c0.23406,-0.13094 0.46811,-0.26189 0.6271,-0.36856c0.18401,-0.11476 0.34299,-0.22144 0.435,-0.27882c0.11703,-0.06547 0.15899,-0.10667 0.15899,-0.10667c0,0 -0.04196,0.0412 -0.1509,0.1317c-0.08391,0.08241 -0.23481,0.2141 -0.41882,0.32887c-0.17592,0.13979 -0.38495,0.26264 -0.61091,0.41861c-0.22596,0.15597 -0.48505,0.295 -0.70292,0.47599c-0.10894,0.0905 -0.21788,0.18099 -0.32682,0.27149c-0.10085,0.11552 -0.15974,0.18983 -0.22748,0.32229c-0.03387,0.06622 -0.04271,0.12437 -0.07658,0.19059c-0.03387,0.06622 -0.06774,0.13245 -0.08467,0.16556c-0.07583,0.10743 -0.15165,0.21486 -0.24365,0.27224c-0.16783,0.16481 -0.34299,0.22144 -0.46002,0.28691c-0.00884,0.05814 -0.08391,0.08241 -0.08391,0.08241z"
             fill="#00c74f"
             id="path17" />
        </g>
        <text
           transform="translate(233.05364,194.17805) scale(0.36079,0.36079)"
           font-size="40"
           xml:space="preserve"
           fill="url(#color-1)"
           fill-rule="nonzero"
           stroke="none"
           stroke-width="1"
           stroke-linecap="butt"
           stroke-linejoin="miter"
           stroke-miterlimit="10"
           stroke-dasharray=""
           stroke-dashoffset="0"
           font-family="Sans Serif"
           font-weight="normal"
           text-anchor="start"
           style="mix-blend-mode: normal"
           id="text17"><tspan
             x="0"
             dy="0"
             id="tspan17">vs.</tspan></text>
        <g
           stroke="none"
           stroke-width="1"
           stroke-linecap="butt"
           id="g19">
          <path
             d="M175.42272,176.2254c-2.18886,-0.14069 -2.8082,-2.04168 -3.3803,-3.16039c-0.5721,-1.1187 -1.69379,-1.98155 -1.14147,-1.93639c0.55232,0.04516 1.294,1.05194 2.38094,1.40333c1.08695,0.35139 2.83723,0.81717 3.16075,2.189c0.136,0.61089 -0.07601,1.57615 -1.01993,1.50444z"
             fill="#0aff00"
             id="path18" />
          <path
             d="M175.71914,175.48751c-0.1412,-0.079 -0.35255,-0.14732 -0.55505,-0.34618c-0.11101,-0.06924 -0.2025,-0.19886 -0.29399,-0.32848c-0.02043,-0.03995 -0.0613,-0.11986 -0.10216,-0.19977c-0.04086,-0.07991 -0.05154,-0.15005 -0.0924,-0.22996c-0.08173,-0.15981 -0.15279,-0.24948 -0.27447,-0.38887c-0.13144,-0.10919 -0.26289,-0.21838 -0.39433,-0.32757c-0.26289,-0.21838 -0.57549,-0.38613 -0.84813,-0.57432c-0.27265,-0.18819 -0.52486,-0.33642 -0.73712,-0.50508c-0.22202,-0.13847 -0.40409,-0.29738 -0.50534,-0.39681c-0.13144,-0.10919 -0.18207,-0.1589 -0.18207,-0.1589c0,0 0.05063,0.04971 0.19183,0.12871c0.11101,0.06924 0.30284,0.19795 0.52486,0.33642c0.19183,0.12871 0.47424,0.28671 0.75664,0.4447c0.27265,0.18819 0.55505,0.34618 0.84813,0.57432c0.13144,0.10919 0.26289,0.21838 0.38457,0.35776c0.04086,0.07991 0.12168,0.13938 0.16255,0.21929c0.04086,0.07991 0.11192,0.16958 0.12259,0.23972l0.0613,0.11986l0.0311,0.1101c0.04086,0.07991 0.0613,0.11986 0.10216,0.19977c0.05154,0.15005 0.15279,0.24948 0.22384,0.33915c0.17231,0.1891 0.33394,0.30805 0.47515,0.38704c0.11101,0.06924 0.20159,0.09852 0.20159,0.09852c0,0 -0.09058,-0.02928 -0.10125,-0.09943z"
             fill="#00c74f"
             id="path19" />
        </g>
        <path
           d="M272.66621,155.82012c2.69795,0 4.88506,2.31576 4.88506,5.17241c0,2.85664 -2.18712,5.17241 -4.88506,5.17241c-2.69795,0 -4.88506,-2.31576 -4.88506,-5.17241c0,-2.85664 2.18712,-5.17241 4.88506,-5.17241z"
           fill="#ff0000"
           stroke="none"
           stroke-width="0"
           stroke-linecap="butt"
           id="path20" />
        <text
           transform="translate(251.23956,194.99052) rotate(-13.46637) scale(0.50876,0.5507) skewX(-14.30416)"
           font-size="40"
           xml:space="preserve"
           fill="#edc600"
           fill-rule="nonzero"
           stroke="none"
           stroke-width="1"
           stroke-linecap="butt"
           stroke-linejoin="miter"
           stroke-miterlimit="10"
           stroke-dasharray=""
           stroke-dashoffset="0"
           font-family="Sans Serif"
           font-weight="normal"
           text-anchor="start"
           style="mix-blend-mode: normal"
           id="text20"><tspan
             x="0"
             dy="0"
             id="tspan20">fishf  lk</tspan></text>
        <g
           id="g37">
          <path
             d="M295.36128,186.11579l2.03531,-4.95912l3.96998,-1.08663l2.5711,3.6983c0,0 -2.86773,1.33519 -4.28502,1.7231c-1.44112,0.39445 -4.29137,0.62434 -4.29137,0.62434z"
             fill="#fffe00"
             stroke="none"
             stroke-width="0"
             stroke-linecap="butt"
             id="path21" />
          <path
             d="M301.03101,184.90496l-0.73744,-3.8574"
             data-paper-data="{&quot;index&quot;:null}"
             fill="none"
             stroke="#ffe300"
             stroke-width="0.5"
             stroke-linecap="round"
             id="path22" />
          <path
             d="M302.64664,184.23175l-1.68866,-3.3208"
             data-paper-data="{&quot;index&quot;:null}"
             fill="none"
             stroke="#ffe300"
             stroke-width="0.5"
             stroke-linecap="round"
             id="path23" />
          <path
             d="M298.50615,185.62355l0.1316,-4.09527"
             fill="none"
             stroke="#ffe300"
             stroke-width="0.5"
             stroke-linecap="round"
             id="path24" />
          <path
             d="M297.98008,181.75356l-1.12404,4.09066"
             fill="none"
             stroke="#ffe300"
             stroke-width="0.5"
             stroke-linecap="round"
             id="path25" />
          <path
             d="M292.94248,174.13982c-0.31957,-4.19483 -0.01559,-6.27207 2.38537,-8.03362c0.49231,-0.3612 2.72927,4.81634 3.28423,4.66445c0.63224,-0.17305 1.73784,-6.33956 2.33062,-6.21076c2.46512,0.53563 3.49997,2.27217 3.81041,6.34724c0.3851,5.05499 -1.94662,9.87652 -5.20804,10.7692c-3.26142,0.89268 -6.2175,-2.48153 -6.6026,-7.53651z"
             fill="#fffe00"
             stroke="none"
             stroke-width="0"
             stroke-linecap="butt"
             id="path26" />
          <path
             d="M298.4767,171.06466c-0.38547,1.757 -4.65657,-4.27224 -3.09325,-5.28458c0.86444,-0.55977 2.88657,1.41653 3.05909,3.49495c0.06562,0.79049 0.06794,0.82332 0.06794,0.82332c0,0 0.11189,0.30231 -0.03378,0.96633z"
             fill="#ffe300"
             stroke="none"
             stroke-width="0"
             stroke-linecap="butt"
             id="path27" />
          <path
             d="M298.21205,170.26736c0,0 -0.00267,-0.03272 -0.05771,-0.82611c-0.14472,-2.08603 1.49983,-5.06594 2.4125,-4.99258c1.65055,0.13267 -1.65452,8.12544 -2.28647,6.64693c-0.23883,-0.55877 -0.06833,-0.82824 -0.06833,-0.82824z"
             data-paper-data="{&quot;index&quot;:null}"
             fill="#ffe300"
             stroke="none"
             stroke-width="0"
             stroke-linecap="butt"
             id="path28" />
          <path
             d="M303.03729,178.72905l-1.03917,-13.82863c0,0 0.65058,0.37526 0.92056,0.61003c0.25177,0.21892 0.64848,0.75437 0.64848,0.75437l0.74632,9.42039c0,0 -0.14591,0.61002 -0.33447,1.11444c-0.10644,0.2847 -0.27481,0.59021 -0.28722,0.65088c-0.06809,0.33297 -0.6545,1.27852 -0.6545,1.27852z"
             fill="#ffe300"
             stroke="none"
             stroke-width="0"
             stroke-linecap="butt"
             id="path29" />
          <path
             d="M301.77081,168.81638c-0.03301,-0.43335 0.26991,-0.87489 0.6766,-0.9862c0.40669,-0.11131 0.76313,0.14975 0.79615,0.5831c0.03301,0.43335 -0.26991,0.87489 -0.6766,0.9862c-0.40669,0.11131 -0.76313,-0.14975 -0.79615,-0.5831z"
             fill="#ffffff"
             stroke="#000000"
             stroke-width="0.5"
             stroke-linecap="butt"
             id="path30" />
          <path
             d="M301.99414,168.50485c-0.01287,-0.16883 0.09966,-0.33935 0.25134,-0.38086c0.15168,-0.04151 0.28506,0.06169 0.29792,0.23053c0.01287,0.16883 -0.09966,0.33935 -0.25135,0.38086c-0.15168,0.04151 -0.28505,-0.06169 -0.29792,-0.23053z"
             fill="#ff0000"
             stroke="none"
             stroke-width="0"
             stroke-linecap="butt"
             id="path31" />
          <path
             d="M302.6094,168.94154c-0.0081,-0.10639 0.06281,-0.21384 0.15839,-0.24c0.09558,-0.02616 0.17963,0.03889 0.18773,0.14526c0.0081,0.10639 -0.06281,0.21384 -0.15838,0.24c-0.09558,0.02616 -0.17963,-0.03887 -0.18774,-0.14526z"
             fill="#ff0000"
             stroke="none"
             stroke-width="0"
             stroke-linecap="butt"
             id="path32" />
          <path
             d="M298.70357,181.8112l-0.90382,-12.05195l1.43517,-0.39282l0.92015,12.07834c0,0 -0.58624,0.23546 -0.73513,0.27621c-0.22653,0.06201 -0.71636,0.09023 -0.71636,0.09023z"
             fill="#ffe300"
             stroke="none"
             stroke-width="0"
             stroke-linecap="butt"
             id="path33" />
          <path
             d="M300.95079,181.01091l-1.20153,-15.95975c0,0 0.412,-0.40521 0.64146,-0.46803c0.14417,-0.03946 0.41413,-0.04188 0.59469,0.00096c0.12948,0.03072 0.19713,0.04951 0.19713,0.04951l1.13704,15.12783c0,0 -0.42996,0.47912 -0.6562,0.68566c-0.22994,0.20991 -0.7126,0.56382 -0.7126,0.56382z"
             fill="#ffe300"
             stroke="none"
             stroke-width="0"
             stroke-linecap="butt"
             id="path34" />
          <path
             d="M297.22108,181.59354c-0.24768,-0.07464 -0.73424,-0.33861 -0.73424,-0.33861l-1.14688,-14.85209c0,0 0.06213,-0.05375 0.18181,-0.15166c0.1669,-0.13655 0.43214,-0.23378 0.576,-0.24439c0.21301,-0.01571 0.7126,0.46571 0.7126,0.46571l1.18063,15.30955c0,0 -0.2231,-0.03824 -0.44804,-0.09314c-0.11726,-0.02862 -0.23561,-0.06936 -0.32186,-0.09536z"
             data-paper-data="{&quot;index&quot;:null}"
             fill="#ffe300"
             stroke="none"
             stroke-width="0"
             stroke-linecap="butt"
             id="path35" />
          <path
             d="M294.68366,179.47722c-0.02096,-0.05155 -0.15786,-0.2583 -0.30244,-0.4743c-0.25615,-0.38271 -0.45951,-0.89712 -0.45951,-0.89712l-0.70418,-9.24952c0,0 0.24648,-0.69629 0.50941,-1.0713c0.22391,-0.36994 0.79757,-1.00429 0.79757,-1.00429l1.06268,13.7614c0,0 -0.78853,-0.78202 -0.90353,-1.06489z"
             data-paper-data="{&quot;index&quot;:null}"
             fill="#ffe300"
             stroke="none"
             stroke-width="0"
             stroke-linecap="butt"
             id="path36" />
          <path
             d="M299.72965,185.32667l-0.2679,-4.01378"
             fill="none"
             stroke="#ffe300"
             stroke-width="0.5"
             stroke-linecap="round"
             id="path37" />
        </g>
        <path
           d="M300.28676,172.75746l-1.59449,3.58762l-1.99313,-3.189"
           fill="none"
           stroke="#e8cd00"
           stroke-width="0.5"
           stroke-linecap="round"
           id="path38" />
      </g>
    </g>
  </g>
</svg>
