<?xml version="1.0" encoding="UTF-8" standalone="no"?>
<!-- Created with Inkscape (http://www.inkscape.org/) -->

<svg
   width="306.99997"
   height="853.36798"
   viewBox="0 0 81.227075 225.78694"
   version="1.1"
   id="svg1"
   inkscape:version="1.3.2 (091e20e, 2023-11-25, custom)"
   sodipodi:docname="wheel-hold-and-zoom.svg"
   xmlns:inkscape="http://www.inkscape.org/namespaces/inkscape"
   xmlns:sodipodi="http://sodipodi.sourceforge.net/DTD/sodipodi-0.dtd"
   xmlns:xlink="http://www.w3.org/1999/xlink"
   xmlns="http://www.w3.org/2000/svg"
   xmlns:svg="http://www.w3.org/2000/svg">
  <sodipodi:namedview
     id="namedview1"
     pagecolor="#505050"
     bordercolor="#ffffff"
     borderopacity="1"
     inkscape:showpageshadow="0"
     inkscape:pageopacity="0"
     inkscape:pagecheckerboard="1"
     inkscape:deskcolor="#505050"
     inkscape:document-units="mm"
     showguides="true"
     inkscape:zoom="5.9112461"
     inkscape:cx="313.21653"
     inkscape:cy="441.19293"
     inkscape:window-width="2355"
     inkscape:window-height="1360"
     inkscape:window-x="2989"
     inkscape:window-y="0"
     inkscape:window-maximized="0"
     inkscape:current-layer="layer1">
    <sodipodi:guide
       position="14.518538,-17.988832"
       orientation="1,0"
       id="guide1"
       inkscape:locked="false" />
    <sodipodi:guide
       position="28.980869,-54.477122"
       orientation="0,-1"
       id="guide2"
       inkscape:locked="false" />
    <sodipodi:guide
       position="15.001193,-10.551172"
       orientation="1,0"
       id="guide3"
       inkscape:locked="false" />
    <sodipodi:guide
       position="1.4472468,-18.914582"
       orientation="0,-1"
       id="guide4"
       inkscape:locked="false" />
  </sodipodi:namedview>
  <defs
     id="defs1">
    <inkscape:path-effect
       effect="fillet_chamfer"
       id="path-effect6"
       is_visible="true"
       lpeversion="1"
       nodesatellites_param="F,0,0,1,0,0,0,1 @ F,0,0,1,0,0,0,1 @ F,0,0,1,0,0.25617229,0,1 @ F,0,0,1,0,0,0,1 @ F,0,0,1,0,0,0,1 @ F,0,0,1,0,0,0,1"
       radius="0"
       unit="px"
       method="auto"
       mode="F"
       chamfer_steps="1"
       flexible="false"
       use_knot_distance="true"
       apply_no_radius="true"
       apply_with_radius="true"
       only_selected="false"
       hide_knots="false" />
    <inkscape:path-effect
       effect="fillet_chamfer"
       id="path-effect5"
       is_visible="true"
       lpeversion="1"
       nodesatellites_param="F,0,0,1,0,0,0,1 @ F,0,0,1,0,0,0,1 @ F,0,0,1,0,0,0,1 @ F,0,0,1,0,0,0,1 @ F,0,0,1,0,0,0,1 @ F,0,0,1,0,0,0,1"
       radius="0"
       unit="px"
       method="auto"
       mode="F"
       chamfer_steps="1"
       flexible="false"
       use_knot_distance="true"
       apply_no_radius="true"
       apply_with_radius="true"
       only_selected="false"
       hide_knots="false" />
    <linearGradient
       inkscape:collect="always"
       xlink:href="#linearGradient5"
       id="linearGradient7"
       x1="0.062612817"
       y1="-5.4720402"
       x2="48.738605"
       y2="-5.4720402"
       gradientUnits="userSpaceOnUse"
       gradientTransform="matrix(0,-0.96806253,0.96806253,0,113.57766,123.53006)" />
    <linearGradient
       id="linearGradient5"
       inkscape:collect="always">
      <stop
         style="stop-color:#94004e;stop-opacity:1;"
         offset="0"
         id="stop6" />
      <stop
         style="stop-color:#000000;stop-opacity:0.16875;"
         offset="1"
         id="stop7" />
    </linearGradient>
    <linearGradient
       inkscape:collect="always"
       xlink:href="#linearGradient5"
       id="linearGradient8"
       gradientUnits="userSpaceOnUse"
       gradientTransform="matrix(0,0.96806253,0.96806253,0,113.57766,253.51476)"
       x1="0.062612817"
       y1="-5.4720402"
       x2="48.738605"
       y2="-5.4720402" />
  </defs>
  <g
     inkscape:label="Layer 1"
     inkscape:groupmode="layer"
     id="layer1"
     transform="translate(-67.699253,-75.638628)">
    <path
       id="path1"
       style="fill:#8da1d4;fill-opacity:1;stroke-width:0.471229;stroke-linecap:round;stroke-miterlimit:80;stroke-dashoffset:127.298;stroke-opacity:0.534521;paint-order:fill markers stroke"
       d="m 148.26171,164.25975 c 0,2.45196 0.14478,43.97369 0.009,46.82197 -1.45116,30.34799 -18.01091,32.29579 -22.95173,34.22594 -2.49394,0.97421 -28.691649,1.20955 -31.863524,-0.0427 -5.671211,-2.23902 -23.915514,-5.19525 -25.018076,-34.20909 -0.04543,-1.19476 0.188227,-45.51707 0.188227,-46.79603"
       sodipodi:nodetypes="cssssc" />
    <path
       id="rect4"
       style="fill:#7e99ba;fill-opacity:1;stroke-width:1.39982;stroke-linecap:round;stroke-miterlimit:80;stroke-dashoffset:127.298;stroke-opacity:0.534521;paint-order:fill markers stroke"
       d="m 100.56792,131.09111 6.54536,-0.47707 2.05153,-0.0203 7.33748,0.49756 v 52.20479 h -15.93437 z"
       sodipodi:nodetypes="ccccccc" />
    <path
       id="path1-1"
       style="fill:#ffffff;stroke-width:0.727667;stroke-linecap:round;stroke-miterlimit:80;stroke-dashoffset:127.298;stroke-opacity:0.534521;paint-order:fill markers stroke"
       d="m 69.285504,183.75777 c -2.176099,0.18922 -1.481031,-7.32238 -1.479294,-10.26013 0.01513,-25.56163 0.259046,-35.11824 3.568347,-39.54184 4.292003,-5.73722 32.638163,-4.95304 32.540473,-2.98498 0,0 -1.69631,33.26391 3.70193,33.26391 0,0 0.005,11.36814 0.005,19.66107"
       sodipodi:nodetypes="cssssc" />
    <path
       id="path2"
       style="fill:#ffffff;stroke-width:0.727667;stroke-linecap:round;stroke-miterlimit:80;stroke-dashoffset:127.298;stroke-opacity:0.534521;paint-order:fill markers stroke"
       d="m 147.3331,183.71426 c 2.1761,0.18922 1.48103,-7.32237 1.47929,-10.26013 -0.0151,-25.56162 -0.25904,-35.11826 -3.56834,-39.54186 -4.292,-5.7372 -32.63817,-4.95304 -32.54047,-2.98498 0,0 1.63102,33.35097 -3.76723,33.35097 0,0 0.06,11.2811 0.06,19.57404"
       sodipodi:nodetypes="cssssc" />
    <rect
       style="fill:#ff0000;fill-opacity:1;stroke:#1a1a1a;stroke-width:1.11385;stroke-linecap:round;stroke-miterlimit:80;stroke-dasharray:none;stroke-dashoffset:127.298;stroke-opacity:0.924012;paint-order:normal"
       id="rect7"
       width="3.9104743"
       height="21.327488"
       x="106.37968"
       y="136.71109"
       rx="3.4320886" />
    <path
       d="m 114.75707,140.18564 -0.39638,0.0712 -0.2618,-1.45942 -1.48744,0.26683 0.2618,1.45942 -0.39639,0.0709 -0.53473,-2.98088 0.39639,-0.0711 0.20973,1.16913 1.48744,-0.26682 -0.20972,-1.16914 0.39638,-0.0711 z m 2.47621,-1.59723 q 0.098,0.54652 -0.1255,0.91311 -0.22353,0.36658 -0.69398,0.45098 -0.47446,0.085 -0.81147,-0.18096 -0.33501,-0.26642 -0.43305,-0.81294 -0.098,-0.54653 0.12349,-0.91276 0.22318,-0.36858 0.69763,-0.45368 0.47045,-0.0844 0.80782,0.18363 0.33702,0.26603 0.43505,0.81256 z m -0.38838,0.0696 q -0.078,-0.43442 -0.28579,-0.61411 -0.20823,-0.18168 -0.51054,-0.12744 -0.30629,0.0549 -0.43838,0.29767 -0.13047,0.24038 -0.0525,0.6748 0.0754,0.4204 0.28473,0.60808 0.20893,0.18568 0.51324,0.13111 0.30029,-0.0539 0.43203,-0.29861 0.13338,-0.24708 0.0572,-0.67151 z m 1.5517,0.87467 -0.37637,0.0675 -0.55878,-3.11505 0.37636,-0.0675 z m 2.55848,-0.45895 -0.37636,0.0675 -0.042,-0.23424 q -0.13702,0.16922 -0.29918,0.27891 -0.16215,0.10967 -0.36837,0.14667 -0.40038,0.0718 -0.69192,-0.19412 -0.28954,-0.26628 -0.38757,-0.81281 -0.051,-0.28428 -0.0107,-0.52086 0.0422,-0.23693 0.15233,-0.41787 0.10883,-0.17656 0.27463,-0.28896 0.16783,-0.11277 0.36201,-0.14758 0.17618,-0.0316 0.31912,-0.0179 0.14261,0.0115 0.30675,0.0627 l -0.17381,-0.96894 0.37636,-0.0675 z m -0.47512,-0.48301 -0.2302,-1.28326 q -0.16435,-0.0408 -0.28914,-0.0453 -0.12481,-0.004 -0.26691,0.0209 -0.31631,0.0567 -0.45298,0.30856 -0.13666,0.25181 -0.0641,0.65622 0.0714,0.39838 0.24493,0.58216 0.17313,0.18179 0.47342,0.12791 0.16015,-0.0288 0.31175,-0.12824 0.15123,-0.10151 0.27326,-0.23914 z m 4.26403,-2.34361 q 0.0356,0.19818 -0.004,0.38092 -0.0379,0.18036 -0.13977,0.32676 -0.12651,0.18179 -0.3227,0.29759 -0.19656,0.11378 -0.51687,0.17123 l -0.39638,0.0711 0.19931,1.11109 -0.39638,0.0711 -0.53472,-2.98089 0.80878,-0.14508 q 0.26825,-0.0481 0.4627,-0.0355 0.19408,0.0107 0.35545,0.0809 0.19065,0.0836 0.31325,0.23723 0.12462,0.1533 0.17129,0.41354 z m -0.41059,0.0841 q -0.0277,-0.15416 -0.10217,-0.25856 -0.0746,-0.10442 -0.19754,-0.15673 -0.10724,-0.0448 -0.23603,-0.0486 -0.12714,-0.006 -0.31533,0.0276 l -0.39239,0.0703 0.21368,1.19115 0.33432,-0.06 q 0.24023,-0.0431 0.38284,-0.11207 0.14224,-0.0709 0.21946,-0.18196 0.0769,-0.11297 0.0959,-0.2259 0.0209,-0.11328 -0.003,-0.2454 z m 2.34405,-0.1684 -0.02,0.004 q -0.0877,-0.005 -0.1692,0.001 -0.0799,0.004 -0.18797,0.0233 -0.17418,0.0313 -0.32232,0.13841 -0.14851,0.10517 -0.27676,0.25421 l 0.28479,1.58753 -0.37637,0.0675 -0.40114,-2.23618 0.37637,-0.0675 0.0593,0.33032 q 0.19188,-0.22041 0.34877,-0.325 0.15852,-0.10695 0.3367,-0.13891 0.0981,-0.0176 0.14323,-0.0195 0.0448,-0.004 0.13536,-0.006 z m 2.36011,0.34738 -1.6476,0.29556 q 0.037,0.20622 0.1267,0.34922 0.0894,0.141 0.21504,0.21971 0.12134,0.0775 0.27211,0.1 0.15275,0.0222 0.32492,-0.009 0.22821,-0.0409 0.44229,-0.17233 0.21569,-0.13374 0.298,-0.23943 l 0.02,-0.004 0.0736,0.4104 q -0.17581,0.11419 -0.36431,0.2038 -0.1885,0.0896 -0.4067,0.12873 -0.55655,0.0998 -0.92271,-0.14443 -0.36653,-0.24629 -0.46601,-0.80082 -0.0984,-0.54853 0.14207,-0.92435 0.24249,-0.37618 0.73095,-0.4638 0.45244,-0.0812 0.74409,0.13926 0.29364,0.22008 0.3809,0.70656 z m -0.41807,-0.22254 q -0.0551,-0.29595 -0.23239,-0.43152 -0.17522,-0.13594 -0.47553,-0.0821 -0.3023,0.0542 -0.4505,0.26471 -0.14621,0.21014 -0.12283,0.47869 z m 2.6641,0.26806 q 0.0549,0.3063 -0.16412,0.5481 -0.21704,0.24144 -0.65547,0.32008 -0.24824,0.0445 -0.46685,0.0239 -0.21697,-0.0231 -0.36968,-0.0679 l -0.0758,-0.42241 0.02,-0.004 q 0.20223,0.10216 0.43482,0.14309 0.23223,0.0389 0.4324,0.003 0.24824,-0.0445 0.37402,-0.14976 0.12576,-0.10522 0.0949,-0.27738 -0.0236,-0.13212 -0.11199,-0.18655 -0.0883,-0.0544 -0.31311,-0.0636 -0.0833,-0.004 -0.21774,-0.004 -0.13242,-0.001 -0.24355,-0.01 -0.30829,-0.0252 -0.45935,-0.15317 -0.14943,-0.13021 -0.18892,-0.35045 -0.0248,-0.13814 0.009,-0.27032 0.0362,-0.13253 0.13504,-0.24945 0.0952,-0.11422 0.2577,-0.19915 0.1641,-0.0873 0.37832,-0.1257 0.20018,-0.036 0.41337,-0.0225 0.21481,0.011 0.36352,0.0567 l 0.0721,0.40239 -0.02,0.004 q -0.16317,-0.0803 -0.3823,-0.11532 -0.21949,-0.0371 -0.41767,-0.002 -0.20622,0.037 -0.33399,0.14257 -0.12813,0.10357 -0.1001,0.25973 0.0247,0.13815 0.12343,0.19277 0.0967,0.055 0.29274,0.0652 0.10841,0.005 0.24084,0.006 0.13442,6.7e-4 0.22411,0.005 0.27302,0.0129 0.44139,0.13366 0.16869,0.12266 0.21253,0.36688 z m 2.13607,-0.38318 q 0.055,0.3063 -0.1641,0.5481 -0.21705,0.24145 -0.65548,0.32008 -0.24823,0.0445 -0.46687,0.024 -0.21697,-0.0232 -0.36967,-0.0679 l -0.0757,-0.4224 0.02,-0.004 q 0.20222,0.10217 0.43481,0.14309 0.2322,0.0389 0.4324,0.003 0.24824,-0.0445 0.37402,-0.14975 0.12583,-0.10523 0.0949,-0.27739 -0.0237,-0.13211 -0.1119,-0.18654 -0.0883,-0.0544 -0.31313,-0.0637 -0.0833,-0.004 -0.21774,-0.004 -0.13239,-0.001 -0.24356,-0.0102 -0.30829,-0.0252 -0.45935,-0.15317 -0.14942,-0.13021 -0.1889,-0.35045 -0.0247,-0.13814 0.009,-0.2703 0.0362,-0.13253 0.13504,-0.24944 0.0953,-0.11419 0.25769,-0.19915 0.16411,-0.0873 0.37832,-0.1257 0.20019,-0.0359 0.41337,-0.0225 0.21482,0.011 0.36352,0.0567 l 0.0722,0.40239 -0.02,0.004 q -0.16318,-0.0803 -0.3823,-0.11532 -0.2195,-0.0371 -0.41769,-0.002 -0.20619,0.037 -0.33396,0.14257 -0.12814,0.10357 -0.1001,0.25973 0.0248,0.13815 0.12348,0.19277 0.0967,0.055 0.29273,0.0652 0.10837,0.005 0.24084,0.006 0.13444,6.7e-4 0.22413,0.005 0.27301,0.0129 0.44138,0.13366 0.16871,0.12267 0.21251,0.36688 z m 2.33241,-0.8668 -1.6476,0.29556 q 0.037,0.20618 0.12673,0.3492 0.0895,0.14101 0.21505,0.21973 0.12134,0.0774 0.2721,0.1 0.15278,0.0223 0.32493,-0.009 0.22821,-0.041 0.44229,-0.17233 0.2157,-0.13375 0.298,-0.23944 l 0.02,-0.004 0.0736,0.41041 q -0.17582,0.11418 -0.36432,0.20379 -0.1885,0.0896 -0.40671,0.12877 -0.55655,0.0998 -0.9227,-0.14445 -0.36654,-0.24628 -0.46602,-0.80081 -0.0984,-0.54853 0.14208,-0.92435 0.24246,-0.37618 0.73094,-0.4638 0.45244,-0.0812 0.74407,0.13927 0.29366,0.22007 0.38091,0.70656 z m -0.41807,-0.22255 q -0.0557,-0.29582 -0.23239,-0.4315 -0.17525,-0.13594 -0.47551,-0.0821 -0.30231,0.0542 -0.45052,0.26471 -0.1462,0.21014 -0.12279,0.4787 z m 2.99594,0.8739 -0.37637,0.0675 -0.042,-0.2343 q -0.13701,0.16922 -0.29919,0.27891 -0.16216,0.10967 -0.36835,0.14667 -0.4004,0.0718 -0.69194,-0.19412 -0.28951,-0.26628 -0.38755,-0.81281 -0.0511,-0.28428 -0.0104,-0.52086 0.0423,-0.23696 0.15234,-0.41787 0.10888,-0.17656 0.27464,-0.28896 0.16781,-0.11277 0.36201,-0.14759 0.17616,-0.0316 0.31912,-0.0178 0.1426,0.0115 0.30675,0.0627 l -0.17382,-0.96894 0.37637,-0.0675 z m -0.47512,-0.48301 -0.2302,-1.28325 q -0.16435,-0.0408 -0.28913,-0.0453 -0.12478,-0.004 -0.26694,0.0209 -0.3163,0.0567 -0.45298,0.30856 -0.13666,0.2518 -0.0641,0.65621 0.0715,0.39838 0.24494,0.58216 0.17312,0.18179 0.47341,0.12791 0.16014,-0.0288 0.31174,-0.12824 0.15123,-0.10151 0.27324,-0.23913 z m 1.83044,0.2399 -0.47846,0.0859 -0.10234,-0.57055 0.47847,-0.0859 z m 1.49144,-0.26755 -0.47847,0.0859 -0.10233,-0.57055 0.47847,-0.0859 z m 1.49144,-0.26754 -0.47847,0.0859 -0.10233,-0.57056 0.47847,-0.0859 z"
       id="text7"
       style="font-size:3.175px;fill:#ff0000;stroke:#1a1a1a;stroke-width:0.131194;stroke-linecap:round;stroke-miterlimit:80;stroke-dashoffset:127.298"
       aria-label="Hold Pressed..." />
    <path
       id="path2-2"
       style="fill:#df252a;fill-opacity:1;stroke:url(#linearGradient7);stroke-width:1.10894;stroke-dasharray:none"
       inkscape:transform-center-x="0.11304395"
       inkscape:transform-center-y="-29.492978"
       d="m 110.53828,92.615379 2.82238,30.649711 h -10.16055 l 2.82238,-30.649711 -7.338176,1.056886 9.596066,-16.910186 9.59607,16.910186 z"
       sodipodi:nodetypes="cccccccc" />
    <path
       id="path7"
       style="fill:#df252a;fill-opacity:1;stroke:url(#linearGradient8);stroke-width:1.10894;stroke-dasharray:none"
       inkscape:transform-center-x="0.11304395"
       inkscape:transform-center-y="29.492981"
       d="m 110.53828,284.42943 2.82238,-30.64972 h -10.16055 l 2.82238,30.64972 -7.338176,-1.0569 9.596066,16.91021 9.59607,-16.91021 z"
       sodipodi:nodetypes="cccccccc" />
  </g>
</svg>
