<?xml version="1.0" encoding="UTF-8" standalone="no"?>
<!-- Created with Inkscape (http://www.inkscape.org/) -->

<svg
   width="733.52734"
   height="440"
   viewBox="0 0 194.07911 116.41667"
   version="1.1"
   id="svg1"
   inkscape:version="1.3.2 (091e20e, 2023-11-25, custom)"
   sodipodi:docname="wheel-hold-and-rotate.svg"
   xmlns:inkscape="http://www.inkscape.org/namespaces/inkscape"
   xmlns:sodipodi="http://sodipodi.sourceforge.net/DTD/sodipodi-0.dtd"
   xmlns:xlink="http://www.w3.org/1999/xlink"
   xmlns="http://www.w3.org/2000/svg"
   xmlns:svg="http://www.w3.org/2000/svg">
  <sodipodi:namedview
     id="namedview1"
     pagecolor="#505050"
     bordercolor="#ffffff"
     borderopacity="1"
     inkscape:showpageshadow="0"
     inkscape:pageopacity="0"
     inkscape:pagecheckerboard="1"
     inkscape:deskcolor="#505050"
     inkscape:document-units="mm"
     showguides="true"
     inkscape:zoom="0.52248527"
     inkscape:cx="1051.7043"
     inkscape:cy="189.47903"
     inkscape:window-width="2355"
     inkscape:window-height="1360"
     inkscape:window-x="2989"
     inkscape:window-y="0"
     inkscape:window-maximized="0"
     inkscape:current-layer="layer1">
    <sodipodi:guide
       position="34.895553,-13.239049"
       orientation="1,0"
       id="guide1"
       inkscape:locked="false" />
    <sodipodi:guide
       position="49.357884,-49.727338"
       orientation="0,-1"
       id="guide2"
       inkscape:locked="false" />
    <sodipodi:guide
       position="35.378208,-5.8013883"
       orientation="1,0"
       id="guide3"
       inkscape:locked="false" />
    <sodipodi:guide
       position="21.824262,-14.164799"
       orientation="0,-1"
       id="guide4"
       inkscape:locked="false" />
  </sodipodi:namedview>
  <defs
     id="defs1">
    <inkscape:path-effect
       effect="fillet_chamfer"
       id="path-effect6"
       is_visible="true"
       lpeversion="1"
       nodesatellites_param="F,0,0,1,0,0,0,1 @ F,0,0,1,0,0,0,1 @ F,0,0,1,0,0.25617229,0,1 @ F,0,0,1,0,0,0,1 @ F,0,0,1,0,0,0,1 @ F,0,0,1,0,0,0,1"
       radius="0"
       unit="px"
       method="auto"
       mode="F"
       chamfer_steps="1"
       flexible="false"
       use_knot_distance="true"
       apply_no_radius="true"
       apply_with_radius="true"
       only_selected="false"
       hide_knots="false" />
    <inkscape:path-effect
       effect="fillet_chamfer"
       id="path-effect5"
       is_visible="true"
       lpeversion="1"
       nodesatellites_param="F,0,0,1,0,0,0,1 @ F,0,0,1,0,0,0,1 @ F,0,0,1,0,0,0,1 @ F,0,0,1,0,0,0,1 @ F,0,0,1,0,0,0,1 @ F,0,0,1,0,0,0,1"
       radius="0"
       unit="px"
       method="auto"
       mode="F"
       chamfer_steps="1"
       flexible="false"
       use_knot_distance="true"
       apply_no_radius="true"
       apply_with_radius="true"
       only_selected="false"
       hide_knots="false" />
    <linearGradient
       inkscape:collect="always"
       xlink:href="#linearGradient5"
       id="linearGradient7"
       x1="0.062612817"
       y1="-5.4720402"
       x2="48.738605"
       y2="-5.4720402"
       gradientUnits="userSpaceOnUse"
       gradientTransform="matrix(0.96615144,0,0,0.96615144,193.6154,159.49599)" />
    <linearGradient
       id="linearGradient5"
       inkscape:collect="always">
      <stop
         style="stop-color:#94004e;stop-opacity:1;"
         offset="0"
         id="stop6" />
      <stop
         style="stop-color:#000000;stop-opacity:0.16875;"
         offset="1"
         id="stop7" />
    </linearGradient>
    <linearGradient
       inkscape:collect="always"
       xlink:href="#linearGradient5"
       id="linearGradient8"
       gradientUnits="userSpaceOnUse"
       gradientTransform="matrix(-0.96615144,0,0,0.96615144,95.119126,159.49599)"
       x1="0.062612817"
       y1="-5.4720402"
       x2="48.738605"
       y2="-5.4720402" />
  </defs>
  <g
     inkscape:label="Layer 1"
     inkscape:groupmode="layer"
     id="layer1"
     transform="translate(-47.322236,-95.211705)">
    <path
       id="path1"
       style="fill:#8da1d4;fill-opacity:1;stroke-width:0.470298;stroke-linecap:round;stroke-miterlimit:80;stroke-dashoffset:127.298;stroke-opacity:0.534521;paint-order:fill markers stroke"
       d="m 183.65669,129.93351 c 0,2.44711 0.14449,43.88687 0.009,46.72953 -1.4483,30.28808 -17.97536,32.23204 -22.90642,34.15838 -2.48902,0.97229 -28.63502,1.20716 -31.80062,-0.0426 -5.66002,-2.2346 -23.86831,-5.18499 -24.96869,-34.14156 -0.0454,-1.1924 0.18785,-45.42721 0.18785,-46.70366"
       sodipodi:nodetypes="cssssc" />
    <path
       id="rect4"
       style="fill:#7e99ba;fill-opacity:1;stroke-width:1.39705;stroke-linecap:round;stroke-miterlimit:80;stroke-dashoffset:127.298;stroke-opacity:0.534521;paint-order:fill markers stroke"
       d="m 136.05706,96.830342 6.53243,-0.476128 2.04748,-0.02031 7.323,0.49658 v 52.101726 h -15.90291 z"
       sodipodi:nodetypes="ccccccc" />
    <path
       id="path1-1"
       style="fill:#ffffff;stroke-width:0.72623;stroke-linecap:round;stroke-miterlimit:80;stroke-dashoffset:127.298;stroke-opacity:0.534521;paint-order:fill markers stroke"
       d="m 104.83639,149.39303 c -2.17181,0.18884 -1.47811,-7.30792 -1.47638,-10.23987 0.0151,-25.51117 0.25854,-35.04892 3.56131,-39.463788 4.28354,-5.725883 32.57373,-4.943263 32.47623,-2.979089 0,0 -1.69296,33.198247 3.69463,33.198247 0,0 0.005,11.34571 0.005,19.62226"
       sodipodi:nodetypes="cssssc" />
    <path
       id="path2"
       style="fill:#ffffff;stroke-width:0.72623;stroke-linecap:round;stroke-miterlimit:80;stroke-dashoffset:127.298;stroke-opacity:0.534521;paint-order:fill markers stroke"
       d="m 182.72992,149.34961 c 2.1718,0.18885 1.4781,-7.30792 1.47636,-10.23987 -0.0151,-25.51117 -0.25852,-35.04894 -3.56129,-39.463805 -4.28354,-5.725883 -32.57374,-4.943263 -32.47623,-2.979088 0,0 1.6278,33.285133 -3.75979,33.285133 0,0 0.0599,11.25883 0.0599,19.53539"
       sodipodi:nodetypes="cssssc" />
    <rect
       style="fill:#ff0000;fill-opacity:1;stroke:#1a1a1a;stroke-width:1.11165;stroke-linecap:round;stroke-miterlimit:80;stroke-dasharray:none;stroke-dashoffset:127.298;stroke-opacity:0.924012;paint-order:normal"
       id="rect7"
       width="3.9027548"
       height="21.285385"
       x="141.85735"
       y="102.43923"
       rx="3.4253135" />
    <path
       d="m 150.2182,105.90692 -0.39561,0.071 -0.26128,-1.45653 -1.4845,0.2663 0.26128,1.45653 -0.39561,0.0708 -0.53366,-2.97499 0.39559,-0.0709 0.20932,1.16682 1.48452,-0.2663 -0.20932,-1.16682 0.3956,-0.0709 z m 2.47131,-1.59408 q 0.0979,0.54545 -0.12524,0.91131 -0.2231,0.36585 -0.69262,0.45009 -0.47352,0.0849 -0.80986,-0.18061 -0.33436,-0.26589 -0.4322,-0.81133 -0.0979,-0.54545 0.12324,-0.91095 0.22274,-0.36786 0.69626,-0.4528 0.46952,-0.0843 0.80622,0.18327 0.33635,0.26551 0.4342,0.81096 z m -0.38761,0.0695 q -0.0777,-0.43356 -0.28523,-0.61289 -0.20781,-0.18132 -0.50952,-0.12719 -0.30569,0.0548 -0.43753,0.29708 -0.13021,0.2399 -0.0524,0.67346 0.0752,0.41958 0.28416,0.60689 0.20851,0.18531 0.51223,0.13085 0.2997,-0.0538 0.43117,-0.29802 0.13313,-0.2466 0.0571,-0.67018 z m 1.54864,0.87295 -0.37562,0.0674 -0.55769,-3.1089 0.37562,-0.0674 z m 2.55343,-0.45804 -0.37562,0.0674 -0.042,-0.23378 q -0.13674,0.16889 -0.29859,0.27836 -0.16184,0.10946 -0.36764,0.14637 -0.39959,0.0717 -0.69055,-0.19373 -0.28897,-0.26575 -0.38681,-0.8112 -0.0509,-0.28372 -0.0107,-0.51983 0.0422,-0.23646 0.15203,-0.41705 0.10861,-0.17621 0.27409,-0.28839 0.16749,-0.11254 0.36129,-0.14729 0.17584,-0.0316 0.31851,-0.0178 0.14231,0.0115 0.30613,0.0626 l -0.17347,-0.96702 0.37562,-0.0674 z m -0.47419,-0.48208 -0.22974,-1.2807 q -0.16403,-0.0407 -0.28857,-0.0452 -0.12455,-0.004 -0.26638,0.0208 -0.31569,0.0566 -0.45209,0.30795 -0.13638,0.25131 -0.064,0.65491 0.0713,0.3976 0.24445,0.58102 0.17278,0.18144 0.47248,0.12766 0.15983,-0.0287 0.31113,-0.12799 0.15093,-0.10131 0.27272,-0.23866 z m 4.25562,-2.33896 q 0.0355,0.19778 -0.004,0.38016 -0.0379,0.18001 -0.13949,0.32612 -0.12626,0.18143 -0.32206,0.297 -0.19617,0.11355 -0.51585,0.17088 l -0.39559,0.0709 0.19891,1.10889 -0.3956,0.0709 -0.53367,-2.975 0.80719,-0.14479 q 0.26772,-0.048 0.46178,-0.0354 0.19371,0.0107 0.35476,0.0808 0.19028,0.0834 0.31264,0.23676 0.12436,0.153 0.17094,0.41273 z m -0.40978,0.0839 q -0.0277,-0.15384 -0.10197,-0.25803 -0.0744,-0.10423 -0.19716,-0.15643 -0.10702,-0.0448 -0.23556,-0.0485 -0.12689,-0.006 -0.3147,0.0275 l -0.39161,0.0702 0.21325,1.1888 0.33366,-0.0599 q 0.23976,-0.043 0.38208,-0.11185 0.14197,-0.0708 0.21904,-0.1816 0.0767,-0.11276 0.0957,-0.22546 0.0208,-0.11306 -0.003,-0.24492 z m 2.33942,-0.16806 -0.02,0.004 q -0.0875,-0.005 -0.16886,10e-4 -0.0798,0.004 -0.18761,0.0234 -0.17383,0.0312 -0.32168,0.13815 -0.14822,0.10495 -0.27621,0.25369 l 0.28423,1.58441 -0.37563,0.0674 -0.40034,-2.23176 0.37562,-0.0674 0.0591,0.32966 q 0.1915,-0.21997 0.34808,-0.32435 0.15822,-0.10674 0.33604,-0.13863 0.0979,-0.0175 0.14294,-0.0194 0.0447,-0.004 0.1351,-0.006 z m 2.35545,0.3467 -1.64435,0.29497 q 0.0369,0.2058 0.12646,0.34853 0.0892,0.14073 0.21461,0.21928 0.1211,0.0773 0.27157,0.0998 0.15245,0.0222 0.32428,-0.008 0.22777,-0.0409 0.44142,-0.172 0.21528,-0.13347 0.29741,-0.23896 l 0.02,-0.004 0.0734,0.40958 q -0.17547,0.11397 -0.36359,0.2034 -0.18813,0.0895 -0.40591,0.12848 -0.55544,0.0996 -0.92089,-0.14416 -0.3658,-0.2458 -0.46508,-0.79923 -0.0982,-0.54745 0.1418,-0.92252 0.242,-0.37545 0.7295,-0.4629 0.45154,-0.081 0.74261,0.139 0.29306,0.21964 0.38015,0.70516 z m -0.41724,-0.22211 q -0.055,-0.29535 -0.23194,-0.43066 -0.17488,-0.13567 -0.47458,-0.0819 -0.3017,0.0541 -0.44962,0.26419 -0.14592,0.20973 -0.12258,0.47775 z m 2.65883,0.26754 q 0.0548,0.30569 -0.16378,0.54701 -0.21662,0.24096 -0.65418,0.31945 -0.24775,0.0445 -0.46594,0.0239 -0.21653,-0.023 -0.36895,-0.0678 l -0.0757,-0.42158 0.02,-0.004 q 0.20182,0.10197 0.43395,0.14281 0.23177,0.0389 0.43156,0.003 0.24775,-0.0444 0.37327,-0.14945 0.12553,-0.10502 0.0947,-0.27683 -0.0236,-0.13186 -0.11177,-0.18619 -0.0881,-0.0543 -0.31249,-0.0635 -0.0832,-0.004 -0.21731,-0.004 -0.13217,-0.001 -0.24308,-0.01 -0.30768,-0.0252 -0.45844,-0.15286 -0.14912,-0.12996 -0.18854,-0.34976 -0.0248,-0.13787 0.009,-0.26979 0.0361,-0.13227 0.13477,-0.24895 0.0951,-0.11399 0.25719,-0.19876 0.16379,-0.0872 0.37757,-0.12546 0.1998,-0.0359 0.41256,-0.0226 0.21439,0.011 0.3628,0.0566 l 0.072,0.4016 -0.02,0.004 q -0.16285,-0.0801 -0.38154,-0.1151 -0.21906,-0.037 -0.41686,-0.002 -0.2058,0.037 -0.33331,0.1423 -0.12788,0.10336 -0.0999,0.25922 0.0248,0.13786 0.12318,0.19238 0.0965,0.0549 0.29217,0.0651 0.1082,0.005 0.24036,0.006 0.13416,6.8e-4 0.22367,0.005 0.27248,0.0129 0.44051,0.1334 0.16837,0.12242 0.21212,0.36616 z m 2.13186,-0.38243 q 0.0549,0.30569 -0.16378,0.54702 -0.21662,0.24096 -0.65418,0.31946 -0.24774,0.0445 -0.46595,0.0238 -0.21653,-0.023 -0.36894,-0.0678 l -0.0756,-0.42157 0.02,-0.004 q 0.20183,0.10197 0.43395,0.14281 0.23174,0.0389 0.43155,0.003 0.24775,-0.0444 0.37328,-0.14945 0.12558,-0.10501 0.0947,-0.27683 -0.0237,-0.13187 -0.11168,-0.18619 -0.0881,-0.0543 -0.31251,-0.0635 -0.0832,-0.004 -0.21731,-0.004 -0.13213,-0.001 -0.24307,-0.0101 -0.30769,-0.0252 -0.45845,-0.15286 -0.14912,-0.12996 -0.18854,-0.34976 -0.0247,-0.13787 0.009,-0.26976 0.0361,-0.13228 0.13477,-0.24896 0.0951,-0.11396 0.2572,-0.19874 0.16378,-0.0872 0.37757,-0.12547 0.19979,-0.0359 0.41254,-0.0225 0.2144,0.011 0.36281,0.0566 l 0.072,0.40159 -0.02,0.004 q -0.16286,-0.0801 -0.38155,-0.11509 -0.21907,-0.0371 -0.41687,-0.002 -0.20577,0.037 -0.3333,0.14229 -0.12788,0.10337 -0.1,0.25923 0.0247,0.13787 0.12325,0.19237 0.0965,0.0549 0.29215,0.0651 0.10814,0.005 0.24036,0.006 0.13416,6.7e-4 0.22368,0.005 0.27247,0.0129 0.44052,0.13339 0.16836,0.12242 0.21208,0.36616 z m 2.3278,-0.86508 -1.64434,0.29497 q 0.0369,0.20578 0.12648,0.34852 0.0893,0.14072 0.21462,0.21928 0.1211,0.0773 0.27157,0.0998 0.15248,0.0222 0.32428,-0.008 0.22777,-0.0409 0.44142,-0.172 0.21527,-0.13347 0.29742,-0.23896 l 0.02,-0.004 0.0734,0.40959 q -0.17547,0.11397 -0.36359,0.20339 -0.18813,0.0894 -0.40591,0.12852 -0.55544,0.0996 -0.92088,-0.14417 -0.36581,-0.24579 -0.46509,-0.79922 -0.0982,-0.54745 0.14179,-0.92253 0.24199,-0.37544 0.7295,-0.462888 0.45155,-0.081 0.7426,0.138998 0.29308,0.21964 0.38017,0.70516 z m -0.41724,-0.22212 q -0.0556,-0.29523 -0.23193,-0.43065 -0.1749,-0.13567 -0.47458,-0.0819 -0.30171,0.0541 -0.44962,0.26419 -0.14592,0.20973 -0.12256,0.47775 z m 2.99002,0.87218 -0.37562,0.0674 -0.0419,-0.23383 q -0.13675,0.1689 -0.29861,0.27836 -0.16182,0.10946 -0.36762,0.14638 -0.3996,0.0717 -0.69057,-0.19373 -0.28894,-0.26575 -0.3868,-0.81121 -0.0509,-0.28372 -0.0104,-0.51983 0.0422,-0.23649 0.15204,-0.41704 0.10866,-0.176217 0.2741,-0.288396 0.16749,-0.112537 0.36129,-0.147287 0.17582,-0.03154 0.3185,-0.01784 0.14232,0.01153 0.30614,0.06263 l -0.17347,-0.967027 0.37562,-0.06738 z m -0.47417,-0.48206 -0.22974,-1.280716 q -0.16404,-0.04071 -0.28857,-0.04515 -0.12453,-0.0044 -0.26641,0.02086 -0.31568,0.05663 -0.45208,0.307946 -0.13639,0.25132 -0.064,0.65491 0.0713,0.3976 0.24445,0.58101 0.17279,0.18144 0.47248,0.12767 0.15983,-0.0286 0.31113,-0.12799 0.15094,-0.10131 0.2727,-0.23866 z m 1.82682,0.23943 -0.47751,0.0857 -0.10213,-0.56943 0.47752,-0.0857 z m 1.48849,-0.26702 -0.47751,0.0857 -0.10214,-0.56943 0.47752,-0.0857 z m 1.48851,-0.26702 -0.47753,0.0857 -0.10213,-0.56943 0.47753,-0.0857 z"
       id="text7"
       style="font-size:3.175px;fill:#ff0000;stroke:#1a1a1a;stroke-width:0.130935;stroke-linecap:round;stroke-miterlimit:80;stroke-dashoffset:127.298"
       aria-label="Hold Pressed..." />
    <path
       id="path2-2"
       style="fill:#df252a;fill-opacity:1;stroke:url(#linearGradient7);stroke-width:1.10676;stroke-dasharray:none"
       inkscape:transform-center-x="-29.43475"
       inkscape:transform-center-y="-0.11282165"
       d="m 224.46904,156.46262 -30.58921,2.81681 v -10.14049 l 30.58921,2.81681 -1.0548,-7.3237 16.87682,9.57714 -16.87682,9.57713 z"
       sodipodi:nodetypes="cccccccc" />
    <path
       id="path7"
       style="fill:#df252a;fill-opacity:1;stroke:url(#linearGradient8);stroke-width:1.10676;stroke-dasharray:none"
       inkscape:transform-center-x="29.434757"
       inkscape:transform-center-y="-0.11282986"
       d="m 64.265489,156.46262 30.589205,2.81681 v -10.14049 l -30.589205,2.81681 1.054803,-7.3237 -16.876821,9.57714 16.876821,9.57711 z"
       sodipodi:nodetypes="cccccccc" />
  </g>
</svg>
