<?xml version="1.0" encoding="UTF-8" standalone="no"?>
<!-- Created with Inkscape (http://www.inkscape.org/) -->

<svg
   width="699.16815"
   height="431.97195"
   viewBox="0 0 699.16815 431.97195"
   version="1.1"
   id="svg1"
   sodipodi:docname="gamepad-B-pressed.svg"
   inkscape:version="1.3.2 (091e20e, 2023-11-25, custom)"
   xml:space="preserve"
   xmlns:inkscape="http://www.inkscape.org/namespaces/inkscape"
   xmlns:sodipodi="http://sodipodi.sourceforge.net/DTD/sodipodi-0.dtd"
   xmlns:xlink="http://www.w3.org/1999/xlink"
   xmlns="http://www.w3.org/2000/svg"
   xmlns:svg="http://www.w3.org/2000/svg"><sodipodi:namedview
     id="namedview1"
     pagecolor="#505050"
     bordercolor="#ffffff"
     borderopacity="1"
     inkscape:showpageshadow="0"
     inkscape:pageopacity="0"
     inkscape:pagecheckerboard="1"
     inkscape:deskcolor="#505050"
     inkscape:document-units="mm"
     inkscape:zoom="5.6568544"
     inkscape:cx="541.11345"
     inkscape:cy="64.258327"
     inkscape:window-width="3440"
     inkscape:window-height="1369"
     inkscape:window-x="1912"
     inkscape:window-y="-8"
     inkscape:window-maximized="1"
     inkscape:current-layer="layer1"
     showguides="false"
     showgrid="false"><sodipodi:guide
       position="105.01701,1486.872"
       orientation="0,-1"
       id="guide41"
       inkscape:locked="false" /><sodipodi:guide
       position="95.695186,1459.7388"
       orientation="0,-1"
       id="guide42"
       inkscape:locked="false" /></sodipodi:namedview><defs
     id="defs1"><linearGradient
       id="linearGradient23"
       inkscape:collect="always"><stop
         style="stop-color:#262626;stop-opacity:1;"
         offset="0"
         id="stop23" /><stop
         style="stop-color:#000000;stop-opacity:1;"
         offset="1"
         id="stop24" /></linearGradient><linearGradient
       id="linearGradient20"
       inkscape:collect="always"><stop
         style="stop-color:#2d2d2d;stop-opacity:1;"
         offset="0"
         id="stop19" /><stop
         style="stop-color:#000000;stop-opacity:1;"
         offset="1"
         id="stop20" /></linearGradient><linearGradient
       id="linearGradient16"
       inkscape:collect="always"><stop
         style="stop-color:#262626;stop-opacity:1;"
         offset="0"
         id="stop15" /><stop
         style="stop-color:#050505;stop-opacity:1;"
         offset="1"
         id="stop16" /></linearGradient><linearGradient
       id="linearGradient14"
       inkscape:collect="always"><stop
         style="stop-color:#282828;stop-opacity:1;"
         offset="0"
         id="stop13" /><stop
         style="stop-color:#000000;stop-opacity:1;"
         offset="1"
         id="stop14" /></linearGradient><linearGradient
       id="linearGradient4"
       inkscape:collect="always"><stop
         style="stop-color:#000000;stop-opacity:1;"
         offset="0"
         id="stop4" /><stop
         style="stop-color:#414141;stop-opacity:1;"
         offset="1"
         id="stop5" /></linearGradient><linearGradient
       id="linearGradient62"
       inkscape:collect="always"><stop
         style="stop-color:#232323;stop-opacity:0.99313891;"
         offset="0.24132709"
         id="stop61" /><stop
         style="stop-color:#383838;stop-opacity:1;"
         offset="1"
         id="stop62" /></linearGradient><linearGradient
       id="linearGradient54"
       inkscape:collect="always"><stop
         style="stop-color:#ffffff;stop-opacity:0.65104169;"
         offset="0.24132709"
         id="stop53" /><stop
         style="stop-color:#666666;stop-opacity:1"
         offset="1"
         id="stop54" /></linearGradient><linearGradient
       id="linearGradient49"
       inkscape:collect="always"><stop
         style="stop-color:#000000;stop-opacity:1;"
         offset="0"
         id="stop50" /><stop
         style="stop-color:#2d2d2d;stop-opacity:1;"
         offset="1"
         id="stop51" /></linearGradient><linearGradient
       id="linearGradient48"
       inkscape:collect="always"><stop
         style="stop-color:#090909;stop-opacity:1;"
         offset="0"
         id="stop48" /><stop
         style="stop-color:#252525;stop-opacity:0.63541669;"
         offset="1"
         id="stop49" /></linearGradient><linearGradient
       id="linearGradient39"
       inkscape:collect="always"><stop
         style="stop-color:#000000;stop-opacity:1;"
         offset="0"
         id="stop39" /><stop
         style="stop-color:#454545;stop-opacity:1;"
         offset="1"
         id="stop40" /></linearGradient><inkscape:path-effect
       effect="fillet_chamfer"
       id="path-effect39"
       is_visible="true"
       lpeversion="1"
       nodesatellites_param="F,0,0,1,0,2.0654012,0,1 @ F,0,0,1,0,8.7710929,0,1 @ F,0,0,1,0,0,0,1 @ F,0,0,1,0,3.0563154,0,1 @ F,0,0,1,0,2.4892785,0,1 @ F,0,0,1,0,6.2439813,0,1 @ F,0,0,1,0,0,0,1 @ F,0,0,1,0,3.933313,0,1 @ F,0,0,1,0,0,0,1 @ F,0,0,1,0,2.5298706,0,1 @ F,0,0,1,0,4.4019816,0,1 @ F,0,0,1,0,4.024131,0,1 @ F,0,0,1,0,0,0,1 @ F,0,0,1,0,4.1917205,0,1 @ F,0,0,1,0,2.6495767,0,1 @ F,0,0,1,0,5.7830799,0,1 @ F,0,0,1,0,4.4019816,0,1"
       radius="0"
       unit="px"
       method="auto"
       mode="F"
       chamfer_steps="1"
       flexible="false"
       use_knot_distance="true"
       apply_no_radius="true"
       apply_with_radius="true"
       only_selected="false"
       hide_knots="false" /><linearGradient
       inkscape:collect="always"
       xlink:href="#linearGradient54"
       id="linearGradient42"
       x1="56.981396"
       y1="43.178459"
       x2="52.567116"
       y2="36.630993"
       gradientUnits="userSpaceOnUse"
       gradientTransform="matrix(8.39669,6.5714306e-8,-6.5714306e-8,8.39669,-226.62113,-191.45997)" /><radialGradient
       inkscape:collect="always"
       xlink:href="#linearGradient48"
       id="radialGradient49"
       cx="49.965412"
       cy="43.665936"
       fx="49.965412"
       fy="43.665936"
       r="6.539712"
       gradientTransform="matrix(5.0083508,-19.857703,28.734816,7.2472659,-1264.5322,833.32476)"
       gradientUnits="userSpaceOnUse" /><linearGradient
       inkscape:collect="always"
       xlink:href="#linearGradient14"
       id="linearGradient51"
       x1="51.195705"
       y1="34.650131"
       x2="55.157654"
       y2="38.81979"
       gradientUnits="userSpaceOnUse"
       gradientTransform="matrix(8.3928456,-0.25407935,0.25407935,8.3928456,-231.22942,-193.10567)" /><linearGradient
       inkscape:collect="always"
       xlink:href="#linearGradient16"
       id="linearGradient53"
       gradientUnits="userSpaceOnUse"
       x1="51.195705"
       y1="34.650131"
       x2="55.157654"
       y2="38.81979"
       gradientTransform="matrix(8.3928456,-0.25407935,0.25407935,8.3928456,20.202889,-193.28545)" /><linearGradient
       inkscape:collect="always"
       xlink:href="#linearGradient49"
       id="linearGradient57"
       gradientUnits="userSpaceOnUse"
       gradientTransform="matrix(6.184635,1.081347,-0.73926579,4.4933428,237.48739,-194.3739)"
       x1="51.195705"
       y1="34.650131"
       x2="55.157654"
       y2="38.81979" /><linearGradient
       inkscape:collect="always"
       xlink:href="#linearGradient49"
       id="linearGradient58"
       gradientUnits="userSpaceOnUse"
       gradientTransform="matrix(5.1951462,-0.15727438,0.13157329,4.3461782,218.56904,-102.96861)"
       x1="51.195705"
       y1="34.650131"
       x2="55.157654"
       y2="38.81979" /><linearGradient
       inkscape:collect="always"
       xlink:href="#linearGradient20"
       id="linearGradient59"
       gradientUnits="userSpaceOnUse"
       gradientTransform="matrix(5.3863083,1.703626,-1.8557323,4.1564025,357.0377,-184.75234)"
       x1="51.195705"
       y1="34.650131"
       x2="55.157654"
       y2="38.81979" /><linearGradient
       inkscape:collect="always"
       xlink:href="#linearGradient49"
       id="linearGradient60"
       gradientUnits="userSpaceOnUse"
       gradientTransform="matrix(5.646691,0.84107431,-0.74585537,5.0074228,271.65275,-152.09885)"
       x1="51.195705"
       y1="34.650131"
       x2="55.157654"
       y2="38.81979" /><linearGradient
       inkscape:collect="always"
       xlink:href="#linearGradient62"
       id="linearGradient61"
       gradientUnits="userSpaceOnUse"
       gradientTransform="matrix(11.367669,-2.8971454e-8,1.6341932e-7,8.0957145,-437.7505,-193.2891)"
       x1="56.981396"
       y1="43.178459"
       x2="52.567116"
       y2="36.630993" /><linearGradient
       inkscape:collect="always"
       xlink:href="#linearGradient4"
       id="linearGradient5"
       x1="47.403008"
       y1="31.717222"
       x2="54.831654"
       y2="37.411083"
       gradientUnits="userSpaceOnUse"
       gradientTransform="matrix(8.3928456,-0.25407935,0.25407935,8.3928456,-259.00143,-240.98493)" /><linearGradient
       inkscape:collect="always"
       xlink:href="#linearGradient49"
       id="linearGradient8"
       gradientUnits="userSpaceOnUse"
       gradientTransform="matrix(5.3291488,-0.45894975,0.51976321,5.736727,47.807959,-96.406437)"
       x1="51.195705"
       y1="34.650131"
       x2="55.157654"
       y2="38.81979" /><linearGradient
       inkscape:collect="always"
       xlink:href="#linearGradient49"
       id="linearGradient3"
       gradientUnits="userSpaceOnUse"
       gradientTransform="matrix(0.60289568,-0.02030209,0.0715595,0.31279551,40.419077,25.110644)"
       x1="51.195705"
       y1="34.650131"
       x2="55.157654"
       y2="38.81979" /><linearGradient
       inkscape:collect="always"
       xlink:href="#linearGradient54"
       id="linearGradient1"
       gradientUnits="userSpaceOnUse"
       gradientTransform="matrix(8.4356493,-1.305884e-7,-2.4652973e-8,8.3966905,18.6303,-227.31849)"
       x1="56.981396"
       y1="43.178459"
       x2="52.567116"
       y2="36.630993" /><radialGradient
       inkscape:collect="always"
       xlink:href="#linearGradient48"
       id="radialGradient1"
       gradientUnits="userSpaceOnUse"
       gradientTransform="matrix(5.0315884,-19.857704,28.868138,7.247265,-1024.0965,797.46631)"
       cx="49.965412"
       cy="43.665936"
       fx="49.965412"
       fy="43.665936"
       r="6.539712" /><linearGradient
       inkscape:collect="always"
       xlink:href="#linearGradient49"
       id="linearGradient9"
       gradientUnits="userSpaceOnUse"
       gradientTransform="matrix(3.6119786,-0.10934658,0.08839172,2.9197894,201.57303,-62.705902)"
       x1="51.195705"
       y1="34.650131"
       x2="55.157654"
       y2="38.81979" /><linearGradient
       inkscape:collect="always"
       xlink:href="#linearGradient49"
       id="linearGradient10"
       gradientUnits="userSpaceOnUse"
       gradientTransform="matrix(3.6048467,-0.10913069,0.0835621,2.7602542,123.60522,-58.765552)"
       x1="51.195705"
       y1="34.650131"
       x2="55.157654"
       y2="38.81979" /><linearGradient
       inkscape:collect="always"
       xlink:href="#linearGradient49"
       id="linearGradient11"
       gradientUnits="userSpaceOnUse"
       gradientTransform="matrix(3.6048467,-0.10913069,0.0835621,2.7602542,102.55879,-19.787829)"
       x1="51.195705"
       y1="34.650131"
       x2="55.157654"
       y2="38.81979" /><linearGradient
       inkscape:collect="always"
       xlink:href="#linearGradient49"
       id="linearGradient12"
       gradientUnits="userSpaceOnUse"
       gradientTransform="matrix(3.6119786,-0.10934658,0.08839172,2.9197894,214.02851,-23.013284)"
       x1="51.195705"
       y1="34.650131"
       x2="55.157654"
       y2="38.81979" /><radialGradient
       inkscape:collect="always"
       xlink:href="#linearGradient39"
       id="radialGradient13"
       cx="49.602699"
       cy="69.347954"
       fx="49.602699"
       fy="69.347954"
       r="41.824829"
       gradientTransform="matrix(1.3974404,-1.2260395,1.2138897,1.3835921,-87.660947,35.7402)"
       gradientUnits="userSpaceOnUse" /><linearGradient
       inkscape:collect="always"
       xlink:href="#linearGradient23"
       id="linearGradient24"
       x1="63.438206"
       y1="77.062508"
       x2="62.212639"
       y2="44.518757"
       gradientUnits="userSpaceOnUse"
       gradientTransform="matrix(8.453086,0,0,8.4776729,-222.68953,-253.26021)" /></defs><g
     inkscape:label="Layer 1"
     inkscape:groupmode="layer"
     id="layer1"
     transform="translate(-2.3842691,-1.1938109)"><path
       id="rect18"
       style="fill:url(#linearGradient24);fill-opacity:1;stroke:#636f94;stroke-width:5.59949;stroke-linejoin:round;stroke-miterlimit:80;stroke-dasharray:none;stroke-dashoffset:127.298;stroke-opacity:1;paint-order:stroke markers fill"
       d="m 6.593159,348.90037 c 0,0 119.176851,-206.99348 200.044901,-188.87916 15.55326,3.48391 316.27001,11.17773 320.9734,15.69735 1.55984,1.49893 176.01134,160.81407 170.75445,190.02373 -3.37726,18.76575 -18.99662,50.12898 -30.98504,55.56045 -28.47109,12.89912 -71.33863,12.19191 -86.15698,-3.17107 -32.64033,-33.83982 -47.33703,-73.54907 -59.28884,-109.5345 -11.69637,-35.21659 -16.5301,-67.57578 -39.53188,-82.70199 -12.20262,-8.02462 -67.58343,-9.26728 -131.70458,-11.95072 -62.1705,-2.60187 -131.58808,-9.42165 -142.10652,2.36019 -16.85596,18.88071 -29.07185,59.723 -41.30871,81.47408 -26.68047,47.42486 -41.41361,75.57938 -70.82138,89.83722 -16.256556,7.88169 -55.476679,2.0154 -75.141263,-9.6514 C 9.342611,370.85814 6.593159,348.90037 6.593159,348.90037 Z"
       sodipodi:nodetypes="cssssssssssssc" /><path
       id="path13"
       style="fill:url(#radialGradient13);stroke:#636f94;stroke-width:0.529;stroke-linecap:butt;stroke-linejoin:round;stroke-miterlimit:80;stroke-dasharray:none;stroke-dashoffset:127.298;stroke-opacity:1;paint-order:stroke markers fill"
       d="m 39.42872,38.891593 0.810198,-1.189146 c 2.727544,-4.003274 8.83878,-7.788803 13.678072,-7.934109 6.383877,-0.191684 13.216839,0.08439 17.747429,0.26296 6.03473,0.237861 10.36583,0.243395 15.585561,0.844288 1.676619,0.193012 4.161388,1.179836 5.3634,2.353081 1.315262,1.283785 2.98749,3.039333 4.553127,4.760539 0.925032,1.016949 2.384848,2.708169 3.120343,3.868137 0.44288,0.698474 0.88724,1.469192 1.32519,2.274458 1.6473,3.028949 4.00118,8.11548 5.08847,11.385669 0.33805,1.016744 0.68091,2.124752 1.02791,3.335338 0.88734,3.095667 1.46258,9.680141 1.5153,14.103032 0.0259,2.168646 -0.85801,5.926522 -2.7993,6.538475 -0.56176,0.17708 -1.23692,0.354778 -2.05169,0.591746 -2.8498,0.828831 -5.806757,-2.784188 -7.409763,-5.355349 -0.738114,-1.183905 -1.537904,-3.308243 -1.979446,-4.633849 L 89.914557,54.818689 C 89.146272,52.51213 86.575242,50.354084 84.155663,50.187556 75.979672,49.624842 58.482342,48.874861 50.60327,48.949699 c -2.207465,0.02097 -4.85204,1.898847 -5.922417,3.846576 l -1.951599,3.55126 -4.233034,12.989866 c -0.717278,2.201101 -2.987588,4.823492 -5.206573,5.43805 -0.764749,0.211801 -1.548494,0.403668 -2.256146,0.541379 -1.385702,0.269664 -3.007859,-1.129545 -3.565385,-2.482494 -0.786446,-1.908468 -1.166589,-6.042796 -0.376042,-9.130224 0.587807,-2.295641 1.449865,-5.133842 2.658107,-8.224032 0.885118,-2.263774 2.570428,-5.835891 3.843552,-7.905458 1.085959,-1.765313 2.303453,-3.532912 3.503101,-5.273657 0.647215,-0.939141 1.689608,-2.466688 2.331886,-3.409372 z"
       sodipodi:nodetypes="scsssssssssscsssss"
       transform="matrix(8.4110954,0,0,8.4110954,-219.53638,-246.4188)"
       inkscape:original-d="m 38.265774,40.598473 6.911799,-10.144595 c 7.871882,-1.171273 19.735609,-0.688683 26.486846,-0.42258 7.159883,0.282209 11.921644,0.237383 18.614634,1.247844 0.713656,0.107743 5.332975,4.896599 8.545549,8.566577 1.884848,2.153216 3.967388,6.502802 5.581148,9.869123 1.04428,2.178368 2.16025,5.082615 3.32267,9.137966 1.2445,4.341693 1.8751,15.545956 1.31127,18.024688 -0.51535,2.26562 -1.61363,2.326355 -4.64696,3.208565 -3.98893,1.160133 -8.187801,-6.382308 -8.589726,-7.588975 L 88.523454,50.642294 C 88.34256,50.099211 47.212148,48.190162 46.618942,49.269599 l -3.889688,7.077936 -5.53178,16.975312 c -0.15251,0.468006 -8.290042,3.004275 -8.719867,1.96122 l -2.433458,-5.905269 c -0.152287,-0.369554 1.095879,-8.629222 5.436168,-17.945481 1.675484,-3.596361 4.372161,-7.292797 6.785457,-10.834844 z"
       inkscape:path-effect="#path-effect39" /><ellipse
       style="opacity:1;fill:url(#linearGradient42);stroke:url(#radialGradient49);stroke-width:22.2163;stroke-linejoin:bevel;stroke-miterlimit:80;stroke-dasharray:none;stroke-dashoffset:127.298;stroke-opacity:1;paint-order:markers stroke fill"
       id="path40"
       ry="29.1898"
       rx="43.803814"
       cy="132.38348"
       cx="221.76126"
       transform="rotate(-1.7340042)" /><ellipse
       style="opacity:1;fill:url(#linearGradient61);stroke:#636f95;stroke-width:3.35215;stroke-linejoin:bevel;stroke-miterlimit:80;stroke-dasharray:none;stroke-dashoffset:127.298;stroke-opacity:1;paint-order:markers stroke fill"
       id="ellipse60"
       transform="matrix(0.92071246,-0.39024167,0.24509049,0.96950021,0,0)"
       ry="28.143496"
       rx="59.302811"
       cy="118.94627"
       cx="169.28192" /><path
       id="path6"
       style="opacity:1;fill:#000000;fill-opacity:0.765217;stroke-width:22.2029;stroke-linejoin:bevel;stroke-miterlimit:80;stroke-dashoffset:127.298;stroke-opacity:0.363044;paint-order:markers stroke fill"
       d="m 194.87914,49.77273 24.83219,-1.557363 1.42362,9.763126 -23.40123,2.556113 z"
       sodipodi:nodetypes="ccccc" /><path
       id="path5"
       style="opacity:1;fill:#000000;fill-opacity:0.765217;stroke-width:22.2029;stroke-linejoin:bevel;stroke-miterlimit:80;stroke-dashoffset:127.298;stroke-opacity:0.363044;paint-order:markers stroke fill"
       d="m 138.069,47.029148 32.31906,1.470229 -2.80559,10.768325 -29.17183,-1.226117 z"
       sodipodi:nodetypes="ccccc" /><path
       id="path7"
       style="opacity:1;fill:#000000;fill-opacity:0.765217;stroke-width:22.2029;stroke-linejoin:bevel;stroke-miterlimit:80;stroke-dashoffset:127.298;stroke-opacity:0.363044;paint-order:markers stroke fill"
       d="m 159.30071,66.73735 26.99751,-0.493227 3.56091,10.678727 -31.15125,-0.50859 z"
       sodipodi:nodetypes="ccccc" /><path
       id="path3"
       style="opacity:1;fill:url(#linearGradient5);stroke:#636f95;stroke-width:3.33245;stroke-linejoin:bevel;stroke-miterlimit:80;stroke-dasharray:none;stroke-dashoffset:127.298;stroke-opacity:1;paint-order:markers stroke fill"
       d="m 219.92629,48.506128 -24.97643,1.449921 -8.69815,16.366157 -26.51392,0.611616 10.01215,-18.514642 -31.4533,-1.122176 9.93555,-15.698504 26.47147,1.44952 6.45102,-18.150503 20.14669,-0.935594 -4.67517,19.346251 27.60614,-1.669656 z"
       sodipodi:nodetypes="ccccccccccccc" /><path
       id="path39"
       style="opacity:1;fill:url(#linearGradient51);fill-opacity:1;stroke:#636f95;stroke-width:6.66485;stroke-linejoin:bevel;stroke-miterlimit:80;stroke-dasharray:none;stroke-dashoffset:127.298;stroke-opacity:1;paint-order:stroke markers fill"
       d="m 253.80708,96.00781 c 0.33109,10.93692 -15.8747,23.71304 -32.78362,24.22493 -16.90893,0.51186 -29.97698,-7.60769 -30.30808,-18.54461 -0.33108,-10.93693 14.96697,-24.04462 31.87588,-24.55652 16.90894,-0.51186 30.88474,7.93928 31.21582,18.8762 z"
       sodipodi:nodetypes="sssss" /><path
       id="path39-7-3"
       style="opacity:1;fill:url(#linearGradient57);fill-opacity:1;stroke:#636f95;stroke-width:3.64351;stroke-linejoin:bevel;stroke-miterlimit:80;stroke-dasharray:none;stroke-dashoffset:127.298;stroke-opacity:1;paint-order:stroke markers fill"
       d="m 553.10369,33.736997 c 2.03102,5.56536 -14.1849,4.649507 -17.15961,3.799376 -12.17806,-3.480377 -20.66775,-10.360896 -19.70441,-16.216269 0.96336,-5.855389 15.90904,-3.746014 21.27238,-1.45523 4.22278,1.803643 13.23876,7.424732 15.59164,13.872123 z"
       sodipodi:nodetypes="sssss" /><path
       id="path57"
       style="opacity:1;fill:url(#linearGradient58);fill-opacity:1;stroke:#636f95;stroke-width:3.33245;stroke-linejoin:bevel;stroke-miterlimit:80;stroke-dasharray:none;stroke-dashoffset:127.298;stroke-opacity:1;paint-order:stroke markers fill"
       d="m 518.04365,46.578 c 0.17144,5.663599 -9.0421,10.79555 -19.50869,11.112404 -10.46658,0.316892 -18.45955,-5.790759 -18.63102,-11.454359 -0.17147,-5.663628 8.09192,-11.060526 18.55844,-11.377383 10.46661,-0.316892 19.4098,6.055703 19.58127,11.719338 z"
       sodipodi:nodetypes="sssss" /><path
       id="path58"
       style="opacity:1;fill:url(#linearGradient59);fill-opacity:1;stroke:#636f95;stroke-width:3.33245;stroke-linejoin:bevel;stroke-miterlimit:80;stroke-dasharray:none;stroke-dashoffset:127.298;stroke-opacity:1;paint-order:stroke markers fill"
       d="m 589.8554,67.767946 c -1.42821,2.903922 -3.85413,2.749903 -6.04918,3.056426 -4.79453,0.66955 -10.75946,-1.088455 -14.91983,-3.704101 -4.32668,-2.72022 -8.19807,-5.672237 -11.46606,-10.123588 -2.03628,-2.773606 -1.61503,-7.768585 0.0436,-8.918511 6.31781,-4.380451 16.41458,0.925996 21.14903,4.498182 6.50989,4.911829 12.59509,12.441009 11.24237,15.191592 z"
       sodipodi:nodetypes="sssssss" /><path
       id="path8"
       style="opacity:1;fill:url(#linearGradient8);fill-opacity:1;stroke:#636f95;stroke-width:3.33245;stroke-linejoin:bevel;stroke-miterlimit:80;stroke-dasharray:none;stroke-dashoffset:127.298;stroke-opacity:1;paint-order:stroke markers fill"
       d="m 369.03727,86.7299 c 0.67736,7.47567 -8.34462,14.70245 -19.08118,15.62709 -10.73656,0.92466 -19.49736,-6.75967 -20.1747,-14.23533 -0.67736,-7.47568 7.34396,-15.006656 18.08048,-15.931292 10.73653,-0.924668 20.49806,7.063862 21.1754,14.539532 z"
       sodipodi:nodetypes="sssss" /><ellipse
       style="opacity:1;fill:url(#linearGradient1);stroke:url(#radialGradient1);stroke-width:22.2676;stroke-linejoin:bevel;stroke-miterlimit:80;stroke-dasharray:none;stroke-dashoffset:127.298;stroke-opacity:1;paint-order:markers stroke fill"
       id="ellipse1"
       ry="29.1898"
       rx="44.007053"
       cy="96.524948"
       cx="469.09311"
       transform="matrix(0.99783064,0.06583321,0.03025946,0.99954208,0,0)" /><path
       id="path39-7"
       style="opacity:1;fill:url(#linearGradient53);fill-opacity:1;stroke:#636f95;stroke-width:6.66485;stroke-linejoin:bevel;stroke-miterlimit:80;stroke-dasharray:none;stroke-dashoffset:127.298;stroke-opacity:1;paint-order:stroke markers fill"
       d="m 505.52287,98.31709 c 0.33108,10.93691 -14.50724,20.75774 -31.41615,21.26962 -16.90894,0.51186 -29.88236,-11.35697 -30.21344,-22.29389 -0.33108,-10.93694 12.96936,-21.2784 29.87827,-21.7903 16.90891,-0.51185 31.42021,11.87764 31.75132,22.81457 z"
       sodipodi:nodetypes="sssss" /><path
       id="path59"
       style="opacity:1;fill:url(#linearGradient60);fill-opacity:1;stroke:#636f95;stroke-width:3.33245;stroke-linejoin:bevel;stroke-miterlimit:80;stroke-dasharray:none;stroke-dashoffset:127.298;stroke-opacity:1;paint-order:stroke markers fill"
       d="m 564.74749,78.18559 c -0.9719,6.52528 -11.97788,10.59615 -23.35423,8.90165 -11.37629,-1.6945 -18.76657,-10.2664 -17.79461,-16.79168 0.97195,-6.525303 11.00514,-11.086678 22.38143,-9.392173 11.37629,1.694494 19.73936,10.756888 18.76741,17.282203 z"
       sodipodi:nodetypes="sssss" /><path
       d="m 555.1721,77.49118 -4.37524,-0.14005 -3.27394,-5.040385 -7.29168,-0.16953 -1.19713,4.081405 -4.25046,0.20681 5.45487,-12.584294 4.47447,0.202023 z m -9.52801,-7.161463 -2.39421,-4.667441 -0.75176,0.03612 -1.56419,4.755111 z"
       id="text2"
       style="font-size:3.175px;opacity:1;fill:#ffffff;fill-opacity:0.757208;stroke:none;stroke-width:3.33245;stroke-linejoin:bevel;stroke-miterlimit:80;stroke-dasharray:none;stroke-dashoffset:127.298;stroke-opacity:1;paint-order:markers stroke fill"
       aria-label="A"
       sodipodi:nodetypes="cccccccccccccc" /><path
       id="path9"
       style="opacity:1;fill:url(#linearGradient9);fill-opacity:1;stroke:#636f95;stroke-width:3.33245;stroke-linejoin:bevel;stroke-miterlimit:80;stroke-dasharray:none;stroke-dashoffset:127.298;stroke-opacity:1;paint-order:stroke markers fill"
       d="m 409.67327,37.551199 c 0.11528,3.804841 -6.29407,7.259163 -13.57108,7.47946 -7.27696,0.220329 -12.8297,-3.877307 -12.94489,-7.68214 -0.11529,-3.80486 5.63367,-7.436511 12.91065,-7.656807 7.27699,-0.220328 13.49012,4.054627 13.60532,7.859487 z"
       sodipodi:nodetypes="sssss" /><path
       id="path10"
       style="opacity:1;fill:url(#linearGradient10);fill-opacity:1;stroke:#636f95;stroke-width:3.33245;stroke-linejoin:bevel;stroke-miterlimit:80;stroke-dasharray:none;stroke-dashoffset:127.298;stroke-opacity:1;paint-order:stroke markers fill"
       d="m 331.12483,35.686923 c 0.10894,3.596951 -6.2929,6.872908 -13.55553,7.09277 -7.26263,0.219909 -12.79759,-3.645205 -12.90648,-7.242147 -0.10895,-3.596975 5.63409,-7.039517 12.89673,-7.259384 7.26262,-0.219827 13.45639,3.811794 13.56528,7.408761 z"
       sodipodi:nodetypes="sssss" /><path
       id="path11"
       style="opacity:1;fill:url(#linearGradient11);fill-opacity:1;stroke:#636f95;stroke-width:3.33245;stroke-linejoin:bevel;stroke-miterlimit:80;stroke-dasharray:none;stroke-dashoffset:127.298;stroke-opacity:1;paint-order:stroke markers fill"
       d="m 310.07841,74.66464 c 0.10892,3.59695 -6.29292,6.87291 -13.55556,7.09278 -7.2626,0.21983 -12.79757,-3.6452 -12.90644,-7.24215 -0.10895,-3.596975 5.63408,-7.03952 12.89669,-7.259376 7.26263,-0.219825 13.45639,3.811798 13.56531,7.408746 z"
       sodipodi:nodetypes="sssss" /><path
       id="path12"
       style="opacity:1;fill:url(#linearGradient12);fill-opacity:1;stroke:#636f95;stroke-width:3.33245;stroke-linejoin:bevel;stroke-miterlimit:80;stroke-dasharray:none;stroke-dashoffset:127.298;stroke-opacity:1;paint-order:stroke markers fill"
       d="m 422.12875,77.24381 c 0.11526,3.80484 -6.29409,7.25916 -13.57107,7.47946 -7.27699,0.22033 -12.8297,-3.8773 -12.9449,-7.68214 -0.11528,-3.804862 5.63368,-7.436507 12.91063,-7.656809 7.27698,-0.220329 13.49015,4.054635 13.60534,7.859489 z"
       sodipodi:nodetypes="sssss" /><path
       d="m 507.3795,37.857414 -5.68575,5.644935 7.37954,6.434159 -5.07027,0.497417 -4.95349,-5.813814 -3.55275,5.208089 -5.32962,0.07725 6.27418,-6.772617 -6.4116,-4.778296 4.66889,-0.253329 4.36126,2.989122 3.97772,-3.381509 z"
       id="text18"
       style="font-size:3.175px;opacity:1;fill:#ffffff;fill-opacity:0.764795;stroke-width:5.55404;stroke-linejoin:round;stroke-miterlimit:80;stroke-dashoffset:127.298;paint-order:stroke markers fill"
       aria-label="X"
       sodipodi:nodetypes="ccccccccccccc" /><path
       d="m 542.02099,22.858623 -4.09221,5.189892 0.9132,4.278367 -3.19139,0.09665 -0.25248,-4.640643 -8.39681,-6.708577 3.62736,-0.277762 5.84111,4.914238 3.26336,-4.294244 z"
       id="text19"
       style="font-size:3.175px;opacity:1;fill:#ffffff;fill-opacity:0.76;stroke-width:5.55404;stroke-linejoin:round;stroke-miterlimit:80;stroke-dashoffset:127.298;paint-order:stroke markers fill"
       aria-label="Y"
       sodipodi:nodetypes="cccccccccc" /><path
       d="m 579.75108,63.54937 c 0.0287,0.930819 -2.91973,1.051605 -5.00291,0.44477 l -5.57482,-1.623887 -3.89566,-11.469456 6.76578,0.982379 c 1.39989,0.203282 2.27872,0.847903 2.84786,1.273331 0.6264,0.468202 1.74151,1.426065 2.01811,2.634478 0.20531,0.896689 -0.11426,1.537612 -0.56282,2.202361 l 1.9778,1.54498 c 0.70002,0.546879 1.92547,2.683418 1.42666,4.010948 z m -7.5253,-9.594388 -2.94661,-0.456361 1.2426,2.465495 2.70141,0.596249 c 2.31181,0.510267 1.60966,-0.961975 1.01821,-1.575435 -0.68908,-0.714645 -1.1371,-0.670815 -2.01561,-1.030001 z m 3.76175,6.009553 c -0.28016,-0.355935 -1.20685,-0.827409 -1.777,-1.020381 -0.84478,-0.285912 -2.88764,-0.714894 -2.89322,-0.734293 l 0.90725,3.14416 c 0,0 3.11017,1.456035 4.53083,0.857401 0.76781,-0.323442 -0.34194,-1.764406 -0.76802,-2.246828 z"
       id="text20"
       style="font-size:3.175px;opacity:1;fill:#ff0000;fill-opacity:0.76;stroke-width:5.55404;stroke-linejoin:round;stroke-miterlimit:80;stroke-dashoffset:127.298;paint-order:stroke markers fill"
       aria-label="B"
       sodipodi:nodetypes="ssccssscsssscssscscscccsc" /><path
       d="m 404.79861,37.46755 -7.09119,0.214704 0.17271,4.096521 -2.1599,0.06549 -0.1727,-4.096518 -7.09119,0.214701 -0.063,-2.081815 7.09118,-0.214704 -0.068,-3.854116 2.15989,-0.06549 0.068,3.854114 7.09119,-0.214704 z"
       id="text24"
       style="font-size:3.175px;opacity:1;fill:#ffffff;fill-opacity:0.76;stroke-width:3.33245;stroke-linejoin:round;stroke-miterlimit:80;stroke-dashoffset:127.298;paint-order:stroke markers fill"
       aria-label="+"
       sodipodi:nodetypes="ccccccccccccc" /><rect
       style="opacity:1;fill:#ffffff;fill-opacity:0.763278;stroke:none;stroke-width:3.33245;stroke-linejoin:round;stroke-miterlimit:80;stroke-dasharray:none;stroke-dashoffset:127.298;stroke-opacity:1;paint-order:stroke markers fill"
       id="rect24"
       width="12.42013"
       height="2.5527542"
       x="310.56308"
       y="43.415028"
       transform="rotate(-1.7340042)" /></g></svg>
